999
"DXF R12 Output" (www.mydxf.blogspot.com)
 0 
SECTION
 2 
HEADER
 9 
$ACADVER
 1 
AC1009
 9 
$EXTMIN
 10 
 0 
 20 
 0 
 9 
$EXTMAX
 10 
 8.5 
 20 
 11 
 0 
ENDSEC
 0 
SECTION
 2 
ENTITIES
0
LINE
8
Слой 1
10
37.186600
20
71.080200
11
36.951340
21
71.330630
0
LINE
8
Слой 1
10
36.951340
20
71.330630
11
36.937240
21
73.670040
0
LINE
8
Слой 1
10
36.937240
20
73.670040
11
36.923140
21
76.009440
0
LINE
8
Слой 1
10
36.923140
20
76.009440
11
37.053720
21
76.139990
0
LINE
8
Слой 1
10
37.053720
20
76.139990
11
37.184290
21
76.270540
0
LINE
8
Слой 1
10
37.184290
20
76.270540
11
37.944920
21
76.291740
0
LINE
8
Слой 1
10
37.944920
20
76.291740
11
39.331598
21
76.302002
0
LINE
8
Слой 1
10
39.331598
20
76.302002
11
39.859000
21
76.194440
0
LINE
8
Слой 1
10
39.859000
20
76.194440
11
40.387898
21
75.740544
0
LINE
8
Слой 1
10
40.387898
20
75.740544
11
40.723430
21
75.209480
0
LINE
8
Слой 1
10
40.723430
20
75.209480
11
40.923960
21
74.911900
0
LINE
8
Слой 1
10
40.923960
20
74.911900
11
41.063200
21
74.858500
0
LINE
8
Слой 1
10
41.063200
20
74.858500
11
41.123900
21
75.100320
0
LINE
8
Слой 1
10
41.123900
20
75.100320
11
41.545210
21
75.735840
0
LINE
8
Слой 1
10
41.545210
20
75.735840
11
41.905830
21
76.129550
0
LINE
8
Слой 1
10
41.905830
20
76.129550
11
42.278170
21
76.257560
0
LINE
8
Слой 1
10
42.278170
20
76.257560
11
42.650510
21
76.385560
0
LINE
8
Слой 1
10
42.650510
20
76.385560
11
43.260420
21
76.372360
0
LINE
8
Слой 1
10
43.260420
20
76.372360
11
43.870330
21
76.359160
0
LINE
8
Слой 1
10
43.870330
20
76.359160
11
43.911530
21
76.235710
0
LINE
8
Слой 1
10
43.911530
20
76.235710
11
44.116360
21
76.112260
0
LINE
8
Слой 1
10
44.116360
20
76.112260
11
44.482284
21
75.868900
0
LINE
8
Слой 1
10
44.482284
20
75.868900
11
44.852250
21
75.206830
0
LINE
8
Слой 1
10
44.852250
20
75.206830
11
45.044350
21
74.739650
0
LINE
8
Слой 1
10
45.044350
20
74.739650
11
45.176410
21
74.739230
0
LINE
8
Слой 1
10
45.176410
20
74.739230
11
45.308470
21
74.738810
0
LINE
8
Слой 1
10
45.308470
20
74.738810
11
45.308500
21
74.901000
0
LINE
8
Слой 1
10
45.308500
20
74.901000
11
45.503109
21
75.364672
0
LINE
8
Слой 1
10
45.503109
20
75.364672
11
45.971430
21
75.916530
0
LINE
8
Слой 1
10
45.971430
20
75.916530
11
46.273180
21
76.196270
0
LINE
8
Слой 1
10
46.273180
20
76.196270
11
46.732020
21
76.311800
0
LINE
8
Слой 1
10
46.732020
20
76.311800
11
47.190850
21
76.427330
0
LINE
8
Слой 1
10
47.190850
20
76.427330
11
47.702300
21
76.329930
0
LINE
8
Слой 1
10
47.702300
20
76.329930
11
48.430865
21
76.119753
0
LINE
8
Слой 1
10
48.430865
20
76.119753
11
48.857540
21
75.608000
0
LINE
8
Слой 1
10
48.857540
20
75.608000
11
49.177800
21
75.108610
0
LINE
8
Слой 1
10
49.177800
20
75.108610
11
49.199100
21
74.768170
0
LINE
8
Слой 1
10
49.199100
20
74.768170
11
49.220400
21
74.427720
0
LINE
8
Слой 1
10
49.220400
20
74.427720
11
49.042450
21
74.219900
0
LINE
8
Слой 1
10
49.042450
20
74.219900
11
48.864500
21
74.012080
0
LINE
8
Слой 1
10
48.864500
20
74.012080
11
47.807570
21
74.008080
0
LINE
8
Слой 1
10
47.807570
20
74.008080
11
46.750630
21
74.004080
0
LINE
8
Слой 1
10
46.750630
20
74.004080
11
46.641590
21
73.895050
0
LINE
8
Слой 1
10
46.641590
20
73.895050
11
46.532560
21
73.786010
0
LINE
8
Слой 1
10
46.532560
20
73.786010
11
46.712920
21
73.605660
0
LINE
8
Слой 1
10
46.712920
20
73.605660
11
46.893270
21
73.425310
0
LINE
8
Слой 1
10
46.893270
20
73.425310
11
47.467400
21
73.425300
0
LINE
8
Слой 1
10
47.467400
20
73.425300
11
48.041500
21
73.425300
0
LINE
8
Слой 1
10
48.041500
20
73.425300
11
48.237200
21
73.602400
0
LINE
8
Слой 1
10
48.237200
20
73.602400
11
48.432900
21
73.779510
0
LINE
8
Слой 1
10
48.432900
20
73.779510
11
48.653610
21
73.721810
0
LINE
8
Слой 1
10
48.653610
20
73.721810
11
48.874330
21
73.664110
0
LINE
8
Слой 1
10
48.874330
20
73.664110
11
49.007110
21
73.416020
0
LINE
8
Слой 1
10
49.007110
20
73.416020
11
49.139880
21
73.167930
0
LINE
8
Слой 1
10
49.139880
20
73.167930
11
49.078180
21
73.007110
0
LINE
8
Слой 1
10
49.078180
20
73.007110
11
48.614040
21
72.640980
0
LINE
8
Слой 1
10
48.614040
20
72.640980
11
48.211610
21
72.435680
0
LINE
8
Слой 1
10
48.211610
20
72.435680
11
47.618000
21
72.361480
0
LINE
8
Слой 1
10
47.618000
20
72.361480
11
47.024380
21
72.287280
0
LINE
8
Слой 1
10
47.024380
20
72.287280
11
46.562640
21
72.502980
0
LINE
8
Слой 1
10
46.562640
20
72.502980
11
45.938550
21
72.856910
0
LINE
8
Слой 1
10
45.938550
20
72.856910
11
45.533895
21
73.354516
0
LINE
8
Слой 1
10
45.533895
20
73.354516
11
45.269130
21
73.919540
0
LINE
8
Слой 1
10
45.269130
20
73.919540
11
45.198930
21
74.210070
0
LINE
8
Слой 1
10
45.198930
20
74.210070
11
45.052400
21
74.210100
0
LINE
8
Слой 1
10
45.052400
20
74.210100
11
44.905800
21
74.210100
0
LINE
8
Слой 1
10
44.905800
20
74.210100
11
44.959300
21
74.005560
0
LINE
8
Слой 1
10
44.959300
20
74.005560
11
45.012800
21
73.801020
0
LINE
8
Слой 1
10
45.012800
20
73.801020
11
44.776770
21
73.381070
0
LINE
8
Слой 1
10
44.776770
20
73.381070
11
44.242084
21
72.754051
0
LINE
8
Слой 1
10
44.242084
20
72.754051
11
43.442190
21
72.431540
0
LINE
8
Слой 1
10
43.442190
20
72.431540
11
42.903750
21
72.316060
0
LINE
8
Слой 1
10
42.903750
20
72.316060
11
42.558650
21
72.415060
0
LINE
8
Слой 1
10
42.558650
20
72.415060
11
41.838426
21
72.782360
0
LINE
8
Слой 1
10
41.838426
20
72.782360
11
41.311380
21
73.379400
0
LINE
8
Слой 1
10
41.311380
20
73.379400
11
40.975310
21
73.787550
0
LINE
8
Слой 1
10
40.975310
20
73.787550
11
40.593760
21
73.343380
0
LINE
8
Слой 1
10
40.593760
20
73.343380
11
40.091814
21
72.730840
0
LINE
8
Слой 1
10
40.091814
20
72.730840
11
39.471690
21
72.418930
0
LINE
8
Слой 1
10
39.471690
20
72.418930
11
39.075520
21
72.300020
0
LINE
8
Слой 1
10
39.075520
20
72.300020
11
38.644630
21
72.429120
0
LINE
8
Слой 1
10
38.644630
20
72.429120
11
38.213740
21
72.558210
0
LINE
8
Слой 1
10
38.213740
20
72.558210
11
38.123940
21
72.413000
0
LINE
8
Слой 1
10
38.123940
20
72.413000
11
38.078440
21
71.944800
0
LINE
8
Слой 1
10
38.078440
20
71.944800
11
38.062440
21
71.331280
0
LINE
8
Слой 1
10
38.062440
20
71.331280
11
38.002140
21
71.040750
0
LINE
8
Слой 1
10
38.002140
20
71.040750
11
37.799300
21
71.040700
0
LINE
8
Слой 1
10
37.799300
20
71.040700
11
37.596400
21
70.935120
0
LINE
8
Слой 1
10
37.596400
20
70.935120
11
37.484554
21
70.842353
0
LINE
8
Слой 1
10
37.484554
20
70.842353
11
37.186670
21
71.079900
0
LINE
8
Слой 1
10
37.186670
20
71.079900
11
37.186600
21
71.080200
0
LINE
8
Слой 1
10
39.445850
20
73.683000
11
39.637780
21
73.895090
0
LINE
8
Слой 1
10
39.637780
20
73.895090
11
39.623380
21
74.278000
0
LINE
8
Слой 1
10
39.623380
20
74.278000
11
39.518285
21
74.898143
0
LINE
8
Слой 1
10
39.518285
20
74.898143
11
39.179460
21
75.214880
0
LINE
8
Слой 1
10
39.179460
20
75.214880
11
38.875950
21
75.371840
0
LINE
8
Слой 1
10
38.875950
20
75.371840
11
38.612320
21
75.271600
0
LINE
8
Слой 1
10
38.612320
20
75.271600
11
38.224620
21
74.939550
0
LINE
8
Слой 1
10
38.224620
20
74.939550
11
38.100560
21
74.707740
0
LINE
8
Слой 1
10
38.100560
20
74.707740
11
38.151160
21
74.258530
0
LINE
8
Слой 1
10
38.151160
20
74.258530
11
38.348040
21
73.644140
0
LINE
8
Слой 1
10
38.348040
20
73.644140
11
38.494280
21
73.478960
0
LINE
8
Слой 1
10
38.494280
20
73.478960
11
38.874080
21
73.474960
0
LINE
8
Слой 1
10
38.874080
20
73.474960
11
39.253880
21
73.470960
0
LINE
8
Слой 1
10
39.253880
20
73.470960
11
39.445810
21
73.683040
0
LINE
8
Слой 1
10
39.445810
20
73.683040
11
39.445850
21
73.683000
0
LINE
8
Слой 1
10
43.679390
20
73.843490
11
43.856180
21
74.216050
0
LINE
8
Слой 1
10
43.856180
20
74.216050
11
43.792780
21
74.606880
0
LINE
8
Слой 1
10
43.792780
20
74.606880
11
43.729380
21
74.997700
0
LINE
8
Слой 1
10
43.729380
20
74.997700
11
43.488900
21
75.182780
0
LINE
8
Слой 1
10
43.488900
20
75.182780
11
43.067769
21
75.355671
0
LINE
8
Слой 1
10
43.067769
20
75.355671
11
42.614560
21
75.099780
0
LINE
8
Слой 1
10
42.614560
20
75.099780
11
42.297620
21
74.827270
0
LINE
8
Слой 1
10
42.297620
20
74.827270
11
42.275420
21
74.545260
0
LINE
8
Слой 1
10
42.275420
20
74.545260
11
42.427810
21
73.867080
0
LINE
8
Слой 1
10
42.427810
20
73.867080
11
42.602450
21
73.470910
0
LINE
8
Слой 1
10
42.602450
20
73.470910
11
43.052600
21
73.470900
0
LINE
8
Слой 1
10
43.052600
20
73.470900
11
43.502700
21
73.470900
0
LINE
8
Слой 1
10
43.502700
20
73.470900
11
43.679390
21
73.843490
0
LINE
8
Слой 1
10
47.868430
20
74.989320
11
47.945730
21
75.108440
0
LINE
8
Слой 1
10
47.945730
20
75.108440
11
47.769050
21
75.240490
0
LINE
8
Слой 1
10
47.769050
20
75.240490
11
47.259160
21
75.372550
0
LINE
8
Слой 1
10
47.259160
20
75.372550
11
46.926000
21
75.372500
0
LINE
8
Слой 1
10
46.926000
20
75.372500
11
46.743440
21
75.170780
0
LINE
8
Слой 1
10
46.743440
20
75.170780
11
46.560880
21
74.969050
0
LINE
8
Слой 1
10
46.560880
20
74.969050
11
46.753480
21
74.854400
0
LINE
8
Слой 1
10
46.753480
20
74.854400
11
46.946070
21
74.739740
0
LINE
8
Слой 1
10
46.946070
20
74.739740
11
47.368650
21
74.804940
0
LINE
8
Слой 1
10
47.368650
20
74.804940
11
47.868500
21
74.989260
0
LINE
8
Слой 1
10
47.868500
20
74.989260
11
47.868430
21
74.989320
0
LINE
8
Слой 1
10
71.181530
20
71.357420
11
71.012830
21
71.456020
0
LINE
8
Слой 1
10
71.012830
20
71.456020
11
71.041430
21
72.225750
0
LINE
8
Слой 1
10
71.041430
20
72.225750
11
71.078130
21
73.114720
0
LINE
8
Слой 1
10
71.078130
20
73.114720
11
71.378180
21
73.354910
0
LINE
8
Слой 1
10
71.378180
20
73.354910
11
71.670170
21
73.475850
0
LINE
8
Слой 1
10
71.670170
20
73.475850
11
71.805970
21
73.910980
0
LINE
8
Слой 1
10
71.805970
20
73.910980
11
72.085280
21
75.372510
0
LINE
8
Слой 1
10
72.085280
20
75.372510
11
72.346420
21
76.112040
0
LINE
8
Слой 1
10
72.346420
20
76.112040
11
72.429320
21
76.270510
0
LINE
8
Слой 1
10
72.429320
20
76.270510
11
73.709480
21
76.301310
0
LINE
8
Слой 1
10
73.709480
20
76.301310
11
74.989640
21
76.332110
0
LINE
8
Слой 1
10
74.989640
20
76.332110
11
75.172800
21
76.118170
0
LINE
8
Слой 1
10
75.172800
20
76.118170
11
75.355980
21
75.904240
0
LINE
8
Слой 1
10
75.355980
20
75.904240
11
75.396080
21
74.766780
0
LINE
8
Слой 1
10
75.396080
20
74.766780
11
75.436180
21
73.629320
0
LINE
8
Слой 1
10
75.436180
20
73.629320
11
75.540260
21
73.503610
0
LINE
8
Слой 1
10
75.540260
20
73.503610
11
75.874370
21
73.345140
0
LINE
8
Слой 1
10
75.874370
20
73.345140
11
76.104400
21
73.312440
0
LINE
8
Слой 1
10
76.104400
20
73.312440
11
76.137100
21
72.625740
0
LINE
8
Слой 1
10
76.137100
20
72.625740
11
76.104800
21
71.589670
0
LINE
8
Слой 1
10
76.104800
20
71.589670
11
76.039800
21
71.240290
0
LINE
8
Слой 1
10
76.039800
20
71.240290
11
75.660240
21
71.272690
0
LINE
8
Слой 1
10
75.660240
20
71.272690
11
75.280690
21
71.305090
0
LINE
8
Слой 1
10
75.280690
20
71.305090
11
75.196390
21
71.463560
0
LINE
8
Слой 1
10
75.196390
20
71.463560
11
75.048850
21
72.018200
0
LINE
8
Слой 1
10
75.048850
20
72.018200
11
74.985550
21
72.414380
0
LINE
8
Слой 1
10
74.985550
20
72.414380
11
74.171580
21
72.427280
0
LINE
8
Слой 1
10
74.171580
20
72.427280
11
72.317270
21
72.382380
0
LINE
8
Слой 1
10
72.317270
20
72.382380
11
72.177670
21
72.328780
0
LINE
8
Слой 1
10
72.177670
20
72.328780
11
72.162970
21
71.936720
0
LINE
8
Слой 1
10
72.162970
20
71.936720
11
72.026890
21
71.398460
0
LINE
8
Слой 1
10
72.026890
20
71.398460
11
71.905550
21
71.252260
0
LINE
8
Слой 1
10
71.905550
20
71.252260
11
71.627970
21
71.255260
0
LINE
8
Слой 1
10
71.627970
20
71.255260
11
71.181650
21
71.357110
0
LINE
8
Слой 1
10
71.181650
20
71.357110
11
71.181530
21
71.357420
0
LINE
8
Слой 1
10
74.191390
20
73.638030
11
74.255490
21
74.368910
0
LINE
8
Слой 1
10
74.255490
20
74.368910
11
74.191390
21
75.099790
0
LINE
8
Слой 1
10
74.191390
20
75.099790
11
74.127290
21
75.266900
0
LINE
8
Слой 1
10
74.127290
20
75.266900
11
73.777500
21
75.266900
0
LINE
8
Слой 1
10
73.777500
20
75.266900
11
73.260570
21
75.202800
0
LINE
8
Слой 1
10
73.260570
20
75.202800
11
73.093460
21
75.138700
0
LINE
8
Слой 1
10
73.093460
20
75.138700
11
73.093400
21
74.786500
0
LINE
8
Слой 1
10
73.093400
20
74.786500
11
73.010300
21
74.382940
0
LINE
8
Слой 1
10
73.010300
20
74.382940
11
72.948900
21
74.033360
0
LINE
8
Слой 1
10
72.948900
20
74.033360
11
72.979100
21
73.603050
0
LINE
8
Слой 1
10
72.979100
20
73.603050
11
72.988100
21
73.470990
0
LINE
8
Слой 1
10
72.988100
20
73.470990
11
73.557900
21
73.471000
0
LINE
8
Слой 1
10
73.557900
20
73.471000
11
74.127600
21
73.471000
0
LINE
8
Слой 1
10
74.127600
20
73.471000
11
74.191700
21
73.638110
0
LINE
8
Слой 1
10
74.191700
20
73.638110
11
74.191390
21
73.638030
0
LINE
8
Слой 1
10
78.058770
20
72.326810
11
78.058800
21
72.414500
0
LINE
8
Слой 1
10
78.058800
20
72.414500
11
77.647500
21
72.414500
0
LINE
8
Слой 1
10
77.647500
20
72.414500
11
77.236200
21
72.414500
0
LINE
8
Слой 1
10
77.236200
20
72.414500
11
77.173500
21
72.577980
0
LINE
8
Слой 1
10
77.173500
20
72.577980
11
76.792430
21
72.852430
0
LINE
8
Слой 1
10
76.792430
20
72.852430
11
76.474100
21
72.963400
0
LINE
8
Слой 1
10
76.474100
20
72.963400
11
76.474100
21
73.102700
0
LINE
8
Слой 1
10
76.474100
20
73.102700
11
76.352630
21
73.282520
0
LINE
8
Слой 1
10
76.352630
20
73.282520
11
76.231150
21
73.323020
0
LINE
8
Слой 1
10
76.231150
20
73.323020
11
76.193950
21
73.951620
0
LINE
8
Слой 1
10
76.193950
20
73.951620
11
76.156750
21
74.580220
0
LINE
8
Слой 1
10
76.156750
20
74.580220
11
76.279390
21
75.040000
0
LINE
8
Слой 1
10
76.279390
20
75.040000
11
76.402040
21
75.499780
0
LINE
8
Слой 1
10
76.402040
20
75.499780
11
76.923000
21
75.911580
0
LINE
8
Слой 1
10
76.923000
20
75.911580
11
77.443970
21
76.323380
0
LINE
8
Слой 1
10
77.443970
20
76.323380
11
77.725010
21
76.339380
0
LINE
8
Слой 1
10
77.725010
20
76.339380
11
78.375810
21
76.371780
0
LINE
8
Слой 1
10
78.375810
20
76.371780
11
78.745570
21
76.388180
0
LINE
8
Слой 1
10
78.745570
20
76.388180
11
79.060570
21
76.223750
0
LINE
8
Слой 1
10
79.060570
20
76.223750
11
79.497858
21
75.939920
0
LINE
8
Слой 1
10
79.497858
20
75.939920
11
79.643560
21
75.697100
0
LINE
8
Слой 1
10
79.643560
20
75.697100
11
79.724160
21
75.583910
0
LINE
8
Слой 1
10
79.724160
20
75.583910
11
79.909040
21
75.346820
0
LINE
8
Слой 1
10
79.909040
20
75.346820
11
80.013320
21
75.109740
0
LINE
8
Слой 1
10
80.013320
20
75.109740
11
80.198200
21
75.074940
0
LINE
8
Слой 1
10
80.198200
20
75.074940
11
80.383080
21
75.040140
0
LINE
8
Слой 1
10
80.383080
20
75.040140
11
80.383100
21
75.348700
0
LINE
8
Слой 1
10
80.383100
20
75.348700
11
80.383100
21
75.657200
0
LINE
8
Слой 1
10
80.383100
20
75.657200
11
80.567980
21
75.859270
0
LINE
8
Слой 1
10
80.567980
20
75.859270
11
81.324220
21
76.246560
0
LINE
8
Слой 1
10
81.324220
20
76.246560
11
82.839370
21
76.334600
0
LINE
8
Слой 1
10
82.839370
20
76.334600
11
83.552480
21
76.323400
0
LINE
8
Слой 1
10
83.552480
20
76.323400
11
83.763770
21
76.112100
0
LINE
8
Слой 1
10
83.763770
20
76.112100
11
84.037108
21
75.913946
0
LINE
8
Слой 1
10
84.037108
20
75.913946
11
84.245270
21
76.085700
0
LINE
8
Слой 1
10
84.245270
20
76.085700
11
84.380280
21
76.270580
0
LINE
8
Слой 1
10
84.380280
20
76.270580
11
86.000070
21
76.301480
0
LINE
8
Слой 1
10
86.000070
20
76.301480
11
87.619850
21
76.332380
0
LINE
8
Слой 1
10
87.619850
20
76.332380
11
87.909140
21
75.989990
0
LINE
8
Слой 1
10
87.909140
20
75.989990
11
88.198440
21
75.647590
0
LINE
8
Слой 1
10
88.198440
20
75.647590
11
88.490200
21
75.923490
0
LINE
8
Слой 1
10
88.490200
20
75.923490
11
88.781960
21
76.199390
0
LINE
8
Слой 1
10
88.781960
20
76.199390
11
89.236680
21
76.319810
0
LINE
8
Слой 1
10
89.236680
20
76.319810
11
89.691400
21
76.440230
0
LINE
8
Слой 1
10
89.691400
20
76.440230
11
90.182530
21
76.366530
0
LINE
8
Слой 1
10
90.182530
20
76.366530
11
90.673640
21
76.292930
0
LINE
8
Слой 1
10
90.673640
20
76.292930
11
91.032870
21
75.912030
0
LINE
8
Слой 1
10
91.032870
20
75.912030
11
91.525787
21
75.258453
0
LINE
8
Слой 1
10
91.525787
20
75.258453
11
91.756970
21
74.624330
0
LINE
8
Слой 1
10
91.756970
20
74.624330
11
91.802570
21
74.334870
0
LINE
8
Слой 1
10
91.802570
20
74.334870
11
91.562900
21
74.167010
0
LINE
8
Слой 1
10
91.562900
20
74.167010
11
91.323240
21
73.999140
0
LINE
8
Слой 1
10
91.323240
20
73.999140
11
90.307900
21
73.999100
0
LINE
8
Слой 1
10
90.307900
20
73.999100
11
89.225840
21
73.932400
0
LINE
8
Слой 1
10
89.225840
20
73.932400
11
89.262340
21
73.672830
0
LINE
8
Слой 1
10
89.262340
20
73.672830
11
89.365560
21
73.479980
0
LINE
8
Слой 1
10
89.365560
20
73.479980
11
89.710970
21
73.415180
0
LINE
8
Слой 1
10
89.710970
20
73.415180
11
90.056370
21
73.350380
0
LINE
8
Слой 1
10
90.056370
20
73.350380
11
90.528430
21
73.514740
0
LINE
8
Слой 1
10
90.528430
20
73.514740
11
91.176570
21
73.680640
0
LINE
8
Слой 1
10
91.176570
20
73.680640
11
91.352640
21
73.681640
0
LINE
8
Слой 1
10
91.352640
20
73.681640
11
91.549560
21
73.411320
0
LINE
8
Слой 1
10
91.549560
20
73.411320
11
91.746470
21
73.141000
0
LINE
8
Слой 1
10
91.746470
20
73.141000
11
92.030830
21
73.249110
0
LINE
8
Слой 1
10
92.030830
20
73.249110
11
92.315170
21
73.357230
0
LINE
8
Слой 1
10
92.315170
20
73.357230
11
92.371570
21
73.598670
0
LINE
8
Слой 1
10
92.371570
20
73.598670
11
92.464270
21
74.051400
0
LINE
8
Слой 1
10
92.464270
20
74.051400
11
92.559370
21
74.421160
0
LINE
8
Слой 1
10
92.559370
20
74.421160
11
92.749190
21
75.266330
0
LINE
8
Слой 1
10
92.749190
20
75.266330
11
92.880240
21
75.953030
0
LINE
8
Слой 1
10
92.880240
20
75.953030
11
93.048800
21
76.148060
0
LINE
8
Слой 1
10
93.048800
20
76.148060
11
93.217360
21
76.343110
0
LINE
8
Слой 1
10
93.217360
20
76.343110
11
94.503630
21
76.306510
0
LINE
8
Слой 1
10
94.503630
20
76.306510
11
95.874370
21
76.185410
0
LINE
8
Слой 1
10
95.874370
20
76.185410
11
95.958870
21
76.100910
0
LINE
8
Слой 1
10
95.958870
20
76.100910
11
95.966870
21
74.495100
0
LINE
8
Слой 1
10
95.966870
20
74.495100
11
95.974870
21
72.889290
0
LINE
8
Слой 1
10
95.974870
20
72.889290
11
95.870400
21
72.643690
0
LINE
8
Слой 1
10
95.870400
20
72.643690
11
95.765930
21
72.398080
0
LINE
8
Слой 1
10
95.765930
20
72.398080
11
95.390310
21
72.466480
0
LINE
8
Слой 1
10
95.390310
20
72.466480
11
94.888380
21
72.659260
0
LINE
8
Слой 1
10
94.888380
20
72.659260
11
94.762070
21
72.783620
0
LINE
8
Слой 1
10
94.762070
20
72.783620
11
94.743570
21
73.840080
0
LINE
8
Слой 1
10
94.743570
20
73.840080
11
94.725070
21
74.896540
0
LINE
8
Слой 1
10
94.725070
20
74.896540
11
94.628470
21
75.081420
0
LINE
8
Слой 1
10
94.628470
20
75.081420
11
94.531870
21
75.266300
0
LINE
8
Слой 1
10
94.531870
20
75.266300
11
94.268900
21
75.266300
0
LINE
8
Слой 1
10
94.268900
20
75.266300
11
94.005800
21
75.266300
0
LINE
8
Слой 1
10
94.005800
20
75.266300
11
93.905900
21
75.003620
0
LINE
8
Слой 1
10
93.905900
20
75.003620
11
93.641370
21
73.476780
0
LINE
8
Слой 1
10
93.641370
20
73.476780
11
93.494840
21
73.175010
0
LINE
8
Слой 1
10
93.494840
20
73.175010
11
93.376400
21
73.012520
0
LINE
8
Слой 1
10
93.376400
20
73.012520
11
93.015080
21
72.643730
0
LINE
8
Слой 1
10
93.015080
20
72.643730
11
92.654490
21
72.398190
0
LINE
8
Слой 1
10
92.654490
20
72.398190
11
92.366170
21
72.432390
0
LINE
8
Слой 1
10
92.366170
20
72.432390
11
92.077850
21
72.466590
0
LINE
8
Слой 1
10
92.077850
20
72.466590
11
91.961560
21
72.677880
0
LINE
8
Слой 1
10
91.961560
20
72.677880
11
91.742010
21
72.963070
0
LINE
8
Слой 1
10
91.742010
20
72.963070
11
91.638790
21
73.036970
0
LINE
8
Слой 1
10
91.638790
20
73.036970
11
91.477900
21
72.896580
0
LINE
8
Слой 1
10
91.477900
20
72.896580
11
90.911965
21
72.565467
0
LINE
8
Слой 1
10
90.911965
20
72.565467
11
90.174730
21
72.367210
0
LINE
8
Слой 1
10
90.174730
20
72.367210
11
89.666310
21
72.293210
0
LINE
8
Слой 1
10
89.666310
20
72.293210
11
89.525560
21
72.410030
0
LINE
8
Слой 1
10
89.525560
20
72.410030
11
89.294460
21
72.510630
0
LINE
8
Слой 1
10
89.294460
20
72.510630
11
88.883167
21
72.574179
0
LINE
8
Слой 1
10
88.883167
20
72.574179
11
88.372650
21
72.997720
0
LINE
8
Слой 1
10
88.372650
20
72.997720
11
87.901130
21
73.476020
0
LINE
8
Слой 1
10
87.901130
20
73.476020
11
87.830530
21
73.893730
0
LINE
8
Слой 1
10
87.830530
20
73.893730
11
87.825530
21
74.794490
0
LINE
8
Слой 1
10
87.825530
20
74.794490
11
87.891030
21
75.277530
0
LINE
8
Слой 1
10
87.891030
20
75.277530
11
87.332640
21
75.245430
0
LINE
8
Слой 1
10
87.332640
20
75.245430
11
86.774270
21
75.213330
0
LINE
8
Слой 1
10
86.774270
20
75.213330
11
86.757670
21
74.632270
0
LINE
8
Слой 1
10
86.757670
20
74.632270
11
86.625090
21
72.643150
0
LINE
8
Слой 1
10
86.625090
20
72.643150
11
86.232730
21
72.474280
0
LINE
8
Слой 1
10
86.232730
20
72.474280
11
85.902450
21
72.402680
0
LINE
8
Слой 1
10
85.902450
20
72.402680
11
85.730910
21
72.574220
0
LINE
8
Слой 1
10
85.730910
20
72.574220
11
85.559370
21
72.745760
0
LINE
8
Слой 1
10
85.559370
20
72.745760
11
85.559400
21
73.887400
0
LINE
8
Слой 1
10
85.559400
20
73.887400
11
85.559400
21
75.029000
0
LINE
8
Слой 1
10
85.559400
20
75.029000
11
85.425890
21
75.139810
0
LINE
8
Слой 1
10
85.425890
20
75.139810
11
84.848490
21
75.295000
0
LINE
8
Слой 1
10
84.848490
20
75.295000
11
84.404600
21
75.339400
0
LINE
8
Слой 1
10
84.404600
20
75.339400
11
84.193170
21
75.593320
0
LINE
8
Слой 1
10
84.193170
20
75.593320
11
83.965430
21
75.741590
0
LINE
8
Слой 1
10
83.965430
20
75.741590
11
83.877730
21
73.129870
0
LINE
8
Слой 1
10
83.877730
20
73.129870
11
83.868730
21
72.631070
0
LINE
8
Слой 1
10
83.868730
20
72.631070
11
83.525380
21
72.537870
0
LINE
8
Слой 1
10
83.525380
20
72.537870
11
83.182030
21
72.444670
0
LINE
8
Слой 1
10
83.182030
20
72.444670
11
83.006670
21
72.533470
0
LINE
8
Слой 1
10
83.006670
20
72.533470
11
82.831310
21
72.622270
0
LINE
8
Слой 1
10
82.831310
20
72.622270
11
82.759810
21
73.045680
0
LINE
8
Слой 1
10
82.759810
20
73.045680
11
82.575790
21
73.538600
0
LINE
8
Слой 1
10
82.575790
20
73.538600
11
82.463310
21
73.608100
0
LINE
8
Слой 1
10
82.463310
20
73.608100
11
82.335640
21
73.433490
0
LINE
8
Слой 1
10
82.335640
20
73.433490
11
82.104520
21
73.258880
0
LINE
8
Слой 1
10
82.104520
20
73.258880
11
81.666220
21
72.890900
0
LINE
8
Слой 1
10
81.666220
20
72.890900
11
81.078040
21
72.459330
0
LINE
8
Слой 1
10
81.078040
20
72.459330
11
80.824710
21
72.395730
0
LINE
8
Слой 1
10
80.824710
20
72.395730
11
80.603570
21
72.514080
0
LINE
8
Слой 1
10
80.603570
20
72.514080
11
80.382440
21
72.632420
0
LINE
8
Слой 1
10
80.382440
20
72.632420
11
80.382400
21
72.872000
0
LINE
8
Слой 1
10
80.382400
20
72.872000
11
80.382400
21
73.111600
0
LINE
8
Слой 1
10
80.382400
20
73.111600
11
80.823010
21
73.556620
0
LINE
8
Слой 1
10
80.823010
20
73.556620
11
81.263630
21
74.001630
0
LINE
8
Слой 1
10
81.263630
20
74.001630
11
81.060710
21
74.163420
0
LINE
8
Слой 1
10
81.060710
20
74.163420
11
80.578820
21
74.432260
0
LINE
8
Слой 1
10
80.578820
20
74.432260
11
80.299840
21
74.539320
0
LINE
8
Слой 1
10
80.299840
20
74.539320
11
80.353440
21
74.744300
0
LINE
8
Слой 1
10
80.353440
20
74.744300
11
80.407040
21
74.949280
0
LINE
8
Слой 1
10
80.407040
20
74.949280
11
80.234300
21
74.949200
0
LINE
8
Слой 1
10
80.234300
20
74.949200
11
80.061500
21
74.949200
0
LINE
8
Слой 1
10
80.061500
20
74.949200
11
80.125500
21
74.694240
0
LINE
8
Слой 1
10
80.125500
20
74.694240
11
80.189500
21
74.439280
0
LINE
8
Слой 1
10
80.189500
20
74.439280
11
79.987850
21
74.237640
0
LINE
8
Слой 1
10
79.987850
20
74.237640
11
79.786220
21
74.035990
0
LINE
8
Слой 1
10
79.786220
20
74.035990
11
78.698170
21
74.025490
0
LINE
8
Слой 1
10
78.698170
20
74.025490
11
77.610120
21
74.014990
0
LINE
8
Слой 1
10
77.610120
20
74.014990
11
77.524420
21
73.927390
0
LINE
8
Слой 1
10
77.524420
20
73.927390
11
77.438620
21
73.839790
0
LINE
8
Слой 1
10
77.438620
20
73.839790
11
77.584230
21
73.642580
0
LINE
8
Слой 1
10
77.584230
20
73.642580
11
77.729840
21
73.445370
0
LINE
8
Слой 1
10
77.729840
20
73.445370
11
78.201180
21
73.392270
0
LINE
8
Слой 1
10
78.201180
20
73.392270
11
78.672520
21
73.339170
0
LINE
8
Слой 1
10
78.672520
20
73.339170
11
79.015500
21
73.510270
0
LINE
8
Слой 1
10
79.015500
20
73.510270
11
79.528812
21
73.671865
0
LINE
8
Слой 1
10
79.528812
20
73.671865
11
79.857190
21
73.496470
0
LINE
8
Слой 1
10
79.857190
20
73.496470
11
80.012720
21
73.311590
0
LINE
8
Слой 1
10
80.012720
20
73.311590
11
79.980020
21
73.081910
0
LINE
8
Слой 1
10
79.980020
20
73.081910
11
79.947320
21
72.852240
0
LINE
8
Слой 1
10
79.947320
20
72.852240
11
79.696570
21
72.687930
0
LINE
8
Слой 1
10
79.696570
20
72.687930
11
78.752050
21
72.380960
0
LINE
8
Слой 1
10
78.752050
20
72.380960
11
78.058280
21
72.238290
0
LINE
8
Слой 1
10
78.058280
20
72.238290
11
78.058300
21
72.326000
0
LINE
8
Слой 1
10
78.058300
20
72.326000
11
78.058770
21
72.326810
0
LINE
8
Слой 1
10
78.692650
20
75.009090
11
78.692700
21
75.244300
0
LINE
8
Слой 1
10
78.692700
20
75.244300
11
78.525590
21
75.308400
0
LINE
8
Слой 1
10
78.525590
20
75.308400
11
78.134694
21
75.362659
0
LINE
8
Слой 1
10
78.134694
20
75.362659
11
77.760350
21
75.204540
0
LINE
8
Слой 1
10
77.760350
20
75.204540
11
77.520520
21
75.036550
0
LINE
8
Слой 1
10
77.520520
20
75.036550
11
77.629530
21
74.905210
0
LINE
8
Слой 1
10
77.629530
20
74.905210
11
77.738520
21
74.773860
0
LINE
8
Слой 1
10
77.738520
20
74.773860
11
78.215600
21
74.773800
0
LINE
8
Слой 1
10
78.215600
20
74.773800
11
78.692700
21
74.773800
0
LINE
8
Слой 1
10
78.692700
20
74.773800
11
78.692650
21
75.009090
0
LINE
8
Слой 1
10
82.606390
20
74.958990
11
82.689390
21
75.213320
0
LINE
8
Слой 1
10
82.689390
20
75.213320
11
81.835660
21
75.282820
0
LINE
8
Слой 1
10
81.835660
20
75.282820
11
81.650780
21
75.266920
0
LINE
8
Слой 1
10
81.650780
20
75.266920
11
81.650800
21
75.129600
0
LINE
8
Слой 1
10
81.650800
20
75.129600
11
81.806489
21
74.850241
0
LINE
8
Слой 1
10
81.806489
20
74.850241
11
82.196440
21
74.738710
0
LINE
8
Слой 1
10
82.196440
20
74.738710
11
82.488500
21
74.738700
0
LINE
8
Слой 1
10
82.488500
20
74.738700
11
82.606390
21
74.958990
0
LINE
8
Слой 1
10
90.338590
20
74.934390
11
90.472170
21
75.069800
0
LINE
8
Слой 1
10
90.472170
20
75.069800
11
90.260880
21
75.228700
0
LINE
8
Слой 1
10
90.260880
20
75.228700
11
90.049590
21
75.387590
0
LINE
8
Слой 1
10
90.049590
20
75.387590
11
89.688950
21
75.331090
0
LINE
8
Слой 1
10
89.688950
20
75.331090
11
89.213540
21
75.157970
0
LINE
8
Слой 1
10
89.213540
20
75.157970
11
89.098780
21
75.041380
0
LINE
8
Слой 1
10
89.098780
20
75.041380
11
89.279480
21
74.907840
0
LINE
8
Слой 1
10
89.279480
20
74.907840
11
89.460190
21
74.774300
0
LINE
8
Слой 1
10
89.460190
20
74.774300
11
89.832600
21
74.786700
0
LINE
8
Слой 1
10
89.832600
20
74.786700
11
90.205020
21
74.799100
0
LINE
8
Слой 1
10
90.205020
20
74.799100
11
90.338590
21
74.934390
0
LINE
8
Слой 1
10
106.371890
20
72.309450
11
106.006390
21
72.393350
0
LINE
8
Слой 1
10
106.006390
20
72.393350
11
105.641000
21
72.393300
0
LINE
8
Слой 1
10
105.641000
20
72.393300
11
105.170690
21
72.778680
0
LINE
8
Слой 1
10
105.170690
20
72.778680
11
104.663273
21
73.307701
0
LINE
8
Слой 1
10
104.663273
20
73.307701
11
104.475100
21
74.100610
0
LINE
8
Слой 1
10
104.475100
20
74.100610
11
104.394000
21
74.677510
0
LINE
8
Слой 1
10
104.394000
20
74.677510
11
104.486200
21
75.011570
0
LINE
8
Слой 1
10
104.486200
20
75.011570
11
104.578400
21
75.345620
0
LINE
8
Слой 1
10
104.578400
20
75.345620
11
104.920510
21
75.702920
0
LINE
8
Слой 1
10
104.920510
20
75.702920
11
105.558100
21
76.191780
0
LINE
8
Слой 1
10
105.558100
20
76.191780
11
105.853590
21
76.323330
0
LINE
8
Слой 1
10
105.853590
20
76.323330
11
106.510000
21
76.323400
0
LINE
8
Слой 1
10
106.510000
20
76.323400
11
107.166000
21
76.323400
0
LINE
8
Слой 1
10
107.166000
20
76.323400
11
107.429040
21
76.072110
0
LINE
8
Слой 1
10
107.429040
20
76.072110
11
108.031674
21
75.361155
0
LINE
8
Слой 1
10
108.031674
20
75.361155
11
108.273130
21
74.792970
0
LINE
8
Слой 1
10
108.273130
20
74.792970
11
108.306652
21
74.643709
0
LINE
8
Слой 1
10
108.306652
20
74.643709
11
108.393577
21
74.656645
0
LINE
8
Слой 1
10
108.393577
20
74.656645
11
108.645800
21
75.101390
0
LINE
8
Слой 1
10
108.645800
20
75.101390
11
108.824650
21
75.569710
0
LINE
8
Слой 1
10
108.824650
20
75.569710
11
109.137120
21
75.848120
0
LINE
8
Слой 1
10
109.137120
20
75.848120
11
109.449600
21
76.126540
0
LINE
8
Слой 1
10
109.449600
20
76.126540
11
109.891420
21
76.254260
0
LINE
8
Слой 1
10
109.891420
20
76.254260
11
110.333230
21
76.381980
0
LINE
8
Слой 1
10
110.333230
20
76.381980
11
110.861460
21
76.292180
0
LINE
8
Слой 1
10
110.861460
20
76.292180
11
113.449780
21
76.212580
0
LINE
8
Слой 1
10
113.449780
20
76.212580
11
115.648010
21
76.212150
0
LINE
8
Слой 1
10
115.648010
20
76.212150
11
116.525660
21
76.191850
0
LINE
8
Слой 1
10
116.525660
20
76.191850
11
116.680840
21
75.955020
0
LINE
8
Слой 1
10
116.680840
20
75.955020
11
116.836010
21
75.718190
0
LINE
8
Слой 1
10
116.836010
20
75.718190
11
116.785110
21
75.307710
0
LINE
8
Слой 1
10
116.785110
20
75.307710
11
116.794110
21
74.659540
0
LINE
8
Слой 1
10
116.794110
20
74.659540
11
116.853710
21
74.421830
0
LINE
8
Слой 1
10
116.853710
20
74.421830
11
117.001000
21
74.421800
0
LINE
8
Слой 1
10
117.001000
20
74.421800
11
117.148000
21
74.421800
0
LINE
8
Слой 1
10
117.148000
20
74.421800
11
117.148000
21
74.589100
0
LINE
8
Слой 1
10
117.148000
20
74.589100
11
117.517760
21
75.115460
0
LINE
8
Слой 1
10
117.517760
20
75.115460
11
117.887520
21
75.556730
0
LINE
8
Слой 1
10
117.887520
20
75.556730
11
118.165570
21
75.938780
0
LINE
8
Слой 1
10
118.165570
20
75.938780
11
118.443620
21
76.238640
0
LINE
8
Слой 1
10
118.443620
20
76.238640
11
118.767790
21
76.173840
0
LINE
8
Слой 1
10
118.767790
20
76.173840
11
119.175390
21
75.978540
0
LINE
8
Слой 1
10
119.175390
20
75.978540
11
119.258790
21
75.848080
0
LINE
8
Слой 1
10
119.258790
20
75.848080
11
119.251790
21
74.321490
0
LINE
8
Слой 1
10
119.251790
20
74.321490
11
119.244790
21
72.794910
0
LINE
8
Слой 1
10
119.244790
20
72.794910
11
119.143020
21
72.604750
0
LINE
8
Слой 1
10
119.143020
20
72.604750
11
119.041240
21
72.414580
0
LINE
8
Слой 1
10
119.041240
20
72.414580
11
118.682000
21
72.414600
0
LINE
8
Слой 1
10
118.682000
20
72.414600
11
118.323000
21
72.414600
0
LINE
8
Слой 1
10
118.323000
20
72.414600
11
118.265700
21
72.599480
0
LINE
8
Слой 1
10
118.265700
20
72.599480
11
118.183500
21
73.444650
0
LINE
8
Слой 1
10
118.183500
20
73.444650
11
118.158600
21
74.104940
0
LINE
8
Слой 1
10
118.158600
20
74.104940
11
118.025000
21
74.104900
0
LINE
8
Слой 1
10
118.025000
20
74.104900
11
117.454680
21
73.550260
0
LINE
8
Слой 1
10
117.454680
20
73.550260
11
116.924000
21
72.960400
0
LINE
8
Слой 1
10
116.924000
20
72.960400
11
116.829900
21
72.813580
0
LINE
8
Слой 1
10
116.829900
20
72.813580
11
116.609179
21
72.545257
0
LINE
8
Слой 1
10
116.609179
20
72.545257
11
116.129610
21
72.417920
0
LINE
8
Слой 1
10
116.129610
20
72.417920
11
115.799070
21
72.414920
0
LINE
8
Слой 1
10
115.799070
20
72.414920
11
115.684240
21
72.705450
0
LINE
8
Слой 1
10
115.684240
20
72.705450
11
115.569400
21
72.995970
0
LINE
8
Слой 1
10
115.569400
20
72.995970
11
115.541200
21
74.069010
0
LINE
8
Слой 1
10
115.541200
20
74.069010
11
115.513000
21
75.142050
0
LINE
8
Слой 1
10
115.513000
20
75.142050
11
115.152970
21
75.200450
0
LINE
8
Слой 1
10
115.152970
20
75.200450
11
114.792940
21
75.258850
0
LINE
8
Слой 1
10
114.792940
20
75.258850
11
114.595070
21
75.152950
0
LINE
8
Слой 1
10
114.595070
20
75.152950
11
114.397180
21
75.047050
0
LINE
8
Слой 1
10
114.397180
20
75.047050
11
114.403180
21
74.496890
0
LINE
8
Слой 1
10
114.403180
20
74.496890
11
114.391380
21
73.326070
0
LINE
8
Слой 1
10
114.391380
20
73.326070
11
114.373980
21
72.705400
0
LINE
8
Слой 1
10
114.373980
20
72.705400
11
114.170490
21
72.501910
0
LINE
8
Слой 1
10
114.170490
20
72.501910
11
113.967000
21
72.298420
0
LINE
8
Слой 1
10
113.967000
20
72.298420
11
113.739630
21
72.370620
0
LINE
8
Слой 1
10
113.739630
20
72.370620
11
113.386430
21
72.568620
0
LINE
8
Слой 1
10
113.386430
20
72.568620
11
113.260590
21
72.694450
0
LINE
8
Слой 1
10
113.260590
20
72.694450
11
113.242490
21
73.320610
0
LINE
8
Слой 1
10
113.242490
20
73.320610
11
113.231990
21
74.105240
0
LINE
8
Слой 1
10
113.231990
20
74.105240
11
113.153390
21
75.180810
0
LINE
8
Слой 1
10
113.153390
20
75.180810
11
112.340290
21
75.255610
0
LINE
8
Слой 1
10
112.340290
20
75.255610
11
110.848780
21
75.265610
0
LINE
8
Слой 1
10
110.848780
20
75.265610
11
110.096790
21
75.272610
0
LINE
8
Слой 1
10
110.096790
20
75.272610
11
109.941740
21
75.032170
0
LINE
8
Слой 1
10
109.941740
20
75.032170
11
109.724880
21
74.548250
0
LINE
8
Слой 1
10
109.724880
20
74.548250
11
109.663080
21
74.304770
0
LINE
8
Слой 1
10
109.663080
20
74.304770
11
109.823100
21
73.835140
0
LINE
8
Слой 1
10
109.823100
20
73.835140
11
109.983120
21
73.365510
0
LINE
8
Слой 1
10
109.983120
20
73.365510
11
110.806000
21
73.365500
0
LINE
8
Слой 1
10
110.806000
20
73.365500
11
111.628000
21
73.365500
0
LINE
8
Слой 1
10
111.628000
20
73.365500
11
111.753910
21
73.213780
0
LINE
8
Слой 1
10
111.753910
20
73.213780
11
111.879830
21
73.062060
0
LINE
8
Слой 1
10
111.879830
20
73.062060
11
111.757820
21
72.834080
0
LINE
8
Слой 1
10
111.757820
20
72.834080
11
111.635810
21
72.606100
0
LINE
8
Слой 1
10
111.635810
20
72.606100
11
111.165490
21
72.398050
0
LINE
8
Слой 1
10
111.165490
20
72.398050
11
110.695160
21
72.190010
0
LINE
8
Слой 1
10
110.695160
20
72.190010
11
110.125890
21
72.317400
0
LINE
8
Слой 1
10
110.125890
20
72.317400
11
109.556630
21
72.444800
0
LINE
8
Слой 1
10
109.556630
20
72.444800
11
109.197760
21
72.773090
0
LINE
8
Слой 1
10
109.197760
20
72.773090
11
108.635290
21
73.549170
0
LINE
8
Слой 1
10
108.635290
20
73.549170
11
108.373660
21
73.998160
0
LINE
8
Слой 1
10
108.373660
20
73.998160
11
108.188180
21
73.646870
0
LINE
8
Слой 1
10
108.188180
20
73.646870
11
107.665150
21
72.867280
0
LINE
8
Слой 1
10
107.665150
20
72.867280
11
107.269570
21
72.440180
0
LINE
8
Слой 1
10
107.269570
20
72.440180
11
106.820570
21
72.333020
0
LINE
8
Слой 1
10
106.820570
20
72.333020
11
106.371580
21
72.225860
0
LINE
8
Слой 1
10
106.371580
20
72.225860
11
106.372000
21
72.309800
0
LINE
8
Слой 1
10
106.372000
20
72.309800
11
106.371890
21
72.309450
0
LINE
8
Слой 1
10
106.941090
20
73.563430
11
107.181490
21
74.137810
0
LINE
8
Слой 1
10
107.181490
20
74.137810
11
107.242490
21
74.514000
0
LINE
8
Слой 1
10
107.242490
20
74.514000
11
107.009840
21
74.890440
0
LINE
8
Слой 1
10
107.009840
20
74.890440
11
106.777200
21
75.266870
0
LINE
8
Слой 1
10
106.777200
20
75.266870
11
106.475000
21
75.266900
0
LINE
8
Слой 1
10
106.475000
20
75.266900
11
106.172000
21
75.266900
0
LINE
8
Слой 1
10
106.172000
20
75.266900
11
105.900300
21
75.029200
0
LINE
8
Слой 1
10
105.900300
20
75.029200
11
105.628590
21
74.791490
0
LINE
8
Слой 1
10
105.628590
20
74.791490
11
105.613590
21
74.358110
0
LINE
8
Слой 1
10
105.613590
20
74.358110
11
105.598590
21
73.924720
0
LINE
8
Слой 1
10
105.598590
20
73.924720
11
105.800190
21
73.648320
0
LINE
8
Слой 1
10
105.800190
20
73.648320
11
106.001770
21
73.371910
0
LINE
8
Слой 1
10
106.001770
20
73.371910
11
106.381570
21
73.368910
0
LINE
8
Слой 1
10
106.381570
20
73.368910
11
106.761370
21
73.365910
0
LINE
8
Слой 1
10
106.761370
20
73.365910
11
106.940730
21
73.564100
0
LINE
8
Слой 1
10
106.940730
20
73.564100
11
106.941090
21
73.563430
0
LINE
8
Слой 1
10
61.977290
20
72.508550
11
61.409166
21
72.897599
0
LINE
8
Слой 1
10
61.409166
20
72.897599
11
60.987600
21
73.531050
0
LINE
8
Слой 1
10
60.987600
20
73.531050
11
60.732780
21
74.010300
0
LINE
8
Слой 1
10
60.732780
20
74.010300
11
60.732800
21
74.416500
0
LINE
8
Слой 1
10
60.732800
20
74.416500
11
60.732800
21
74.822700
0
LINE
8
Слой 1
10
60.732800
20
74.822700
11
60.970500
21
75.232980
0
LINE
8
Слой 1
10
60.970500
20
75.232980
11
61.401707
21
75.865661
0
LINE
8
Слой 1
10
61.401707
20
75.865661
11
61.845980
21
76.226521
0
LINE
8
Слой 1
10
61.845980
20
76.226521
11
62.390303
21
76.358963
0
LINE
8
Слой 1
10
62.390303
20
76.358963
11
63.121660
21
76.306390
0
LINE
8
Слой 1
10
63.121660
20
76.306390
11
63.743710
21
76.211290
0
LINE
8
Слой 1
10
63.743710
20
76.211290
11
64.131250
21
75.796670
0
LINE
8
Слой 1
10
64.131250
20
75.796670
11
64.566750
21
75.183825
0
LINE
8
Слой 1
10
64.566750
20
75.183825
11
64.656800
21
74.376910
0
LINE
8
Слой 1
10
64.656800
20
74.376910
11
64.656800
21
73.806600
0
LINE
8
Слой 1
10
64.656800
20
73.806600
11
64.500810
21
73.506720
0
LINE
8
Слой 1
10
64.500810
20
73.506720
11
63.799369
21
72.753975
0
LINE
8
Слой 1
10
63.799369
20
72.753975
11
62.777580
21
72.363900
0
LINE
8
Слой 1
10
62.777580
20
72.363900
11
62.370310
21
72.307200
0
LINE
8
Слой 1
10
62.370310
20
72.307200
11
61.977290
21
72.508550
0
LINE
8
Слой 1
10
63.282990
20
73.893470
11
63.456170
21
74.263230
0
LINE
8
Слой 1
10
63.456170
20
74.263230
11
63.405470
21
74.642270
0
LINE
8
Слой 1
10
63.405470
20
74.642270
11
63.354770
21
75.021310
0
LINE
8
Слой 1
10
63.354770
20
75.021310
11
63.066000
21
75.191890
0
LINE
8
Слой 1
10
63.066000
20
75.191890
11
62.777230
21
75.362470
0
LINE
8
Слой 1
10
62.777230
20
75.362470
11
62.520920
21
75.298970
0
LINE
8
Слой 1
10
62.520920
20
75.298970
11
62.079720
21
75.044290
0
LINE
8
Слой 1
10
62.079720
20
75.044290
11
61.894840
21
74.853070
0
LINE
8
Слой 1
10
61.894840
20
74.853070
11
61.894900
21
74.406400
0
LINE
8
Слой 1
10
61.894900
20
74.406400
11
61.894900
21
73.959800
0
LINE
8
Слой 1
10
61.894900
20
73.959800
11
62.129300
21
73.710290
0
LINE
8
Слой 1
10
62.129300
20
73.710290
11
62.363700
21
73.460770
0
LINE
8
Слой 1
10
62.363700
20
73.460770
11
62.736770
21
73.492170
0
LINE
8
Слой 1
10
62.736770
20
73.492170
11
63.109830
21
73.523570
0
LINE
8
Слой 1
10
63.109830
20
73.523570
11
63.282990
21
73.893470
0
LINE
8
Слой 1
10
26.705290
20
72.584310
11
26.564304
21
72.754180
0
LINE
8
Слой 1
10
26.564304
20
72.754180
11
26.543874
21
74.172160
0
LINE
8
Слой 1
10
26.543874
20
74.172160
11
26.600254
21
75.877500
0
LINE
8
Слой 1
10
26.600254
20
75.877500
11
26.677064
21
76.164860
0
LINE
8
Слой 1
10
26.677064
20
76.164860
11
26.962309
21
76.265290
0
LINE
8
Слой 1
10
26.962309
20
76.265290
11
27.247554
21
76.365720
0
LINE
8
Слой 1
10
27.247554
20
76.365720
11
27.466636
21
76.146640
0
LINE
8
Слой 1
10
27.466636
20
76.146640
11
27.685720
21
75.927560
0
LINE
8
Слой 1
10
27.685720
20
75.927560
11
27.729120
21
75.321960
0
LINE
8
Слой 1
10
27.729120
20
75.321960
11
27.833117
21
74.618320
0
LINE
8
Слой 1
10
27.833117
20
74.618320
11
27.893717
21
74.520320
0
LINE
8
Слой 1
10
27.893717
20
74.520320
11
28.119226
21
74.814380
0
LINE
8
Слой 1
10
28.119226
20
74.814380
11
28.512414
21
75.266920
0
LINE
8
Слой 1
10
28.512414
20
75.266920
11
28.914179
21
75.810570
0
LINE
8
Слой 1
10
28.914179
20
75.810570
11
29.148265
21
76.195740
0
LINE
8
Слой 1
10
29.148265
20
76.195740
11
29.419544
21
76.263840
0
LINE
8
Слой 1
10
29.419544
20
76.263840
11
29.878973
21
76.266781
0
LINE
8
Слой 1
10
29.878973
20
76.266781
11
30.107295
21
76.078570
0
LINE
8
Слой 1
10
30.107295
20
76.078570
11
30.151345
21
74.527410
0
LINE
8
Слой 1
10
30.151345
20
74.527410
11
30.183535
21
73.101190
0
LINE
8
Слой 1
10
30.183535
20
73.101190
11
30.060326
21
72.809430
0
LINE
8
Слой 1
10
30.060326
20
72.809430
11
29.937117
21
72.517660
0
LINE
8
Слой 1
10
29.937117
20
72.517660
11
29.742959
21
72.456060
0
LINE
8
Слой 1
10
29.742959
20
72.456060
11
29.548801
21
72.394460
0
LINE
8
Слой 1
10
29.548801
20
72.394460
11
29.320302
21
72.639720
0
LINE
8
Слой 1
10
29.320302
20
72.639720
11
29.091804
21
72.884990
0
LINE
8
Слой 1
10
29.091804
20
72.884990
11
29.078594
21
73.177990
0
LINE
8
Слой 1
10
29.078594
20
73.177990
11
29.052184
21
73.787940
0
LINE
8
Слой 1
10
29.052184
20
73.787940
11
29.038974
21
74.104880
0
LINE
8
Слой 1
10
29.038974
20
74.104880
11
28.906916
21
74.103920
0
LINE
8
Слой 1
10
28.906916
20
74.103920
11
28.510744
21
73.765510
0
LINE
8
Слой 1
10
28.510744
20
73.765510
11
28.061749
21
73.267590
0
LINE
8
Слой 1
10
28.061749
20
73.267590
11
27.876868
21
72.972120
0
LINE
8
Слой 1
10
27.876868
20
72.972120
11
27.876900
21
72.837100
0
LINE
8
Слой 1
10
27.876900
20
72.837100
11
27.700900
21
72.837100
0
LINE
8
Слой 1
10
27.700900
20
72.837100
11
27.590223
21
72.771700
0
LINE
8
Слой 1
10
27.590223
20
72.771700
11
27.491330
21
72.550330
0
LINE
8
Слой 1
10
27.491330
20
72.550330
11
27.105114
21
72.414520
0
LINE
8
Слой 1
10
27.105114
20
72.414520
11
26.846400
21
72.414500
0
LINE
8
Слой 1
10
26.846400
20
72.414500
11
26.705413
21
72.584380
0
LINE
8
Слой 1
10
26.705413
20
72.584380
11
26.705290
21
72.584310
0
LINE
8
Слой 1
10
32.941840
20
72.580310
11
32.804291
21
72.746040
0
LINE
8
Слой 1
10
32.804291
20
72.746040
11
32.813391
21
74.379990
0
LINE
8
Слой 1
10
32.813391
20
74.379990
11
32.822491
21
76.013940
0
LINE
8
Слой 1
10
32.822491
20
76.013940
11
32.957143
21
76.176180
0
LINE
8
Слой 1
10
32.957143
20
76.176180
11
33.091794
21
76.338430
0
LINE
8
Слой 1
10
33.091794
20
76.338430
11
34.599534
21
76.304530
0
LINE
8
Слой 1
10
34.599534
20
76.304530
11
36.107274
21
76.270630
0
LINE
8
Слой 1
10
36.107274
20
76.270630
11
36.236255
21
76.141350
0
LINE
8
Слой 1
10
36.236255
20
76.141350
11
36.365235
21
76.012070
0
LINE
8
Слой 1
10
36.365235
20
76.012070
11
36.397915
21
74.575390
0
LINE
8
Слой 1
10
36.397915
20
74.575390
11
36.430595
21
73.138720
0
LINE
8
Слой 1
10
36.430595
20
73.138720
11
36.279308
21
72.776630
0
LINE
8
Слой 1
10
36.279308
20
72.776630
11
36.128020
21
72.414550
0
LINE
8
Слой 1
10
36.128020
20
72.414550
11
35.878800
21
72.414500
0
LINE
8
Слой 1
10
35.878800
20
72.414500
11
35.438278
21
72.554310
0
LINE
8
Слой 1
10
35.438278
20
72.554310
11
35.247072
21
72.694130
0
LINE
8
Слой 1
10
35.247072
20
72.694130
11
35.231182
21
73.920940
0
LINE
8
Слой 1
10
35.231182
20
73.920940
11
35.157272
21
75.205760
0
LINE
8
Слой 1
10
35.157272
20
75.205760
11
34.600804
21
75.282660
0
LINE
8
Слой 1
10
34.600804
20
75.282660
11
34.102356
21
75.301460
0
LINE
8
Слой 1
10
34.102356
20
75.301460
11
33.994992
21
75.194100
0
LINE
8
Слой 1
10
33.994992
20
75.194100
11
33.887627
21
75.086740
0
LINE
8
Слой 1
10
33.887627
20
75.086740
11
33.890027
21
73.940270
0
LINE
8
Слой 1
10
33.890027
20
73.940270
11
33.892427
21
72.793800
0
LINE
8
Слой 1
10
33.892427
20
72.793800
11
33.720785
21
72.604140
0
LINE
8
Слой 1
10
33.720785
20
72.604140
11
33.549142
21
72.414470
0
LINE
8
Слой 1
10
33.549142
20
72.414470
11
33.314300
21
72.414500
0
LINE
8
Слой 1
10
33.314300
20
72.414500
11
33.079500
21
72.414500
0
LINE
8
Слой 1
10
33.079500
20
72.414500
11
32.941950
21
72.580240
0
LINE
8
Слой 1
10
32.941950
20
72.580240
11
32.941840
21
72.580310
0
LINE
8
Слой 1
10
49.840940
20
72.612910
11
49.595950
21
72.811280
0
LINE
8
Слой 1
10
49.595950
20
72.811280
11
49.570250
21
74.303330
0
LINE
8
Слой 1
10
49.570250
20
74.303330
11
49.544550
21
75.795380
0
LINE
8
Слой 1
10
49.544550
20
75.795380
11
49.792520
21
76.083670
0
LINE
8
Слой 1
10
49.792520
20
76.083670
11
50.040490
21
76.371950
0
LINE
8
Слой 1
10
50.040490
20
76.371950
11
50.335350
21
76.268260
0
LINE
8
Слой 1
10
50.335350
20
76.268260
11
50.630210
21
76.164560
0
LINE
8
Слой 1
10
50.630210
20
76.164560
11
50.724410
21
75.795000
0
LINE
8
Слой 1
10
50.724410
20
75.795000
11
50.907190
21
75.333850
0
LINE
8
Слой 1
10
50.907190
20
75.333850
11
50.995790
21
75.242250
0
LINE
8
Слой 1
10
50.995790
20
75.242250
11
51.162440
21
75.386660
0
LINE
8
Слой 1
10
51.162440
20
75.386660
11
51.689590
21
75.869940
0
LINE
8
Слой 1
10
51.689590
20
75.869940
11
52.331830
21
76.279520
0
LINE
8
Слой 1
10
52.331830
20
76.279520
11
52.613600
21
76.350220
0
LINE
8
Слой 1
10
52.613600
20
76.350220
11
52.853240
21
76.241040
0
LINE
8
Слой 1
10
52.853240
20
76.241040
11
53.092890
21
76.131850
0
LINE
8
Слой 1
10
53.092890
20
76.131850
11
53.241630
21
76.224450
0
LINE
8
Слой 1
10
53.241630
20
76.224450
11
53.390370
21
76.317050
0
LINE
8
Слой 1
10
53.390370
20
76.317050
11
54.916550
21
76.313050
0
LINE
8
Слой 1
10
54.916550
20
76.313050
11
56.442730
21
76.309050
0
LINE
8
Слой 1
10
56.442730
20
76.309050
11
56.644630
21
76.200990
0
LINE
8
Слой 1
10
56.644630
20
76.200990
11
56.846540
21
76.092930
0
LINE
8
Слой 1
10
56.846540
20
76.092930
11
56.961980
21
76.208370
0
LINE
8
Слой 1
10
56.961980
20
76.208370
11
57.360290
21
76.323800
0
LINE
8
Слой 1
10
57.360290
20
76.323800
11
57.643200
21
76.323800
0
LINE
8
Слой 1
10
57.643200
20
76.323800
11
57.777770
21
76.161670
0
LINE
8
Слой 1
10
57.777770
20
76.161670
11
57.912320
21
75.999540
0
LINE
8
Слой 1
10
57.912320
20
75.999540
11
57.902320
21
75.667130
0
LINE
8
Слой 1
10
57.902320
20
75.667130
11
57.991320
21
75.150770
0
LINE
8
Слой 1
10
57.991320
20
75.150770
11
58.089720
21
74.966810
0
LINE
8
Слой 1
10
58.089720
20
74.966810
11
58.643870
21
74.985010
0
LINE
8
Слой 1
10
58.643870
20
74.985010
11
59.198020
21
75.003210
0
LINE
8
Слой 1
10
59.198020
20
75.003210
11
59.270520
21
75.511110
0
LINE
8
Слой 1
10
59.270520
20
75.511110
11
59.460639
21
76.140290
0
LINE
8
Слой 1
10
59.460639
20
76.140290
11
59.830780
21
76.323790
0
LINE
8
Слой 1
10
59.830780
20
76.323790
11
60.065600
21
76.323800
0
LINE
8
Слой 1
10
60.065600
20
76.323800
11
60.245180
21
76.125370
0
LINE
8
Слой 1
10
60.245180
20
76.125370
11
60.424750
21
75.926950
0
LINE
8
Слой 1
10
60.424750
20
75.926950
11
60.428750
21
74.430010
0
LINE
8
Слой 1
10
60.428750
20
74.430010
11
60.432750
21
72.933070
0
LINE
8
Слой 1
10
60.432750
20
72.933070
11
60.262990
21
72.673980
0
LINE
8
Слой 1
10
60.262990
20
72.673980
11
60.093230
21
72.414890
0
LINE
8
Слой 1
10
60.093230
20
72.414890
11
59.907900
21
72.414900
0
LINE
8
Слой 1
10
59.907900
20
72.414900
11
59.487740
21
72.579360
0
LINE
8
Слой 1
10
59.487740
20
72.579360
11
59.252940
21
72.743820
0
LINE
8
Слой 1
10
59.252940
20
72.743820
11
59.252900
21
73.371700
0
LINE
8
Слой 1
10
59.252900
20
73.371700
11
59.252900
21
73.999600
0
LINE
8
Слой 1
10
59.252900
20
73.999600
11
58.678100
21
73.999600
0
LINE
8
Слой 1
10
58.678100
20
73.999600
11
58.103300
21
73.999600
0
LINE
8
Слой 1
10
58.103300
20
73.999600
11
58.021700
21
73.867610
0
LINE
8
Слой 1
10
58.021700
20
73.867610
11
57.969300
21
73.457550
0
LINE
8
Слой 1
10
57.969300
20
73.457550
11
57.837560
21
72.794370
0
LINE
8
Слой 1
10
57.837560
20
72.794370
11
57.676650
21
72.409260
0
LINE
8
Слой 1
10
57.676650
20
72.409260
11
57.434740
21
72.455460
0
LINE
8
Слой 1
10
57.434740
20
72.455460
11
56.966761
21
72.602975
0
LINE
8
Слой 1
10
56.966761
20
72.602975
11
56.808930
21
72.822370
0
LINE
8
Слой 1
10
56.808930
20
72.822370
11
56.730430
21
74.765520
0
LINE
8
Слой 1
10
56.730430
20
74.765520
11
56.717530
21
75.267340
0
LINE
8
Слой 1
10
56.717530
20
75.267340
11
56.239500
21
75.267300
0
LINE
8
Слой 1
10
56.239500
20
75.267300
11
55.761500
21
75.267300
0
LINE
8
Слой 1
10
55.761500
20
75.267300
11
55.679000
21
75.029600
0
LINE
8
Слой 1
10
55.679000
20
75.029600
11
55.605200
21
73.788340
0
LINE
8
Слой 1
10
55.605200
20
73.788340
11
55.614200
21
72.784800
0
LINE
8
Слой 1
10
55.614200
20
72.784800
11
55.455810
21
72.599830
0
LINE
8
Слой 1
10
55.455810
20
72.599830
11
55.297440
21
72.414860
0
LINE
8
Слой 1
10
55.297440
20
72.414860
11
55.056800
21
72.414900
0
LINE
8
Слой 1
10
55.056800
20
72.414900
11
54.816200
21
72.414900
0
LINE
8
Слой 1
10
54.816200
20
72.414900
11
54.613730
21
72.617360
0
LINE
8
Слой 1
10
54.613730
20
72.617360
11
54.411270
21
72.819830
0
LINE
8
Слой 1
10
54.411270
20
72.819830
11
54.439570
21
73.930620
0
LINE
8
Слой 1
10
54.439570
20
73.930620
11
54.395670
21
75.158320
0
LINE
8
Слой 1
10
54.395670
20
75.158320
11
54.323470
21
75.275220
0
LINE
8
Слой 1
10
54.323470
20
75.275220
11
53.856730
21
75.309320
0
LINE
8
Слой 1
10
53.856730
20
75.309320
11
53.207800
21
75.421300
0
LINE
8
Слой 1
10
53.207800
20
75.421300
11
53.025600
21
75.499200
0
LINE
8
Слой 1
10
53.025600
20
75.499200
11
52.653070
21
75.268970
0
LINE
8
Слой 1
10
52.653070
20
75.268970
11
52.130030
21
74.823830
0
LINE
8
Слой 1
10
52.130030
20
74.823830
11
51.979500
21
74.608920
0
LINE
8
Слой 1
10
51.979500
20
74.608920
11
52.102070
21
74.330670
0
LINE
8
Слой 1
10
52.102070
20
74.330670
11
52.411140
21
73.914380
0
LINE
8
Слой 1
10
52.411140
20
73.914380
11
52.597650
21
73.649270
0
LINE
8
Слой 1
10
52.597650
20
73.649270
11
52.808940
21
73.390250
0
LINE
8
Слой 1
10
52.808940
20
73.390250
11
53.020240
21
73.258300
0
LINE
8
Слой 1
10
53.020240
20
73.258300
11
53.020200
21
72.945900
0
LINE
8
Слой 1
10
53.020200
20
72.945900
11
53.020200
21
72.633600
0
LINE
8
Слой 1
10
53.020200
20
72.633600
11
52.799070
21
72.515260
0
LINE
8
Слой 1
10
52.799070
20
72.515260
11
52.577930
21
72.396910
0
LINE
8
Слой 1
10
52.577930
20
72.396910
11
52.323660
21
72.460710
0
LINE
8
Слой 1
10
52.323660
20
72.460710
11
52.069360
21
72.620310
0
LINE
8
Слой 1
10
52.069360
20
72.620310
11
50.905020
21
73.788260
0
LINE
8
Слой 1
10
50.905020
20
73.788260
11
50.788130
21
73.550550
0
LINE
8
Слой 1
10
50.788130
20
73.550550
11
50.716268
21
72.945101
0
LINE
8
Слой 1
10
50.716268
20
72.945101
11
50.535430
21
72.623880
0
LINE
8
Слой 1
10
50.535430
20
72.623880
11
50.216333
21
72.426284
0
LINE
8
Слой 1
10
50.216333
20
72.426284
11
49.840520
21
72.613280
0
LINE
8
Слой 1
10
49.840520
20
72.613280
11
49.840940
21
72.612910
0
LINE
8
Слой 1
10
65.369440
20
72.493210
11
65.072010
21
72.809310
0
LINE
8
Слой 1
10
65.072010
20
72.809310
11
64.944750
21
73.088620
0
LINE
8
Слой 1
10
64.944750
20
73.088620
11
64.951750
21
74.460410
0
LINE
8
Слой 1
10
64.951750
20
74.460410
11
64.958750
21
75.832190
0
LINE
8
Слой 1
10
64.958750
20
75.832190
11
65.119690
21
76.077810
0
LINE
8
Слой 1
10
65.119690
20
76.077810
11
65.280620
21
76.323430
0
LINE
8
Слой 1
10
65.280620
20
76.323430
11
65.568710
21
76.321430
0
LINE
8
Слой 1
10
65.568710
20
76.321430
11
66.015270
21
76.219830
0
LINE
8
Слой 1
10
66.015270
20
76.219830
11
66.173740
21
76.119830
0
LINE
8
Слой 1
10
66.173740
20
76.119830
11
66.226540
21
75.358150
0
LINE
8
Слой 1
10
66.226540
20
75.358150
11
66.279340
21
74.596470
0
LINE
8
Слой 1
10
66.279340
20
74.596470
11
66.396940
21
74.557770
0
LINE
8
Слой 1
10
66.396940
20
74.557770
11
66.514520
21
74.519070
0
LINE
8
Слой 1
10
66.514520
20
74.519070
11
66.647460
21
74.839990
0
LINE
8
Слой 1
10
66.647460
20
74.839990
11
66.868140
21
75.160910
0
LINE
8
Слой 1
10
66.868140
20
75.160910
11
67.651160
21
76.189860
0
LINE
8
Слой 1
10
67.651160
20
76.189860
11
67.986500
21
76.278860
0
LINE
8
Слой 1
10
67.986500
20
76.278860
11
68.304850
21
76.342560
0
LINE
8
Слой 1
10
68.304850
20
76.342560
11
68.484240
21
76.163180
0
LINE
8
Слой 1
10
68.484240
20
76.163180
11
68.663620
21
75.983790
0
LINE
8
Слой 1
10
68.663620
20
75.983790
11
68.656620
21
75.598790
0
LINE
8
Слой 1
10
68.656620
20
75.598790
11
68.648620
21
74.004260
0
LINE
8
Слой 1
10
68.648620
20
74.004260
11
68.647620
21
72.794730
0
LINE
8
Слой 1
10
68.647620
20
72.794730
11
68.533530
21
72.657270
0
LINE
8
Слой 1
10
68.533530
20
72.657270
11
68.419440
21
72.519810
0
LINE
8
Слой 1
10
68.419440
20
72.519810
11
68.136700
21
72.519800
0
LINE
8
Слой 1
10
68.136700
20
72.519800
11
67.727050
21
72.646570
0
LINE
8
Слой 1
10
67.727050
20
72.646570
11
67.600280
21
72.773350
0
LINE
8
Слой 1
10
67.600280
20
72.773350
11
67.600300
21
73.491700
0
LINE
8
Слой 1
10
67.600300
20
73.491700
11
67.600300
21
74.210100
0
LINE
8
Слой 1
10
67.600300
20
74.210100
11
67.502800
21
74.210100
0
LINE
8
Слой 1
10
67.502800
20
74.210100
11
66.755150
21
73.454170
0
LINE
8
Слой 1
10
66.755150
20
73.454170
11
66.338849
21
72.940081
0
LINE
8
Слой 1
10
66.338849
20
72.940081
11
65.747610
21
72.506100
0
LINE
8
Слой 1
10
65.747610
20
72.506100
11
65.370060
21
72.492800
0
LINE
8
Слой 1
10
65.370060
20
72.492800
11
65.369440
21
72.493210
0
LINE
8
Слой 1
10
96.678740
20
72.549110
11
96.441040
21
72.658080
0
LINE
8
Слой 1
10
96.441040
20
72.658080
11
96.434040
21
72.985280
0
LINE
8
Слой 1
10
96.434040
20
72.985280
11
96.430040
21
74.684100
0
LINE
8
Слой 1
10
96.430040
20
74.684100
11
96.433040
21
76.055720
0
LINE
8
Слой 1
10
96.433040
20
76.055720
11
96.616070
21
76.189560
0
LINE
8
Слой 1
10
96.616070
20
76.189560
11
97.011929
21
76.313947
0
LINE
8
Слой 1
10
97.011929
20
76.313947
11
97.392600
21
76.112160
0
LINE
8
Слой 1
10
97.392600
20
76.112160
11
97.603900
21
75.900870
0
LINE
8
Слой 1
10
97.603900
20
75.900870
11
97.604000
21
75.533100
0
LINE
8
Слой 1
10
97.604000
20
75.533100
11
97.604000
21
75.165400
0
LINE
8
Слой 1
10
97.604000
20
75.165400
11
97.841700
21
75.117400
0
LINE
8
Слой 1
10
97.841700
20
75.117400
11
98.579080
21
75.012060
0
LINE
8
Слой 1
10
98.579080
20
75.012060
11
99.454040
21
74.797920
0
LINE
8
Слой 1
10
99.454040
20
74.797920
11
99.829330
21
74.641110
0
LINE
8
Слой 1
10
99.829330
20
74.641110
11
100.026732
21
74.200190
0
LINE
8
Слой 1
10
100.026732
20
74.200190
11
100.224142
21
73.759270
0
LINE
8
Слой 1
10
100.224142
20
73.759270
11
100.111142
21
73.430280
0
LINE
8
Слой 1
10
100.111142
20
73.430280
11
99.742738
21
72.886834
0
LINE
8
Слой 1
10
99.742738
20
72.886834
11
99.274150
21
72.626010
0
LINE
8
Слой 1
10
99.274150
20
72.626010
11
99.028940
21
72.518180
0
LINE
8
Слой 1
10
99.028940
20
72.518180
11
98.962340
21
72.410470
0
LINE
8
Слой 1
10
98.962340
20
72.410470
11
97.939800
21
72.425370
0
LINE
8
Слой 1
10
97.939800
20
72.425370
11
96.917270
21
72.440270
0
LINE
8
Слой 1
10
96.917270
20
72.440270
11
96.679560
21
72.549240
0
LINE
8
Слой 1
10
96.679560
20
72.549240
11
96.678740
21
72.549110
0
LINE
8
Слой 1
10
98.738840
20
73.496820
11
98.861978
21
73.661741
0
LINE
8
Слой 1
10
98.861978
20
73.661741
11
98.774740
21
73.881870
0
LINE
8
Слой 1
10
98.774740
20
73.881870
11
98.681740
21
74.028670
0
LINE
8
Слой 1
10
98.681740
20
74.028670
11
98.264080
21
74.070470
0
LINE
8
Слой 1
10
98.264080
20
74.070470
11
97.846430
21
74.112270
0
LINE
8
Слой 1
10
97.846430
20
74.112270
11
97.712970
21
73.951460
0
LINE
8
Слой 1
10
97.712970
20
73.951460
11
97.579500
21
73.790650
0
LINE
8
Слой 1
10
97.579500
20
73.790650
11
97.641800
21
73.628300
0
LINE
8
Слой 1
10
97.641800
20
73.628300
11
97.818604
21
73.426669
0
LINE
8
Слой 1
10
97.818604
20
73.426669
11
98.107916
21
73.331861
0
LINE
8
Слой 1
10
98.107916
20
73.331861
11
98.738830
21
73.496890
0
LINE
8
Слой 1
10
98.738830
20
73.496890
11
98.738840
21
73.496820
0
LINE
8
Слой 1
10
100.621830
20
72.554210
11
100.430750
21
72.693930
0
LINE
8
Слой 1
10
100.430750
20
72.693930
11
100.391450
21
74.006850
0
LINE
8
Слой 1
10
100.391450
20
74.006850
11
100.410750
21
75.701770
0
LINE
8
Слой 1
10
100.410750
20
75.701770
11
100.469350
21
76.083780
0
LINE
8
Слой 1
10
100.469350
20
76.083780
11
100.721270
21
76.218600
0
LINE
8
Слой 1
10
100.721270
20
76.218600
11
100.973190
21
76.353420
0
LINE
8
Слой 1
10
100.973190
20
76.353420
11
101.295430
21
76.219950
0
LINE
8
Слой 1
10
101.295430
20
76.219950
11
101.617670
21
76.086470
0
LINE
8
Слой 1
10
101.617670
20
76.086470
11
101.618000
21
75.530500
0
LINE
8
Слой 1
10
101.618000
20
75.530500
11
101.618000
21
74.974600
0
LINE
8
Слой 1
10
101.618000
20
74.974600
11
101.855710
21
74.910900
0
LINE
8
Слой 1
10
101.855710
20
74.910900
11
102.399081
21
74.851413
0
LINE
8
Слой 1
10
102.399081
20
74.851413
11
102.758980
21
74.971100
0
LINE
8
Слой 1
10
102.758980
20
74.971100
11
102.885760
21
75.097880
0
LINE
8
Слой 1
10
102.885760
20
75.097880
11
102.886000
21
75.487700
0
LINE
8
Слой 1
10
102.886000
20
75.487700
11
102.886000
21
75.877400
0
LINE
8
Слой 1
10
102.886000
20
75.877400
11
103.073100
21
76.108480
0
LINE
8
Слой 1
10
103.073100
20
76.108480
11
103.260230
21
76.339550
0
LINE
8
Слой 1
10
103.260230
20
76.339550
11
103.540870
21
76.269150
0
LINE
8
Слой 1
10
103.540870
20
76.269150
11
103.821520
21
76.198750
0
LINE
8
Слой 1
10
103.821520
20
76.198750
11
103.900820
21
76.023410
0
LINE
8
Слой 1
10
103.900820
20
76.023410
11
104.007030
21
74.355990
0
LINE
8
Слой 1
10
104.007030
20
74.355990
11
104.033930
21
72.863930
0
LINE
8
Слой 1
10
104.033930
20
72.863930
11
103.876560
21
72.639250
0
LINE
8
Слой 1
10
103.876560
20
72.639250
11
103.719190
21
72.414560
0
LINE
8
Слой 1
10
103.719190
20
72.414560
11
103.513000
21
72.414600
0
LINE
8
Слой 1
10
103.513000
20
72.414600
11
103.097140
21
72.625160
0
LINE
8
Слой 1
10
103.097140
20
72.625160
11
102.886580
21
72.835730
0
LINE
8
Слой 1
10
102.886580
20
72.835730
11
102.902280
21
73.235360
0
LINE
8
Слой 1
10
102.902280
20
73.235360
11
102.917980
21
73.634990
0
LINE
8
Слой 1
10
102.917980
20
73.634990
11
102.787840
21
73.878160
0
LINE
8
Слой 1
10
102.787840
20
73.878160
11
102.657700
21
74.121330
0
LINE
8
Слой 1
10
102.657700
20
74.121330
11
102.480920
21
74.043230
0
LINE
8
Слой 1
10
102.480920
20
74.043230
11
101.934380
21
73.920800
0
LINE
8
Слой 1
10
101.934380
20
73.920800
11
101.564620
21
73.876500
0
LINE
8
Слой 1
10
101.564620
20
73.876500
11
101.567620
21
73.330450
0
LINE
8
Слой 1
10
101.567620
20
73.330450
11
101.570620
21
72.784390
0
LINE
8
Слой 1
10
101.570620
20
72.784390
11
101.462480
21
72.599510
0
LINE
8
Слой 1
10
101.462480
20
72.599510
11
101.354330
21
72.414630
0
LINE
8
Слой 1
10
101.354330
20
72.414630
11
101.083000
21
72.414600
0
LINE
8
Слой 1
10
101.083000
20
72.414600
11
100.620590
21
72.554320
0
LINE
8
Слой 1
10
100.620590
20
72.554320
11
100.621830
21
72.554210
0
LINE
8
Слой 1
10
66.245930
20
76.851680
11
66.001430
21
76.955480
0
LINE
8
Слой 1
10
66.001430
20
76.955480
11
66.068930
21
77.064640
0
LINE
8
Слой 1
10
66.068930
20
77.064640
11
66.136430
21
77.173800
0
LINE
8
Слой 1
10
66.136430
20
77.173800
11
66.005150
21
77.144800
0
LINE
8
Слой 1
10
66.005150
20
77.144800
11
65.873870
21
77.115800
0
LINE
8
Слой 1
10
65.873870
20
77.115800
11
65.732280
21
77.379910
0
LINE
8
Слой 1
10
65.732280
20
77.379910
11
65.617990
21
77.908140
0
LINE
8
Слой 1
10
65.617990
20
77.908140
11
65.645290
21
78.172260
0
LINE
8
Слой 1
10
65.645290
20
78.172260
11
65.891710
21
78.207160
0
LINE
8
Слой 1
10
65.891710
20
78.207160
11
66.138120
21
78.242060
0
LINE
8
Слой 1
10
66.138120
20
78.242060
11
66.340700
21
78.058730
0
LINE
8
Слой 1
10
66.340700
20
78.058730
11
66.543280
21
77.733300
0
LINE
8
Слой 1
10
66.543280
20
77.733300
11
66.543400
21
77.591200
0
LINE
8
Слой 1
10
66.543400
20
77.591200
11
66.913200
21
77.591200
0
LINE
8
Слой 1
10
66.913200
20
77.591200
11
67.282900
21
77.591200
0
LINE
8
Слой 1
10
67.282900
20
77.591200
11
67.282900
21
77.680700
0
LINE
8
Слой 1
10
67.282900
20
77.680700
11
67.480170
21
77.997640
0
LINE
8
Слой 1
10
67.480170
20
77.997640
11
67.677450
21
78.225100
0
LINE
8
Слой 1
10
67.677450
20
78.225100
11
67.891500
21
78.225100
0
LINE
8
Слой 1
10
67.891500
20
78.225100
11
68.105500
21
78.225100
0
LINE
8
Слой 1
10
68.105500
20
78.225100
11
68.169600
21
78.057990
0
LINE
8
Слой 1
10
68.169600
20
78.057990
11
68.233700
21
77.694750
0
LINE
8
Слой 1
10
68.233700
20
77.694750
11
68.233700
21
77.498600
0
LINE
8
Слой 1
10
68.233700
20
77.498600
11
67.922510
21
77.157900
0
LINE
8
Слой 1
10
67.922510
20
77.157900
11
67.611330
21
76.817200
0
LINE
8
Слой 1
10
67.611330
20
76.817200
11
67.050940
21
76.782600
0
LINE
8
Слой 1
10
67.050940
20
76.782600
11
66.490540
21
76.748000
0
LINE
8
Слой 1
10
66.490540
20
76.748000
11
66.245930
21
76.851680
0
LINE
8
Слой 1
10
55.422530
20
79.572090
11
55.236220
21
79.614490
0
LINE
8
Слой 1
10
55.236220
20
79.614490
11
55.092460
21
79.897000
0
LINE
8
Слой 1
10
55.092460
20
79.897000
11
54.948710
21
80.179500
0
LINE
8
Слой 1
10
54.948710
20
80.179500
11
54.943710
21
82.545960
0
LINE
8
Слой 1
10
54.943710
20
82.545960
11
54.938710
21
84.912420
0
LINE
8
Слой 1
10
54.938710
20
84.912420
11
55.101390
21
85.160700
0
LINE
8
Слой 1
10
55.101390
20
85.160700
11
55.264060
21
85.408980
0
LINE
8
Слой 1
10
55.264060
20
85.408980
11
55.600700
21
85.409000
0
LINE
8
Слой 1
10
55.600700
20
85.409000
11
56.059470
21
85.286700
0
LINE
8
Слой 1
10
56.059470
20
85.286700
11
56.181770
21
85.164400
0
LINE
8
Слой 1
10
56.181770
20
85.164400
11
56.339860
21
85.295600
0
LINE
8
Слой 1
10
56.339860
20
85.295600
11
56.497950
21
85.426800
0
LINE
8
Слой 1
10
56.497950
20
85.426800
11
57.120850
21
85.476500
0
LINE
8
Слой 1
10
57.120850
20
85.476500
11
57.743750
21
85.526200
0
LINE
8
Слой 1
10
57.743750
20
85.526200
11
58.201300
21
85.177040
0
LINE
8
Слой 1
10
58.201300
20
85.177040
11
58.658850
21
84.827870
0
LINE
8
Слой 1
10
58.658850
20
84.827870
11
58.950920
21
84.330560
0
LINE
8
Слой 1
10
58.950920
20
84.330560
11
59.243000
21
83.833250
0
LINE
8
Слой 1
10
59.243000
20
83.833250
11
59.196100
21
83.275590
0
LINE
8
Слой 1
10
59.196100
20
83.275590
11
59.002958
21
82.431659
0
LINE
8
Слой 1
10
59.002958
20
82.431659
11
58.548680
21
81.796160
0
LINE
8
Слой 1
10
58.548680
20
81.796160
11
58.066700
21
81.455870
0
LINE
8
Слой 1
10
58.066700
20
81.455870
11
57.508480
21
81.243405
0
LINE
8
Слой 1
10
57.508480
20
81.243405
11
56.960430
21
81.180287
0
LINE
8
Слой 1
10
56.960430
20
81.180287
11
56.508960
21
81.288040
0
LINE
8
Слой 1
10
56.508960
20
81.288040
11
56.312850
21
81.392990
0
LINE
8
Слой 1
10
56.312850
20
81.392990
11
56.253150
21
81.103160
0
LINE
8
Слой 1
10
56.253150
20
81.103160
11
56.174050
21
80.390740
0
LINE
8
Слой 1
10
56.174050
20
80.390740
11
55.948610
21
79.722944
0
LINE
8
Слой 1
10
55.948610
20
79.722944
11
55.716918
21
79.575760
0
LINE
8
Слой 1
10
55.716918
20
79.575760
11
55.423350
21
79.572070
0
LINE
8
Слой 1
10
55.423350
20
79.572070
11
55.422530
21
79.572090
0
LINE
8
Слой 1
10
57.581400
20
82.520060
11
57.774590
21
82.694900
0
LINE
8
Слой 1
10
57.774590
20
82.694900
11
57.774700
21
83.319900
0
LINE
8
Слой 1
10
57.774700
20
83.319900
11
57.774700
21
83.944900
0
LINE
8
Слой 1
10
57.774700
20
83.944900
11
57.602780
21
84.116830
0
LINE
8
Слой 1
10
57.602780
20
84.116830
11
57.430850
21
84.288760
0
LINE
8
Слой 1
10
57.430850
20
84.288760
11
56.997180
21
84.299660
0
LINE
8
Слой 1
10
56.997180
20
84.299660
11
56.563530
21
84.310560
0
LINE
8
Слой 1
10
56.563530
20
84.310560
11
56.369650
21
83.948850
0
LINE
8
Слой 1
10
56.369650
20
83.948850
11
56.175790
21
83.587140
0
LINE
8
Слой 1
10
56.175790
20
83.587140
11
56.247190
21
83.151030
0
LINE
8
Слой 1
10
56.247190
20
83.151030
11
56.481970
21
82.530040
0
LINE
8
Слой 1
10
56.481970
20
82.530040
11
56.645310
21
82.345150
0
LINE
8
Слой 1
10
56.645310
20
82.345150
11
57.016800
21
82.345200
0
LINE
8
Слой 1
10
57.016800
20
82.345200
11
57.388300
21
82.345200
0
LINE
8
Слой 1
10
57.388300
20
82.345200
11
57.581400
21
82.520060
0
LINE
8
Слой 1
10
90.736100
20
79.700340
11
90.471980
21
79.903200
0
LINE
8
Слой 1
10
90.471980
20
79.903200
11
90.436580
21
82.396750
0
LINE
8
Слой 1
10
90.436580
20
82.396750
11
90.401180
21
84.890290
0
LINE
8
Слой 1
10
90.401180
20
84.890290
11
90.571100
21
85.149620
0
LINE
8
Слой 1
10
90.571100
20
85.149620
11
90.741020
21
85.408950
0
LINE
8
Слой 1
10
90.741020
20
85.408950
11
91.029110
21
85.401950
0
LINE
8
Слой 1
10
91.029110
20
85.401950
11
91.524310
21
85.313550
0
LINE
8
Слой 1
10
91.524310
20
85.313550
11
91.731420
21
85.232550
0
LINE
8
Слой 1
10
91.731420
20
85.232550
11
92.124350
21
85.386900
0
LINE
8
Слой 1
10
92.124350
20
85.386900
11
92.517280
21
85.541250
0
LINE
8
Слой 1
10
92.517280
20
85.541250
11
93.020350
21
85.465850
0
LINE
8
Слой 1
10
93.020350
20
85.465850
11
93.523420
21
85.390450
0
LINE
8
Слой 1
10
93.523420
20
85.390450
11
93.964020
21
84.950960
0
LINE
8
Слой 1
10
93.964020
20
84.950960
11
94.525700
21
84.279100
0
LINE
8
Слой 1
10
94.525700
20
84.279100
11
94.646770
21
84.046730
0
LINE
8
Слой 1
10
94.646770
20
84.046730
11
94.609870
21
83.315110
0
LINE
8
Слой 1
10
94.609870
20
83.315110
11
94.572970
21
82.583480
0
LINE
8
Слой 1
10
94.572970
20
82.583480
11
94.322870
21
82.174080
0
LINE
8
Слой 1
10
94.322870
20
82.174080
11
93.924771
21
81.654374
0
LINE
8
Слой 1
10
93.924771
20
81.654374
11
93.377280
21
81.333800
0
LINE
8
Слой 1
10
93.377280
20
81.333800
11
93.007520
21
81.170540
0
LINE
8
Слой 1
10
93.007520
20
81.170540
11
92.320820
21
81.203440
0
LINE
8
Слой 1
10
92.320820
20
81.203440
11
91.634120
21
81.236340
0
LINE
8
Слой 1
10
91.634120
20
81.236340
11
91.617720
21
80.553470
0
LINE
8
Слой 1
10
91.617720
20
80.553470
11
91.601320
21
79.870600
0
LINE
8
Слой 1
10
91.601320
20
79.870600
11
91.368280
21
79.681900
0
LINE
8
Слой 1
10
91.368280
20
79.681900
11
91.066933
21
79.510096
0
LINE
8
Слой 1
10
91.066933
20
79.510096
11
90.736050
21
79.700700
0
LINE
8
Слой 1
10
90.736050
20
79.700700
11
90.736100
21
79.700340
0
LINE
8
Слой 1
10
93.238050
20
82.850460
11
93.397910
21
83.233050
0
LINE
8
Слой 1
10
93.397910
20
83.233050
11
93.278840
21
83.630480
0
LINE
8
Слой 1
10
93.278840
20
83.630480
11
93.159760
21
84.027910
0
LINE
8
Слой 1
10
93.159760
20
84.027910
11
92.928060
21
84.190200
0
LINE
8
Слой 1
10
92.928060
20
84.190200
11
92.474160
21
84.352490
0
LINE
8
Слой 1
10
92.474160
20
84.352490
11
92.252200
21
84.352500
0
LINE
8
Слой 1
10
92.252200
20
84.352500
11
92.003790
21
84.088080
0
LINE
8
Слой 1
10
92.003790
20
84.088080
11
91.755390
21
83.823660
0
LINE
8
Слой 1
10
91.755390
20
83.823660
11
91.747390
21
83.306980
0
LINE
8
Слой 1
10
91.747390
20
83.306980
11
91.739390
21
82.790300
0
LINE
8
Слой 1
10
91.739390
20
82.790300
11
91.935260
21
82.573720
0
LINE
8
Слой 1
10
91.935260
20
82.573720
11
92.131120
21
82.357140
0
LINE
8
Слой 1
10
92.131120
20
82.357140
11
92.410670
21
82.320740
0
LINE
8
Слой 1
10
92.410670
20
82.320740
11
92.884040
21
82.376140
0
LINE
8
Слой 1
10
92.884040
20
82.376140
11
93.077860
21
82.467840
0
LINE
8
Слой 1
10
93.077860
20
82.467840
11
93.238050
21
82.850460
0
LINE
8
Слой 1
10
42.968450
20
81.329660
11
42.477320
21
81.461960
0
LINE
8
Слой 1
10
42.477320
20
81.461960
11
42.144750
21
81.771530
0
LINE
8
Слой 1
10
42.144750
20
81.771530
11
41.655790
21
82.405130
0
LINE
8
Слой 1
10
41.655790
20
82.405130
11
41.499380
21
82.729160
0
LINE
8
Слой 1
10
41.499380
20
82.729160
11
41.490380
21
83.303120
0
LINE
8
Слой 1
10
41.490380
20
83.303120
11
41.481380
21
83.877080
0
LINE
8
Слой 1
10
41.481380
20
83.877080
11
41.651130
21
84.267440
0
LINE
8
Слой 1
10
41.651130
20
84.267440
11
42.061593
21
84.889805
0
LINE
8
Слой 1
10
42.061593
20
84.889805
11
42.559040
21
85.249400
0
LINE
8
Слой 1
10
42.559040
20
85.249400
11
42.773730
21
85.416070
0
LINE
8
Слой 1
10
42.773730
20
85.416070
11
42.773900
21
85.514600
0
LINE
8
Слой 1
10
42.773900
20
85.514600
11
43.619000
21
85.514600
0
LINE
8
Слой 1
10
43.619000
20
85.514600
11
44.464200
21
85.514600
0
LINE
8
Слой 1
10
44.464200
20
85.514600
11
44.464200
21
85.408900
0
LINE
8
Слой 1
10
44.464200
20
85.408900
11
44.570760
21
85.303260
0
LINE
8
Слой 1
10
44.570760
20
85.303260
11
44.910597
21
85.114126
0
LINE
8
Слой 1
10
44.910597
20
85.114126
11
45.292156
21
84.656626
0
LINE
8
Слой 1
10
45.292156
20
84.656626
11
45.603315
21
84.095613
0
LINE
8
Слой 1
10
45.603315
20
84.095613
11
45.731950
21
83.595940
0
LINE
8
Слой 1
10
45.731950
20
83.595940
11
45.732000
21
83.328700
0
LINE
8
Слой 1
10
45.732000
20
83.328700
11
45.543150
21
83.157800
0
LINE
8
Слой 1
10
45.543150
20
83.157800
11
45.354300
21
82.986890
0
LINE
8
Слой 1
10
45.354300
20
82.986890
11
44.259510
21
82.987890
0
LINE
8
Слой 1
10
44.259510
20
82.987890
11
43.164710
21
82.988890
0
LINE
8
Слой 1
10
43.164710
20
82.988890
11
43.050920
21
82.875100
0
LINE
8
Слой 1
10
43.050920
20
82.875100
11
42.937130
21
82.761310
0
LINE
8
Слой 1
10
42.937130
20
82.761310
11
43.049100
21
82.583800
0
LINE
8
Слой 1
10
43.049100
20
82.583800
11
43.161080
21
82.406290
0
LINE
8
Слой 1
10
43.161080
20
82.406290
11
43.522140
21
82.311290
0
LINE
8
Слой 1
10
43.522140
20
82.311290
11
43.883200
21
82.216290
0
LINE
8
Слой 1
10
43.883200
20
82.216290
11
44.428180
21
82.399980
0
LINE
8
Слой 1
10
44.428180
20
82.399980
11
44.973170
21
82.583680
0
LINE
8
Слой 1
10
44.973170
20
82.583680
11
45.235290
21
82.517880
0
LINE
8
Слой 1
10
45.235290
20
82.517880
11
45.561500
21
82.285050
0
LINE
8
Слой 1
10
45.561500
20
82.285050
11
45.625600
21
82.118020
0
LINE
8
Слой 1
10
45.625600
20
82.118020
11
45.517570
21
81.916170
0
LINE
8
Слой 1
10
45.517570
20
81.916170
11
45.409550
21
81.714320
0
LINE
8
Слой 1
10
45.409550
20
81.714320
11
44.847470
21
81.448420
0
LINE
8
Слой 1
10
44.847470
20
81.448420
11
44.285390
21
81.182510
0
LINE
8
Слой 1
10
44.285390
20
81.182510
11
43.873000
21
81.189510
0
LINE
8
Слой 1
10
43.873000
20
81.189510
11
42.969490
21
81.328940
0
LINE
8
Слой 1
10
42.969490
20
81.328940
11
42.968450
21
81.329660
0
LINE
8
Слой 1
10
44.294100
20
83.912690
11
44.188700
21
84.229630
0
LINE
8
Слой 1
10
44.188700
20
84.229630
11
44.028650
21
84.458140
0
LINE
8
Слой 1
10
44.028650
20
84.458140
11
43.681400
21
84.458100
0
LINE
8
Слой 1
10
43.681400
20
84.458100
11
43.334000
21
84.458100
0
LINE
8
Слой 1
10
43.334000
20
84.458100
11
43.148810
21
84.253460
0
LINE
8
Слой 1
10
43.148810
20
84.253460
11
42.963620
21
84.048830
0
LINE
8
Слой 1
10
42.963620
20
84.048830
11
43.033020
21
83.936520
0
LINE
8
Слой 1
10
43.033020
20
83.936520
11
43.102420
21
83.824220
0
LINE
8
Слой 1
10
43.102420
20
83.824220
11
43.671000
21
83.824200
0
LINE
8
Слой 1
10
43.671000
20
83.824200
11
44.294230
21
83.912600
0
LINE
8
Слой 1
10
44.294230
20
83.912600
11
44.294100
21
83.912690
0
LINE
8
Слой 1
10
51.858430
20
81.280360
11
51.528360
21
81.450110
0
LINE
8
Слой 1
10
51.528360
20
81.450110
11
51.198290
21
81.522610
0
LINE
8
Слой 1
10
51.198290
20
81.522610
11
50.868070
21
81.895130
0
LINE
8
Слой 1
10
50.868070
20
81.895130
11
50.460146
21
82.423730
0
LINE
8
Слой 1
10
50.460146
20
82.423730
11
50.336570
21
82.977920
0
LINE
8
Слой 1
10
50.336570
20
82.977920
11
50.280670
21
83.441420
0
LINE
8
Слой 1
10
50.280670
20
83.441420
11
50.393820
21
83.890770
0
LINE
8
Слой 1
10
50.393820
20
83.890770
11
50.506980
21
84.340130
0
LINE
8
Слой 1
10
50.506980
20
84.340130
11
50.866870
21
84.760590
0
LINE
8
Слой 1
10
50.866870
20
84.760590
11
51.226760
21
85.181040
0
LINE
8
Слой 1
10
51.226760
20
85.181040
11
51.701930
21
85.362510
0
LINE
8
Слой 1
10
51.701930
20
85.362510
11
52.177100
21
85.543980
0
LINE
8
Слой 1
10
52.177100
20
85.543980
11
52.747850
21
85.485080
0
LINE
8
Слой 1
10
52.747850
20
85.485080
11
53.318610
21
85.426180
0
LINE
8
Слой 1
10
53.318610
20
85.426180
11
53.598120
21
85.243040
0
LINE
8
Слой 1
10
53.598120
20
85.243040
11
54.213140
21
84.574150
0
LINE
8
Слой 1
10
54.213140
20
84.574150
11
54.548660
21
84.088400
0
LINE
8
Слой 1
10
54.548660
20
84.088400
11
54.531560
21
83.623840
0
LINE
8
Слой 1
10
54.531560
20
83.623840
11
54.514460
21
83.159280
0
LINE
8
Слой 1
10
54.514460
20
83.159280
11
54.374940
21
83.070780
0
LINE
8
Слой 1
10
54.374940
20
83.070780
11
54.235410
21
82.982280
0
LINE
8
Слой 1
10
54.235410
20
82.982280
11
53.046900
21
82.980280
0
LINE
8
Слой 1
10
53.046900
20
82.980280
11
51.858380
21
82.978280
0
LINE
8
Слой 1
10
51.858380
20
82.978280
11
51.858500
21
82.769400
0
LINE
8
Слой 1
10
51.858500
20
82.769400
11
51.858500
21
82.560500
0
LINE
8
Слой 1
10
51.858500
20
82.560500
11
52.129210
21
82.383120
0
LINE
8
Слой 1
10
52.129210
20
82.383120
11
52.399910
21
82.205750
0
LINE
8
Слой 1
10
52.399910
20
82.205750
11
52.947960
21
82.321250
0
LINE
8
Слой 1
10
52.947960
20
82.321250
11
53.801110
21
82.511290
0
LINE
8
Слой 1
10
53.801110
20
82.511290
11
54.106200
21
82.585790
0
LINE
8
Слой 1
10
54.106200
20
82.585790
11
54.294020
21
82.336790
0
LINE
8
Слой 1
10
54.294020
20
82.336790
11
54.481840
21
82.087790
0
LINE
8
Слой 1
10
54.481840
20
82.087790
11
54.281360
21
81.806240
0
LINE
8
Слой 1
10
54.281360
20
81.806240
11
54.080890
21
81.524700
0
LINE
8
Слой 1
10
54.080890
20
81.524700
11
53.557310
21
81.353440
0
LINE
8
Слой 1
10
53.557310
20
81.353440
11
53.033730
21
81.182190
0
LINE
8
Слой 1
10
53.033730
20
81.182190
11
52.446100
21
81.182200
0
LINE
8
Слой 1
10
52.446100
20
81.182200
11
51.858500
21
81.182200
0
LINE
8
Слой 1
10
51.858500
20
81.182200
11
51.858430
21
81.280360
0
LINE
8
Слой 1
10
53.105740
20
83.815460
11
53.243780
21
83.824460
0
LINE
8
Слой 1
10
53.243780
20
83.824460
11
53.056550
21
84.141400
0
LINE
8
Слой 1
10
53.056550
20
84.141400
11
52.869330
21
84.458330
0
LINE
8
Слой 1
10
52.869330
20
84.458330
11
52.528500
21
84.458300
0
LINE
8
Слой 1
10
52.528500
20
84.458300
11
52.187500
21
84.458300
0
LINE
8
Слой 1
10
52.187500
20
84.458300
11
52.023040
21
84.223500
0
LINE
8
Слой 1
10
52.023040
20
84.223500
11
51.858580
21
83.913260
0
LINE
8
Слой 1
10
51.858580
20
83.913260
11
52.756570
21
83.789210
0
LINE
8
Слой 1
10
52.756570
20
83.789210
11
53.105890
21
83.815610
0
LINE
8
Слой 1
10
53.105890
20
83.815610
11
53.105740
21
83.815460
0
LINE
8
Слой 1
10
65.347940
20
81.328520
11
65.292140
21
81.473930
0
LINE
8
Слой 1
10
65.292140
20
81.473930
11
65.046110
21
81.433030
0
LINE
8
Слой 1
10
65.046110
20
81.433030
11
64.800080
21
81.392130
0
LINE
8
Слой 1
10
64.800080
20
81.392130
11
64.535970
21
81.633350
0
LINE
8
Слой 1
10
64.535970
20
81.633350
11
64.004380
21
82.241950
0
LINE
8
Слой 1
10
64.004380
20
82.241950
11
63.736910
21
82.609340
0
LINE
8
Слой 1
10
63.736910
20
82.609340
11
63.704810
21
83.257430
0
LINE
8
Слой 1
10
63.704810
20
83.257430
11
63.672710
21
83.905530
0
LINE
8
Слой 1
10
63.672710
20
83.905530
11
63.831130
21
84.208250
0
LINE
8
Слой 1
10
63.831130
20
84.208250
11
64.344566
21
84.892826
0
LINE
8
Слой 1
10
64.344566
20
84.892826
11
64.925150
21
85.396480
0
LINE
8
Слой 1
10
64.925150
20
85.396480
11
65.155900
21
85.514600
0
LINE
8
Слой 1
10
65.155900
20
85.514600
11
65.890500
21
85.514600
0
LINE
8
Слой 1
10
65.890500
20
85.514600
11
66.624900
21
85.514600
0
LINE
8
Слой 1
10
66.624900
20
85.514600
11
67.143030
21
85.012790
0
LINE
8
Слой 1
10
67.143030
20
85.012790
11
67.661170
21
84.510970
0
LINE
8
Слой 1
10
67.661170
20
84.510970
11
67.788920
21
84.133710
0
LINE
8
Слой 1
10
67.788920
20
84.133710
11
67.910602
21
83.421006
0
LINE
8
Слой 1
10
67.910602
20
83.421006
11
67.800520
21
82.611410
0
LINE
8
Слой 1
10
67.800520
20
82.611410
11
67.684370
21
82.150150
0
LINE
8
Слой 1
10
67.684370
20
82.150150
11
67.404350
21
81.901900
0
LINE
8
Слой 1
10
67.404350
20
81.901900
11
66.742100
21
81.418380
0
LINE
8
Слой 1
10
66.742100
20
81.418380
11
66.359860
21
81.183120
0
LINE
8
Слой 1
10
66.359860
20
81.183120
11
65.881900
21
81.183100
0
LINE
8
Слой 1
10
65.881900
20
81.183100
11
65.403800
21
81.183100
0
LINE
8
Слой 1
10
65.403800
20
81.183100
11
65.347940
21
81.328520
0
LINE
8
Слой 1
10
66.356190
20
82.477280
11
66.623810
21
82.979090
0
LINE
8
Слой 1
10
66.623810
20
82.979090
11
66.721110
21
83.348850
0
LINE
8
Слой 1
10
66.721110
20
83.348850
11
66.618370
21
83.665790
0
LINE
8
Слой 1
10
66.618370
20
83.665790
11
66.354570
21
84.167610
0
LINE
8
Слой 1
10
66.354570
20
84.167610
11
66.193510
21
84.352490
0
LINE
8
Слой 1
10
66.193510
20
84.352490
11
65.901700
21
84.352500
0
LINE
8
Слой 1
10
65.901700
20
84.352500
11
65.408260
21
84.261570
0
LINE
8
Слой 1
10
65.408260
20
84.261570
11
65.113180
21
83.922360
0
LINE
8
Слой 1
10
65.113180
20
83.922360
11
64.958620
21
83.623470
0
LINE
8
Слой 1
10
64.958620
20
83.623470
11
64.958600
21
83.234100
0
LINE
8
Слой 1
10
64.958600
20
83.234100
11
64.958600
21
82.844800
0
LINE
8
Слой 1
10
64.958600
20
82.844800
11
65.228160
21
82.594990
0
LINE
8
Слой 1
10
65.228160
20
82.594990
11
65.497710
21
82.345170
0
LINE
8
Слой 1
10
65.497710
20
82.345170
11
65.841900
21
82.345200
0
LINE
8
Слой 1
10
65.841900
20
82.345200
11
66.356300
21
82.477260
0
LINE
8
Слой 1
10
66.356300
20
82.477260
11
66.356190
21
82.477280
0
LINE
8
Слой 1
10
72.565060
20
81.276840
11
72.419020
21
81.394400
0
LINE
8
Слой 1
10
72.419020
20
81.394400
11
71.856040
21
81.811340
0
LINE
8
Слой 1
10
71.856040
20
81.811340
11
71.439110
21
82.228280
0
LINE
8
Слой 1
10
71.439110
20
82.228280
11
71.310430
21
82.803260
0
LINE
8
Слой 1
10
71.310430
20
82.803260
11
71.181750
21
83.378240
0
LINE
8
Слой 1
10
71.181750
20
83.378240
11
71.248350
21
83.680490
0
LINE
8
Слой 1
10
71.248350
20
83.680490
11
71.376250
21
84.141200
0
LINE
8
Слой 1
10
71.376250
20
84.141200
11
71.446650
21
84.374180
0
LINE
8
Слой 1
10
71.446650
20
84.374180
11
71.872408
21
84.892861
0
LINE
8
Слой 1
10
71.872408
20
84.892861
11
72.491290
21
85.382540
0
LINE
8
Слой 1
10
72.491290
20
85.382540
11
72.786290
21
85.514600
0
LINE
8
Слой 1
10
72.786290
20
85.514600
11
73.424900
21
85.514600
0
LINE
8
Слой 1
10
73.424900
20
85.514600
11
74.063300
21
85.514600
0
LINE
8
Слой 1
10
74.063300
20
85.514600
11
74.470280
21
85.224070
0
LINE
8
Слой 1
10
74.470280
20
85.224070
11
75.130924
21
84.422586
0
LINE
8
Слой 1
10
75.130924
20
84.422586
11
75.392290
21
83.294590
0
LINE
8
Слой 1
10
75.392290
20
83.294590
11
75.408990
21
82.820620
0
LINE
8
Слой 1
10
75.408990
20
82.820620
11
75.175610
21
82.349800
0
LINE
8
Слой 1
10
75.175610
20
82.349800
11
74.942220
21
81.878990
0
LINE
8
Слой 1
10
74.942220
20
81.878990
11
74.488680
21
81.560660
0
LINE
8
Слой 1
10
74.488680
20
81.560660
11
74.035130
21
81.242330
0
LINE
8
Слой 1
10
74.035130
20
81.242330
11
73.300160
21
81.200830
0
LINE
8
Слой 1
10
73.300160
20
81.200830
11
72.565190
21
81.159330
0
LINE
8
Слой 1
10
72.565190
20
81.159330
11
72.565060
21
81.276840
0
LINE
8
Слой 1
10
73.854300
20
82.530100
11
74.117980
21
83.031920
0
LINE
8
Слой 1
10
74.117980
20
83.031920
11
74.221790
21
83.348850
0
LINE
8
Слой 1
10
74.221790
20
83.348850
11
74.139090
21
83.650730
0
LINE
8
Слой 1
10
74.139090
20
83.650730
11
73.875410
21
84.152550
0
LINE
8
Слой 1
10
73.875410
20
84.152550
11
73.694460
21
84.352490
0
LINE
8
Слой 1
10
73.694460
20
84.352490
11
73.439900
21
84.352500
0
LINE
8
Слой 1
10
73.439900
20
84.352500
11
72.959379
21
84.221130
0
LINE
8
Слой 1
10
72.959379
20
84.221130
11
72.617330
21
83.822880
0
LINE
8
Слой 1
10
72.617330
20
83.822880
11
72.455960
21
83.510820
0
LINE
8
Слой 1
10
72.455960
20
83.510820
11
72.480960
21
83.182530
0
LINE
8
Слой 1
10
72.480960
20
83.182530
11
72.505960
21
82.854240
0
LINE
8
Слой 1
10
72.505960
20
82.854240
11
72.741830
21
82.599730
0
LINE
8
Слой 1
10
72.741830
20
82.599730
11
72.977690
21
82.345230
0
LINE
8
Слой 1
10
72.977690
20
82.345230
11
73.336100
21
82.345200
0
LINE
8
Слой 1
10
73.336100
20
82.345200
11
73.694600
21
82.345200
0
LINE
8
Слой 1
10
73.694600
20
82.345200
11
73.854300
21
82.530100
0
LINE
8
Слой 1
10
87.143900
20
81.323750
11
86.527200
21
81.711340
0
LINE
8
Слой 1
10
86.527200
20
81.711340
11
86.174920
21
81.975460
0
LINE
8
Слой 1
10
86.174920
20
81.975460
11
85.960190
21
82.446480
0
LINE
8
Слой 1
10
85.960190
20
82.446480
11
85.745440
21
82.917500
0
LINE
8
Слой 1
10
85.745440
20
82.917500
11
85.799740
21
83.515920
0
LINE
8
Слой 1
10
85.799740
20
83.515920
11
85.854040
21
84.114340
0
LINE
8
Слой 1
10
85.854040
20
84.114340
11
86.047480
21
84.418290
0
LINE
8
Слой 1
10
86.047480
20
84.418290
11
86.533235
21
84.985794
0
LINE
8
Слой 1
10
86.533235
20
84.985794
11
87.131550
21
85.372930
0
LINE
8
Слой 1
10
87.131550
20
85.372930
11
87.488590
21
85.528870
0
LINE
8
Слой 1
10
87.488590
20
85.528870
11
87.976710
21
85.504170
0
LINE
8
Слой 1
10
87.976710
20
85.504170
11
89.044540
21
85.170777
0
LINE
8
Слой 1
10
89.044540
20
85.170777
11
89.785160
21
84.351070
0
LINE
8
Слой 1
10
89.785160
20
84.351070
11
89.993334
21
83.682562
0
LINE
8
Слой 1
10
89.993334
20
83.682562
11
89.948900
21
82.850480
0
LINE
8
Слой 1
10
89.948900
20
82.850480
11
89.868100
21
82.352070
0
LINE
8
Слой 1
10
89.868100
20
82.352070
11
89.721120
21
82.230080
0
LINE
8
Слой 1
10
89.721120
20
82.230080
11
89.574130
21
82.010320
0
LINE
8
Слой 1
10
89.574130
20
82.010320
11
89.268114
21
81.647279
0
LINE
8
Слой 1
10
89.268114
20
81.647279
11
88.814430
21
81.397780
0
LINE
8
Слой 1
10
88.814430
20
81.397780
11
88.570500
21
81.288800
0
LINE
8
Слой 1
10
88.570500
20
81.288800
11
88.505200
21
81.183150
0
LINE
8
Слой 1
10
88.505200
20
81.183150
11
87.956790
21
81.192150
0
LINE
8
Слой 1
10
87.956790
20
81.192150
11
87.143970
21
81.324210
0
LINE
8
Слой 1
10
87.143970
20
81.324210
11
87.143900
21
81.323750
0
LINE
8
Слой 1
10
88.608990
20
82.713570
11
88.858850
21
83.080480
0
LINE
8
Слой 1
10
88.858850
20
83.080480
11
88.785350
21
83.478780
0
LINE
8
Слой 1
10
88.785350
20
83.478780
11
88.711850
21
83.877080
0
LINE
8
Слой 1
10
88.711850
20
83.877080
11
88.490700
21
84.114790
0
LINE
8
Слой 1
10
88.490700
20
84.114790
11
88.269550
21
84.352490
0
LINE
8
Слой 1
10
88.269550
20
84.352490
11
87.869200
21
84.352500
0
LINE
8
Слой 1
10
87.869200
20
84.352500
11
87.468800
21
84.352500
0
LINE
8
Слой 1
10
87.468800
20
84.352500
11
87.342910
21
84.117280
0
LINE
8
Слой 1
10
87.342910
20
84.117280
11
87.135860
21
83.522180
0
LINE
8
Слой 1
10
87.135860
20
83.522180
11
87.054660
21
83.162290
0
LINE
8
Слой 1
10
87.054660
20
83.162290
11
87.150760
21
82.909430
0
LINE
8
Слой 1
10
87.150760
20
82.909430
11
87.380510
21
82.504920
0
LINE
8
Слой 1
10
87.380510
20
82.504920
11
87.514120
21
82.353260
0
LINE
8
Слой 1
10
87.514120
20
82.353260
11
87.936700
21
82.350260
0
LINE
8
Слой 1
10
87.936700
20
82.350260
11
88.359280
21
82.347260
0
LINE
8
Слой 1
10
88.359280
20
82.347260
11
88.608990
21
82.713570
0
LINE
8
Слой 1
10
100.227490
20
81.325130
11
99.671708
21
81.712682
0
LINE
8
Слой 1
10
99.671708
20
81.712682
11
99.229268
21
82.368120
0
LINE
8
Слой 1
10
99.229268
20
82.368120
11
98.976568
21
82.866420
0
LINE
8
Слой 1
10
98.976568
20
82.866420
11
98.976700
21
83.279100
0
LINE
8
Слой 1
10
98.976700
20
83.279100
11
98.976700
21
83.691700
0
LINE
8
Слой 1
10
98.976700
20
83.691700
11
99.182510
21
84.156970
0
LINE
8
Слой 1
10
99.182510
20
84.156970
11
99.582211
21
84.781088
0
LINE
8
Слой 1
10
99.582211
20
84.781088
11
100.130639
21
85.213651
0
LINE
8
Слой 1
10
100.130639
20
85.213651
11
100.800624
21
85.439966
0
LINE
8
Слой 1
10
100.800624
20
85.439966
11
101.565000
21
85.445340
0
LINE
8
Слой 1
10
101.565000
20
85.445340
11
102.036690
21
85.380640
0
LINE
8
Слой 1
10
102.036690
20
85.380640
11
102.492660
21
84.945740
0
LINE
8
Слой 1
10
102.492660
20
84.945740
11
102.948630
21
84.510850
0
LINE
8
Слой 1
10
102.948630
20
84.510850
11
103.100770
21
84.141090
0
LINE
8
Слой 1
10
103.100770
20
84.141090
11
103.267350
21
83.692100
0
LINE
8
Слой 1
10
103.267350
20
83.692100
11
103.300050
21
83.533630
0
LINE
8
Слой 1
10
103.300050
20
83.533630
11
103.482440
21
83.929800
0
LINE
8
Слой 1
10
103.482440
20
83.929800
11
103.916065
21
84.750019
0
LINE
8
Слой 1
10
103.916065
20
84.750019
11
104.510610
21
85.251510
0
LINE
8
Слой 1
10
104.510610
20
85.251510
11
104.862830
21
85.418650
0
LINE
8
Слой 1
10
104.862830
20
85.418650
11
105.590990
21
85.434450
0
LINE
8
Слой 1
10
105.590990
20
85.434450
11
106.319130
21
85.450250
0
LINE
8
Слой 1
10
106.319130
20
85.450250
11
106.618180
21
85.253360
0
LINE
8
Слой 1
10
106.618180
20
85.253360
11
106.917240
21
85.056470
0
LINE
8
Слой 1
10
106.917240
20
85.056470
11
107.215540
21
85.232680
0
LINE
8
Слой 1
10
107.215540
20
85.232680
11
107.513840
21
85.408890
0
LINE
8
Слой 1
10
107.513840
20
85.408890
11
108.870930
21
85.408250
0
LINE
8
Слой 1
10
108.870930
20
85.408250
11
110.228030
21
85.407620
0
LINE
8
Слой 1
10
110.228030
20
85.407620
11
110.636870
21
85.294100
0
LINE
8
Слой 1
10
110.636870
20
85.294100
11
111.045710
21
85.180580
0
LINE
8
Слой 1
10
111.045710
20
85.180580
11
111.159820
21
85.294690
0
LINE
8
Слой 1
10
111.159820
20
85.294690
11
111.273930
21
85.408890
0
LINE
8
Слой 1
10
111.273930
20
85.408890
11
112.469000
21
85.408900
0
LINE
8
Слой 1
10
112.469000
20
85.408900
11
113.664000
21
85.408900
0
LINE
8
Слой 1
10
113.664000
20
85.408900
11
114.015580
21
85.178440
0
LINE
8
Слой 1
10
114.015580
20
85.178440
11
114.367150
21
84.947980
0
LINE
8
Слой 1
10
114.367150
20
84.947980
11
114.482330
21
84.518150
0
LINE
8
Слой 1
10
114.482330
20
84.518150
11
114.597490
21
84.088320
0
LINE
8
Слой 1
10
114.597490
20
84.088320
11
114.393380
21
83.870220
0
LINE
8
Слой 1
10
114.393380
20
83.870220
11
114.207237
21
83.576314
0
LINE
8
Слой 1
10
114.207237
20
83.576314
11
114.453380
21
83.233170
0
LINE
8
Слой 1
10
114.453380
20
83.233170
11
114.717490
21
82.805150
0
LINE
8
Слой 1
10
114.717490
20
82.805150
11
114.819820
21
82.662100
0
LINE
8
Слой 1
10
114.819820
20
82.662100
11
114.923000
21
82.662100
0
LINE
8
Слой 1
10
114.923000
20
82.662100
11
114.863900
21
82.477220
0
LINE
8
Слой 1
10
114.863900
20
82.477220
11
114.464287
21
81.715120
0
LINE
8
Слой 1
10
114.464287
20
81.715120
11
113.662480
21
81.396690
0
LINE
8
Слой 1
10
113.662480
20
81.396690
11
113.080820
21
81.275470
0
LINE
8
Слой 1
10
113.080820
20
81.275470
11
112.131130
21
81.308470
0
LINE
8
Слой 1
10
112.131130
20
81.308470
11
111.181430
21
81.341470
0
LINE
8
Слой 1
10
111.181430
20
81.341470
11
111.038940
21
81.639410
0
LINE
8
Слой 1
10
111.038940
20
81.639410
11
110.896440
21
81.937360
0
LINE
8
Слой 1
10
110.896440
20
81.937360
11
110.863640
21
83.012810
0
LINE
8
Слой 1
10
110.863640
20
83.012810
11
110.820140
21
84.167500
0
LINE
8
Слой 1
10
110.820140
20
84.167500
11
110.287440
21
84.246700
0
LINE
8
Слой 1
10
110.287440
20
84.246700
11
109.765000
21
84.246700
0
LINE
8
Слой 1
10
109.765000
20
84.246700
11
109.682500
21
84.114640
0
LINE
8
Слой 1
10
109.682500
20
84.114640
11
109.596300
21
82.800900
0
LINE
8
Слой 1
10
109.596300
20
82.800900
11
109.592300
21
81.619210
0
LINE
8
Слой 1
10
109.592300
20
81.619210
11
109.381740
21
81.417220
0
LINE
8
Слой 1
10
109.381740
20
81.417220
11
109.171180
21
81.215240
0
LINE
8
Слой 1
10
109.171180
20
81.215240
11
108.861670
21
81.302840
0
LINE
8
Слой 1
10
108.861670
20
81.302840
11
108.481990
21
81.503950
0
LINE
8
Слой 1
10
108.481990
20
81.503950
11
108.389290
21
82.846330
0
LINE
8
Слой 1
10
108.389290
20
82.846330
11
108.313690
21
84.160950
0
LINE
8
Слой 1
10
108.313690
20
84.160950
11
107.844330
21
84.246750
0
LINE
8
Слой 1
10
107.844330
20
84.246750
11
107.428000
21
84.246800
0
LINE
8
Слой 1
10
107.428000
20
84.246800
11
107.428000
21
84.352400
0
LINE
8
Слой 1
10
107.428000
20
84.352400
11
107.428000
21
84.458100
0
LINE
8
Слой 1
10
107.428000
20
84.458100
11
107.111000
21
84.458100
0
LINE
8
Слой 1
10
107.111000
20
84.458100
11
106.794000
21
84.458100
0
LINE
8
Слой 1
10
106.794000
20
84.458100
11
106.794000
21
84.348400
0
LINE
8
Слой 1
10
106.794000
20
84.348400
11
106.794000
21
84.238800
0
LINE
8
Слой 1
10
106.794000
20
84.238800
11
105.982390
21
84.257600
0
LINE
8
Слой 1
10
105.982390
20
84.257600
11
105.170800
21
84.276400
0
LINE
8
Слой 1
10
105.170800
20
84.276400
11
104.919820
21
83.971050
0
LINE
8
Слой 1
10
104.919820
20
83.971050
11
104.668840
21
83.665710
0
LINE
8
Слой 1
10
104.668840
20
83.665710
11
104.717340
21
83.193790
0
LINE
8
Слой 1
10
104.717340
20
83.193790
11
104.765840
21
82.721870
0
LINE
8
Слой 1
10
104.765840
20
82.721870
11
105.050610
21
82.476930
0
LINE
8
Слой 1
10
105.050610
20
82.476930
11
105.335370
21
82.231990
0
LINE
8
Слой 1
10
105.335370
20
82.231990
11
106.059670
21
82.300390
0
LINE
8
Слой 1
10
106.059670
20
82.300390
11
106.783970
21
82.368790
0
LINE
8
Слой 1
10
106.783970
20
82.368790
11
106.855770
21
82.082850
0
LINE
8
Слой 1
10
106.855770
20
82.082850
11
106.927570
21
81.796920
0
LINE
8
Слой 1
10
106.927570
20
81.796920
11
106.652260
21
81.521620
0
LINE
8
Слой 1
10
106.652260
20
81.521620
11
106.376960
21
81.246310
0
LINE
8
Слой 1
10
106.376960
20
81.246310
11
105.705180
21
81.203510
0
LINE
8
Слой 1
10
105.705180
20
81.203510
11
105.033410
21
81.160710
0
LINE
8
Слой 1
10
105.033410
20
81.160710
11
104.606410
21
81.378550
0
LINE
8
Слой 1
10
104.606410
20
81.378550
11
103.901940
21
81.926140
0
LINE
8
Слой 1
10
103.901940
20
81.926140
11
103.624480
21
82.255880
0
LINE
8
Слой 1
10
103.624480
20
82.255880
11
103.558580
21
82.668080
0
LINE
8
Слой 1
10
103.558580
20
82.668080
11
103.360740
21
83.260710
0
LINE
8
Слой 1
10
103.360740
20
83.260710
11
103.228790
21
83.441140
0
LINE
8
Слой 1
10
103.228790
20
83.441140
11
103.155490
21
83.210090
0
LINE
8
Слой 1
10
103.155490
20
83.210090
11
103.082190
21
82.979050
0
LINE
8
Слой 1
10
103.082190
20
82.979050
11
102.693130
21
82.970050
0
LINE
8
Слой 1
10
102.693130
20
82.970050
11
101.491510
21
82.962050
0
LINE
8
Слой 1
10
101.491510
20
82.962050
11
100.678920
21
82.963050
0
LINE
8
Слой 1
10
100.678920
20
82.963050
11
100.544120
21
82.800620
0
LINE
8
Слой 1
10
100.544120
20
82.800620
11
100.409310
21
82.638190
0
LINE
8
Слой 1
10
100.409310
20
82.638190
11
100.666960
21
82.429560
0
LINE
8
Слой 1
10
100.666960
20
82.429560
11
100.924610
21
82.220930
0
LINE
8
Слой 1
10
100.924610
20
82.220930
11
101.424900
21
82.274730
0
LINE
8
Слой 1
10
101.424900
20
82.274730
11
102.304200
21
82.465560
0
LINE
8
Слой 1
10
102.304200
20
82.465560
11
102.683210
21
82.602610
0
LINE
8
Слой 1
10
102.683210
20
82.602610
11
102.863400
21
82.489810
0
LINE
8
Слой 1
10
102.863400
20
82.489810
11
103.043600
21
82.377000
0
LINE
8
Слой 1
10
103.043600
20
82.377000
11
103.075000
21
82.118030
0
LINE
8
Слой 1
10
103.075000
20
82.118030
11
103.106400
21
81.859060
0
LINE
8
Слой 1
10
103.106400
20
81.859060
11
102.916510
21
81.696080
0
LINE
8
Слой 1
10
102.916510
20
81.696080
11
102.275510
21
81.358240
0
LINE
8
Слой 1
10
102.275510
20
81.358240
11
101.824370
21
81.183380
0
LINE
8
Слой 1
10
101.824370
20
81.183380
11
101.166220
21
81.192380
0
LINE
8
Слой 1
10
101.166220
20
81.192380
11
100.508070
21
81.201380
0
LINE
8
Слой 1
10
100.508070
20
81.201380
11
100.227120
21
81.326240
0
LINE
8
Слой 1
10
100.227120
20
81.326240
11
100.227490
21
81.325130
0
LINE
8
Слой 1
10
112.993890
20
82.288650
11
113.353140
21
82.417290
0
LINE
8
Слой 1
10
113.353140
20
82.417290
11
113.471230
21
82.535380
0
LINE
8
Слой 1
10
113.471230
20
82.535380
11
113.249380
21
82.757240
0
LINE
8
Слой 1
10
113.249380
20
82.757240
11
113.027520
21
82.979090
0
LINE
8
Слой 1
10
113.027520
20
82.979090
11
112.662000
21
82.979100
0
LINE
8
Слой 1
10
112.662000
20
82.979100
11
112.296000
21
82.979100
0
LINE
8
Слой 1
10
112.296000
20
82.979100
11
112.185630
21
82.772870
0
LINE
8
Слой 1
10
112.185630
20
82.772870
11
112.075260
21
82.566630
0
LINE
8
Слой 1
10
112.075260
20
82.566630
11
112.303560
21
82.353940
0
LINE
8
Слой 1
10
112.303560
20
82.353940
11
112.531860
21
82.141240
0
LINE
8
Слой 1
10
112.531860
20
82.141240
11
112.642580
21
82.209640
0
LINE
8
Слой 1
10
112.642580
20
82.209640
11
112.994460
21
82.288640
0
LINE
8
Слой 1
10
112.994460
20
82.288640
11
112.993890
21
82.288650
0
LINE
8
Слой 1
10
101.799990
20
83.894100
11
101.598080
21
84.242530
0
LINE
8
Слой 1
10
101.598080
20
84.242530
11
101.355740
21
84.468300
0
LINE
8
Слой 1
10
101.355740
20
84.468300
11
101.090590
21
84.403700
0
LINE
8
Слой 1
10
101.090590
20
84.403700
11
100.627730
21
84.145160
0
LINE
8
Слой 1
10
100.627730
20
84.145160
11
100.430040
21
83.951190
0
LINE
8
Слой 1
10
100.430040
20
83.951190
11
100.505040
21
83.829890
0
LINE
8
Слой 1
10
100.505040
20
83.829890
11
100.580040
21
83.708600
0
LINE
8
Слой 1
10
100.580040
20
83.708600
11
101.169830
21
83.740000
0
LINE
8
Слой 1
10
101.169830
20
83.740000
11
101.759630
21
83.771400
0
LINE
8
Слой 1
10
101.759630
20
83.771400
11
101.799990
21
83.894100
0
LINE
8
Слой 1
10
113.053990
20
83.865700
11
113.225318
21
84.127632
0
LINE
8
Слой 1
10
113.225318
20
84.127632
11
112.947800
21
84.327660
0
LINE
8
Слой 1
10
112.947800
20
84.327660
11
112.656720
21
84.429130
0
LINE
8
Слой 1
10
112.656720
20
84.429130
11
112.419570
21
84.341430
0
LINE
8
Слой 1
10
112.419570
20
84.341430
11
112.182410
21
84.253730
0
LINE
8
Слой 1
10
112.182410
20
84.253730
11
112.182000
21
84.056600
0
LINE
8
Слой 1
10
112.182000
20
84.056600
11
112.252400
21
83.789080
0
LINE
8
Слой 1
10
112.252400
20
83.789080
11
112.624020
21
83.727262
0
LINE
8
Слой 1
10
112.624020
20
83.727262
11
113.053540
21
83.865680
0
LINE
8
Слой 1
10
113.053540
20
83.865680
11
113.053990
21
83.865700
0
LINE
8
Слой 1
10
116.014990
20
81.426920
11
115.338550
21
82.128930
0
LINE
8
Слой 1
10
115.338550
20
82.128930
11
115.002540
21
82.599320
0
LINE
8
Слой 1
10
115.002540
20
82.599320
11
115.011540
21
83.185390
0
LINE
8
Слой 1
10
115.011540
20
83.185390
11
115.020540
21
83.771460
0
LINE
8
Слой 1
10
115.020540
20
83.771460
11
115.196960
21
84.190110
0
LINE
8
Слой 1
10
115.196960
20
84.190110
11
115.373390
21
84.608760
0
LINE
8
Слой 1
10
115.373390
20
84.608760
11
115.798230
21
85.008860
0
LINE
8
Слой 1
10
115.798230
20
85.008860
11
116.223060
21
85.408970
0
LINE
8
Слой 1
10
116.223060
20
85.408970
11
116.447710
21
85.423170
0
LINE
8
Слой 1
10
116.447710
20
85.423170
11
117.136190
21
85.429170
0
LINE
8
Слой 1
10
117.136190
20
85.429170
11
117.600020
21
85.421170
0
LINE
8
Слой 1
10
117.600020
20
85.421170
11
117.711960
21
85.309230
0
LINE
8
Слой 1
10
117.711960
20
85.309230
11
118.058126
21
85.200694
0
LINE
8
Слой 1
10
118.058126
20
85.200694
11
118.362690
21
85.303230
0
LINE
8
Слой 1
10
118.362690
20
85.303230
11
118.660450
21
85.408880
0
LINE
8
Слой 1
10
118.660450
20
85.408880
11
118.893000
21
85.408900
0
LINE
8
Слой 1
10
118.893000
20
85.408900
11
119.035480
21
85.180760
0
LINE
8
Слой 1
10
119.035480
20
85.180760
11
119.177950
21
84.952620
0
LINE
8
Слой 1
10
119.177950
20
84.952620
11
119.209550
21
83.515810
0
LINE
8
Слой 1
10
119.209550
20
83.515810
11
119.185050
21
81.785440
0
LINE
8
Слой 1
10
119.185050
20
81.785440
11
119.128950
21
81.491880
0
LINE
8
Слой 1
10
119.128950
20
81.491880
11
118.838500
21
81.341690
0
LINE
8
Слой 1
10
118.838500
20
81.341690
11
118.489650
21
81.249890
0
LINE
8
Слой 1
10
118.489650
20
81.249890
11
118.054930
21
81.343290
0
LINE
8
Слой 1
10
118.054930
20
81.343290
11
117.678590
21
81.378290
0
LINE
8
Слой 1
10
117.678590
20
81.378290
11
117.618290
21
81.280690
0
LINE
8
Слой 1
10
117.618290
20
81.280690
11
117.557990
21
81.183090
0
LINE
8
Слой 1
10
117.557990
20
81.183090
11
116.956760
21
81.189090
0
LINE
8
Слой 1
10
116.956760
20
81.189090
11
116.355520
21
81.195090
0
LINE
8
Слой 1
10
116.355520
20
81.195090
11
116.015090
21
81.426700
0
LINE
8
Слой 1
10
116.015090
20
81.426700
11
116.014990
21
81.426920
0
LINE
8
Слой 1
10
117.697870
20
82.466780
11
117.878200
21
82.559080
0
LINE
8
Слой 1
10
117.878200
20
82.559080
11
117.949200
21
82.937750
0
LINE
8
Слой 1
10
117.949200
20
82.937750
11
118.020200
21
83.316420
0
LINE
8
Слой 1
10
118.020200
20
83.316420
11
117.897270
21
83.726730
0
LINE
8
Слой 1
10
117.897270
20
83.726730
11
117.774330
21
84.137040
0
LINE
8
Слой 1
10
117.774330
20
84.137040
11
117.434610
21
84.226540
0
LINE
8
Слой 1
10
117.434610
20
84.226540
11
116.894991
21
84.253131
0
LINE
8
Слой 1
10
116.894991
20
84.253131
11
116.511620
21
83.926840
0
LINE
8
Слой 1
10
116.511620
20
83.926840
11
116.302020
21
83.632480
0
LINE
8
Слой 1
10
116.302020
20
83.632480
11
116.356320
21
83.173740
0
LINE
8
Слой 1
10
116.356320
20
83.173740
11
116.410720
21
82.715000
0
LINE
8
Слой 1
10
116.410720
20
82.715000
11
116.679930
21
82.476880
0
LINE
8
Слой 1
10
116.679930
20
82.476880
11
116.949140
21
82.238770
0
LINE
8
Слой 1
10
116.949140
20
82.238770
11
117.233300
21
82.306570
0
LINE
8
Слой 1
10
117.233300
20
82.306570
11
117.697790
21
82.466730
0
LINE
8
Слой 1
10
117.697790
20
82.466730
11
117.697870
21
82.466780
0
LINE
8
Слой 1
10
26.806970
20
81.463540
11
26.661977
21
81.638310
0
LINE
8
Слой 1
10
26.661977
20
81.638310
11
26.662000
21
83.318600
0
LINE
8
Слой 1
10
26.662000
20
83.318600
11
26.738400
21
85.205470
0
LINE
8
Слой 1
10
26.738400
20
85.205470
11
26.814800
21
85.412040
0
LINE
8
Слой 1
10
26.814800
20
85.412040
11
27.096012
21
85.518960
0
LINE
8
Слой 1
10
27.096012
20
85.518960
11
27.377222
21
85.625880
0
LINE
8
Слой 1
10
27.377222
20
85.625880
11
27.615489
21
85.469760
0
LINE
8
Слой 1
10
27.615489
20
85.469760
11
27.853756
21
85.313640
0
LINE
8
Слой 1
10
27.853756
20
85.313640
11
27.894456
21
84.886890
0
LINE
8
Слой 1
10
27.894456
20
84.886890
11
27.864506
21
84.269160
0
LINE
8
Слой 1
10
27.864506
20
84.269160
11
27.793866
21
84.078200
0
LINE
8
Слой 1
10
27.793866
20
84.078200
11
27.923912
21
83.835200
0
LINE
8
Слой 1
10
27.923912
20
83.835200
11
28.053957
21
83.592210
0
LINE
8
Слой 1
10
28.053957
20
83.592210
11
28.555215
21
84.104420
0
LINE
8
Слой 1
10
28.555215
20
84.104420
11
29.198063
21
84.886120
0
LINE
8
Слой 1
10
29.198063
20
84.886120
11
29.339652
21
85.155610
0
LINE
8
Слой 1
10
29.339652
20
85.155610
11
29.713782
21
85.357090
0
LINE
8
Слой 1
10
29.713782
20
85.357090
11
30.087911
21
85.558580
0
LINE
8
Слой 1
10
30.087911
20
85.558580
11
30.348365
21
85.313890
0
LINE
8
Слой 1
10
30.348365
20
85.313890
11
30.608821
21
85.069210
0
LINE
8
Слой 1
10
30.608821
20
85.069210
11
30.579011
21
83.372160
0
LINE
8
Слой 1
10
30.579011
20
83.372160
11
30.549201
21
81.675110
0
LINE
8
Слой 1
10
30.549201
20
81.675110
11
30.310649
21
81.481940
0
LINE
8
Слой 1
10
30.310649
20
81.481940
11
29.880178
21
81.288780
0
LINE
8
Слой 1
10
29.880178
20
81.288780
11
29.688300
21
81.288800
0
LINE
8
Слой 1
10
29.688300
20
81.288800
11
29.484252
21
81.548200
0
LINE
8
Слой 1
10
29.484252
20
81.548200
11
29.280205
21
81.807610
0
LINE
8
Слой 1
10
29.280205
20
81.807610
11
29.296825
21
82.453110
0
LINE
8
Слой 1
10
29.296825
20
82.453110
11
29.242565
21
83.142430
0
LINE
8
Слой 1
10
29.242565
20
83.142430
11
28.632142
21
82.642704
0
LINE
8
Слой 1
10
28.632142
20
82.642704
11
28.038195
21
81.825690
0
LINE
8
Слой 1
10
28.038195
20
81.825690
11
27.974855
21
81.626120
0
LINE
8
Слой 1
10
27.974855
20
81.626120
11
27.619423
21
81.457460
0
LINE
8
Слой 1
10
27.619423
20
81.457460
11
27.112207
21
81.298269
0
LINE
8
Слой 1
10
27.112207
20
81.298269
11
26.807040
21
81.463460
0
LINE
8
Слой 1
10
26.807040
20
81.463460
11
26.806970
21
81.463540
0
LINE
8
Слой 1
10
31.505220
20
81.362030
11
31.277452
21
81.406530
0
LINE
8
Слой 1
10
31.277452
20
81.406530
11
31.214622
21
81.656860
0
LINE
8
Слой 1
10
31.214622
20
81.656860
11
31.145462
21
83.455570
0
LINE
8
Слой 1
10
31.145462
20
83.455570
11
31.139162
21
85.003950
0
LINE
8
Слой 1
10
31.139162
20
85.003950
11
31.306468
21
85.259290
0
LINE
8
Слой 1
10
31.306468
20
85.259290
11
31.473774
21
85.514630
0
LINE
8
Слой 1
10
31.473774
20
85.514630
11
31.717100
21
85.514600
0
LINE
8
Слой 1
10
31.717100
20
85.514600
11
31.960300
21
85.514600
0
LINE
8
Слой 1
10
31.960300
20
85.514600
11
32.190008
21
85.270090
0
LINE
8
Слой 1
10
32.190008
20
85.270090
11
32.419715
21
85.025580
0
LINE
8
Слой 1
10
32.419715
20
85.025580
11
32.419700
21
84.587100
0
LINE
8
Слой 1
10
32.419700
20
84.587100
11
32.419700
21
84.148700
0
LINE
8
Слой 1
10
32.419700
20
84.148700
11
32.616961
21
84.043130
0
LINE
8
Слой 1
10
32.616961
20
84.043130
11
32.814223
21
83.937560
0
LINE
8
Слой 1
10
32.814223
20
83.937560
11
33.201327
21
83.972260
0
LINE
8
Слой 1
10
33.201327
20
83.972260
11
33.634810
21
84.053360
0
LINE
8
Слой 1
10
33.634810
20
84.053360
11
33.751093
21
84.673670
0
LINE
8
Слой 1
10
33.751093
20
84.673670
11
33.820993
21
85.247600
0
LINE
8
Слой 1
10
33.820993
20
85.247600
11
33.991924
21
85.377750
0
LINE
8
Слой 1
10
33.991924
20
85.377750
11
34.392890
21
85.511250
0
LINE
8
Слой 1
10
34.392890
20
85.511250
11
34.622926
21
85.514250
0
LINE
8
Слой 1
10
34.622926
20
85.514250
11
34.837583
21
85.241360
0
LINE
8
Слой 1
10
34.837583
20
85.241360
11
35.052240
21
84.968470
0
LINE
8
Слой 1
10
35.052240
20
84.968470
11
35.049940
21
83.592890
0
LINE
8
Слой 1
10
35.049940
20
83.592890
11
35.098760
21
82.166140
0
LINE
8
Слой 1
10
35.098760
20
82.166140
11
35.486619
21
82.367541
0
LINE
8
Слой 1
10
35.486619
20
82.367541
11
35.860425
21
82.790110
0
LINE
8
Слой 1
10
35.860425
20
82.790110
11
36.135644
21
83.184410
0
LINE
8
Слой 1
10
36.135644
20
83.184410
11
36.348722
21
83.382920
0
LINE
8
Слой 1
10
36.348722
20
83.382920
11
36.282642
21
83.591110
0
LINE
8
Слой 1
10
36.282642
20
83.591110
11
35.507963
21
84.457790
0
LINE
8
Слой 1
10
35.507963
20
84.457790
11
35.291202
21
84.677880
0
LINE
8
Слой 1
10
35.291202
20
84.677880
11
35.153756
21
84.897970
0
LINE
8
Слой 1
10
35.153756
20
84.897970
11
35.319950
21
85.151610
0
LINE
8
Слой 1
10
35.319950
20
85.151610
11
35.486142
21
85.405250
0
LINE
8
Слой 1
10
35.486142
20
85.405250
11
35.750628
21
85.471650
0
LINE
8
Слой 1
10
35.750628
20
85.471650
11
36.015114
21
85.538050
0
LINE
8
Слой 1
10
36.015114
20
85.538050
11
36.468709
21
85.130000
0
LINE
8
Слой 1
10
36.468709
20
85.130000
11
37.211192
21
84.480890
0
LINE
8
Слой 1
10
37.211192
20
84.480890
11
37.500072
21
84.239830
0
LINE
8
Слой 1
10
37.500072
20
84.239830
11
37.601052
21
84.302230
0
LINE
8
Слой 1
10
37.601052
20
84.302230
11
37.702042
21
84.724050
0
LINE
8
Слой 1
10
37.702042
20
84.724050
11
37.702100
21
85.083400
0
LINE
8
Слой 1
10
37.702100
20
85.083400
11
37.933310
21
85.298810
0
LINE
8
Слой 1
10
37.933310
20
85.298810
11
38.164520
21
85.514220
0
LINE
8
Слой 1
10
38.164520
20
85.514220
11
38.396600
21
85.514200
0
LINE
8
Слой 1
10
38.396600
20
85.514200
11
38.628600
21
85.514200
0
LINE
8
Слой 1
10
38.628600
20
85.514200
11
38.799220
21
85.253800
0
LINE
8
Слой 1
10
38.799220
20
85.253800
11
38.971460
21
84.751980
0
LINE
8
Слой 1
10
38.971460
20
84.751980
11
39.075250
21
84.352090
0
LINE
8
Слой 1
10
39.075250
20
84.352090
11
39.177420
21
84.193620
0
LINE
8
Слой 1
10
39.177420
20
84.193620
11
39.708420
21
84.735820
0
LINE
8
Слой 1
10
39.708420
20
84.735820
11
40.570810
21
85.415290
0
LINE
8
Слой 1
10
40.570810
20
85.415290
11
40.902200
21
85.552560
0
LINE
8
Слой 1
10
40.902200
20
85.552560
11
41.150740
21
85.263610
0
LINE
8
Слой 1
10
41.150740
20
85.263610
11
41.399280
21
84.974670
0
LINE
8
Слой 1
10
41.399280
20
84.974670
11
41.243220
21
84.672890
0
LINE
8
Слой 1
10
41.243220
20
84.672890
11
40.703610
21
84.054950
0
LINE
8
Слой 1
10
40.703610
20
84.054950
11
40.320060
21
83.738790
0
LINE
8
Слой 1
10
40.320060
20
83.738790
11
40.447160
21
83.353680
0
LINE
8
Слой 1
10
40.447160
20
83.353680
11
40.828510
21
82.714320
0
LINE
8
Слой 1
10
40.828510
20
82.714320
11
41.082760
21
82.362550
0
LINE
8
Слой 1
10
41.082760
20
82.362550
11
41.241230
21
82.133520
0
LINE
8
Слой 1
10
41.241230
20
82.133520
11
41.391376
21
81.808008
0
LINE
8
Слой 1
10
41.391376
20
81.808008
11
41.192630
21
81.450680
0
LINE
8
Слой 1
10
41.192630
20
81.450680
11
40.985600
21
81.263310
0
LINE
8
Слой 1
10
40.985600
20
81.263310
11
40.695890
21
81.336010
0
LINE
8
Слой 1
10
40.695890
20
81.336010
11
40.406190
21
81.408710
0
LINE
8
Слой 1
10
40.406190
20
81.408710
11
39.750810
21
82.080420
0
LINE
8
Слой 1
10
39.750810
20
82.080420
11
39.032620
21
82.689330
0
LINE
8
Слой 1
10
39.032620
20
82.689330
11
38.969820
21
82.279340
0
LINE
8
Слой 1
10
38.969820
20
82.279340
11
38.852170
21
81.686844
0
LINE
8
Слой 1
10
38.852170
20
81.686844
11
38.577350
21
81.347060
0
LINE
8
Слой 1
10
38.577350
20
81.347060
11
38.176580
21
81.351060
0
LINE
8
Слой 1
10
38.176580
20
81.351060
11
37.928350
21
81.413360
0
LINE
8
Слой 1
10
37.928350
20
81.413360
11
37.771720
21
81.747140
0
LINE
8
Слой 1
10
37.771720
20
81.747140
11
37.615080
21
82.080920
0
LINE
8
Слой 1
10
37.615080
20
82.080920
11
37.656480
21
82.424270
0
LINE
8
Слой 1
10
37.656480
20
82.424270
11
37.697880
21
82.767620
0
LINE
8
Слой 1
10
37.697880
20
82.767620
11
37.590700
21
82.767600
0
LINE
8
Слой 1
10
37.590700
20
82.767600
11
36.852518
21
82.093080
0
LINE
8
Слой 1
10
36.852518
20
82.093080
11
36.221537
21
81.418560
0
LINE
8
Слой 1
10
36.221537
20
81.418560
11
35.938428
21
81.364460
0
LINE
8
Слой 1
10
35.938428
20
81.364460
11
35.509011
21
81.375124
0
LINE
8
Слой 1
10
35.509011
20
81.375124
11
35.282647
21
81.633070
0
LINE
8
Слой 1
10
35.282647
20
81.633070
11
35.205167
21
81.842530
0
LINE
8
Слой 1
10
35.205167
20
81.842530
11
34.906304
21
81.565550
0
LINE
8
Слой 1
10
34.906304
20
81.565550
11
34.411575
21
81.288570
0
LINE
8
Слой 1
10
34.411575
20
81.288570
11
34.010765
21
81.499766
0
LINE
8
Слой 1
10
34.010765
20
81.499766
11
33.785595
21
81.896040
0
LINE
8
Слой 1
10
33.785595
20
81.896040
11
33.630207
21
82.965750
0
LINE
8
Слой 1
10
33.630207
20
82.965750
11
33.095527
21
83.005050
0
LINE
8
Слой 1
10
33.095527
20
83.005050
11
32.607498
21
82.998050
0
LINE
8
Слой 1
10
32.607498
20
82.998050
11
32.494664
21
82.885220
0
LINE
8
Слой 1
10
32.494664
20
82.885220
11
32.381831
21
82.772380
0
LINE
8
Слой 1
10
32.381831
20
82.772380
11
32.360061
21
82.221060
0
LINE
8
Слой 1
10
32.360061
20
82.221060
11
32.338291
21
81.669730
0
LINE
8
Слой 1
10
32.338291
20
81.669730
11
32.103188
21
81.479360
0
LINE
8
Слой 1
10
32.103188
20
81.479360
11
31.800553
21
81.303370
0
LINE
8
Слой 1
10
31.800553
20
81.303370
11
31.505254
21
81.362270
0
LINE
8
Слой 1
10
31.505254
20
81.362270
11
31.505220
21
81.362030
0
LINE
8
Слой 1
10
46.245520
20
81.579300
11
45.980920
21
81.869830
0
LINE
8
Слой 1
10
45.980920
20
81.869830
11
45.987920
21
83.367480
0
LINE
8
Слой 1
10
45.987920
20
83.367480
11
45.994920
21
84.865130
0
LINE
8
Слой 1
10
45.994920
20
84.865130
11
46.217410
21
85.163460
0
LINE
8
Слой 1
10
46.217410
20
85.163460
11
46.611110
21
85.495470
0
LINE
8
Слой 1
10
46.611110
20
85.495470
11
46.782330
21
85.529170
0
LINE
8
Слой 1
10
46.782330
20
85.529170
11
47.048910
21
85.262590
0
LINE
8
Слой 1
10
47.048910
20
85.262590
11
47.315490
21
84.996010
0
LINE
8
Слой 1
10
47.315490
20
84.996010
11
47.315500
21
84.566000
0
LINE
8
Слой 1
10
47.315500
20
84.566000
11
47.315500
21
84.136000
0
LINE
8
Слой 1
10
47.315500
20
84.136000
11
47.600880
21
84.027510
0
LINE
8
Слой 1
10
47.600880
20
84.027510
11
47.886250
21
83.919010
0
LINE
8
Слой 1
10
47.886250
20
83.919010
11
48.261160
21
84.007710
0
LINE
8
Слой 1
10
48.261160
20
84.007710
11
48.636080
21
84.096410
0
LINE
8
Слой 1
10
48.636080
20
84.096410
11
48.646680
21
84.418290
0
LINE
8
Слой 1
10
48.646680
20
84.418290
11
48.723080
21
85.002410
0
LINE
8
Слой 1
10
48.723080
20
85.002410
11
48.788880
21
85.264650
0
LINE
8
Слой 1
10
48.788880
20
85.264650
11
49.064140
21
85.411980
0
LINE
8
Слой 1
10
49.064140
20
85.411980
11
49.339430
21
85.559300
0
LINE
8
Слой 1
10
49.339430
20
85.559300
11
49.612130
21
85.404940
0
LINE
8
Слой 1
10
49.612130
20
85.404940
11
49.884840
21
85.250590
0
LINE
8
Слой 1
10
49.884840
20
85.250590
11
49.927640
21
85.039300
0
LINE
8
Слой 1
10
49.927640
20
85.039300
11
49.973140
21
83.279290
0
LINE
8
Слой 1
10
49.973140
20
83.279290
11
49.976140
21
81.730570
0
LINE
8
Слой 1
10
49.976140
20
81.730570
11
49.755290
21
81.509720
0
LINE
8
Слой 1
10
49.755290
20
81.509720
11
49.534390
21
81.288860
0
LINE
8
Слой 1
10
49.534390
20
81.288860
11
49.282400
21
81.288800
0
LINE
8
Слой 1
10
49.282400
20
81.288800
11
49.030500
21
81.288800
0
LINE
8
Слой 1
10
49.030500
20
81.288800
11
48.869260
21
81.534880
0
LINE
8
Слой 1
10
48.869260
20
81.534880
11
48.708020
21
81.780970
0
LINE
8
Слой 1
10
48.708020
20
81.780970
11
48.680020
21
82.247990
0
LINE
8
Слой 1
10
48.680020
20
82.247990
11
48.552060
21
82.847080
0
LINE
8
Слой 1
10
48.552060
20
82.847080
11
48.452060
21
82.979140
0
LINE
8
Слой 1
10
48.452060
20
82.979140
11
48.002500
21
82.979200
0
LINE
8
Слой 1
10
48.002500
20
82.979200
11
47.553000
21
82.979200
0
LINE
8
Слой 1
10
47.553000
20
82.979200
11
47.415840
21
82.813940
0
LINE
8
Слой 1
10
47.415840
20
82.813940
11
47.278690
21
82.648680
0
LINE
8
Слой 1
10
47.278690
20
82.648680
11
47.301690
21
82.143880
0
LINE
8
Слой 1
10
47.301690
20
82.143880
11
47.324690
21
81.639080
0
LINE
8
Слой 1
10
47.324690
20
81.639080
11
47.166380
21
81.507700
0
LINE
8
Слой 1
10
47.166380
20
81.507700
11
47.008080
21
81.376320
0
LINE
8
Слой 1
10
47.008080
20
81.376320
11
46.897810
21
81.444420
0
LINE
8
Слой 1
10
46.897810
20
81.444420
11
46.787530
21
81.512620
0
LINE
8
Слой 1
10
46.787530
20
81.512620
11
46.787500
21
81.400700
0
LINE
8
Слой 1
10
46.787500
20
81.400700
11
46.616811
21
81.302801
0
LINE
8
Слой 1
10
46.616811
20
81.302801
11
46.245490
21
81.579340
0
LINE
8
Слой 1
10
46.245490
20
81.579340
11
46.245520
21
81.579300
0
LINE
8
Слой 1
10
59.921720
20
81.362330
11
59.570310
21
81.553360
0
LINE
8
Слой 1
10
59.570310
20
81.553360
11
59.448940
21
81.699610
0
LINE
8
Слой 1
10
59.448940
20
81.699610
11
59.461940
21
82.946820
0
LINE
8
Слой 1
10
59.461940
20
82.946820
11
59.465940
21
84.605870
0
LINE
8
Слой 1
10
59.465940
20
84.605870
11
59.456940
21
85.017700
0
LINE
8
Слой 1
10
59.456940
20
85.017700
11
59.690350
21
85.266160
0
LINE
8
Слой 1
10
59.690350
20
85.266160
11
59.923760
21
85.514620
0
LINE
8
Слой 1
10
59.923760
20
85.514620
11
60.121500
21
85.514600
0
LINE
8
Слой 1
10
60.121500
20
85.514600
11
60.319100
21
85.514600
0
LINE
8
Слой 1
10
60.319100
20
85.514600
11
60.578410
21
85.255280
0
LINE
8
Слой 1
10
60.578410
20
85.255280
11
60.837720
21
84.995970
0
LINE
8
Слой 1
10
60.837720
20
84.995970
11
60.837800
21
84.574800
0
LINE
8
Слой 1
10
60.837800
20
84.574800
11
60.837800
21
84.153700
0
LINE
8
Слой 1
10
60.837800
20
84.153700
11
60.938440
21
84.091500
0
LINE
8
Слой 1
10
60.938440
20
84.091500
11
61.460210
21
83.987400
0
LINE
8
Слой 1
10
61.460210
20
83.987400
11
61.881320
21
83.945500
0
LINE
8
Слой 1
10
61.881320
20
83.945500
11
61.987030
21
84.072880
0
LINE
8
Слой 1
10
61.987030
20
84.072880
11
62.087510
21
84.514090
0
LINE
8
Слой 1
10
62.087510
20
84.514090
11
62.195820
21
85.115490
0
LINE
8
Слой 1
10
62.195820
20
85.115490
11
62.309380
21
85.403070
0
LINE
8
Слой 1
10
62.309380
20
85.403070
11
62.578590
21
85.470670
0
LINE
8
Слой 1
10
62.578590
20
85.470670
11
62.847820
21
85.538270
0
LINE
8
Слой 1
10
62.847820
20
85.538270
11
63.004920
21
85.407890
0
LINE
8
Слой 1
10
63.004920
20
85.407890
11
63.162010
21
85.131980
0
LINE
8
Слой 1
10
63.162010
20
85.131980
11
63.267080
21
84.986450
0
LINE
8
Слой 1
10
63.267080
20
84.986450
11
63.372100
21
84.986400
0
LINE
8
Слой 1
10
63.372100
20
84.986400
11
63.341500
21
83.335670
0
LINE
8
Слой 1
10
63.341500
20
83.335670
11
63.310900
21
81.684950
0
LINE
8
Слой 1
10
63.310900
20
81.684950
11
63.066290
21
81.486870
0
LINE
8
Слой 1
10
63.066290
20
81.486870
11
62.689301
21
81.299814
0
LINE
8
Слой 1
10
62.689301
20
81.299814
11
62.320450
21
81.475870
0
LINE
8
Слой 1
10
62.320450
20
81.475870
11
62.089350
21
81.663000
0
LINE
8
Слой 1
10
62.089350
20
81.663000
11
62.062050
21
82.197290
0
LINE
8
Слой 1
10
62.062050
20
82.197290
11
61.958270
21
82.855320
0
LINE
8
Слой 1
10
61.958270
20
82.855320
11
61.881870
21
82.979070
0
LINE
8
Слой 1
10
61.881870
20
82.979070
11
61.491930
21
82.977070
0
LINE
8
Слой 1
10
61.491930
20
82.977070
11
60.961400
21
82.886270
0
LINE
8
Слой 1
10
60.961400
20
82.886270
11
60.820790
21
82.797170
0
LINE
8
Слой 1
10
60.820790
20
82.797170
11
60.815790
21
82.197450
0
LINE
8
Слой 1
10
60.815790
20
82.197450
11
60.810790
21
81.597730
0
LINE
8
Слой 1
10
60.810790
20
81.597730
11
60.589910
21
81.443030
0
LINE
8
Слой 1
10
60.589910
20
81.443030
11
60.325701
21
81.313732
0
LINE
8
Слой 1
10
60.325701
20
81.313732
11
59.921910
21
81.361930
0
LINE
8
Слой 1
10
59.921910
20
81.361930
11
59.921720
21
81.362330
0
LINE
8
Слой 1
10
68.600400
20
81.436230
11
68.392140
21
81.588380
0
LINE
8
Слой 1
10
68.392140
20
81.588380
11
68.366240
21
83.334540
0
LINE
8
Слой 1
10
68.366240
20
83.334540
11
68.340340
21
85.080710
0
LINE
8
Слой 1
10
68.340340
20
85.080710
11
68.574660
21
85.244820
0
LINE
8
Слой 1
10
68.574660
20
85.244820
11
68.808960
21
85.408940
0
LINE
8
Слой 1
10
68.808960
20
85.408940
11
69.657030
21
85.407940
0
LINE
8
Слой 1
10
69.657030
20
85.407940
11
70.733030
21
85.345340
0
LINE
8
Слой 1
10
70.733030
20
85.345340
11
70.960980
21
85.284240
0
LINE
8
Слой 1
10
70.960980
20
85.284240
11
71.007780
21
85.105180
0
LINE
8
Слой 1
10
71.007780
20
85.105180
11
70.972980
21
84.705590
0
LINE
8
Слой 1
10
70.972980
20
84.705590
11
70.891380
21
84.485060
0
LINE
8
Слой 1
10
70.891380
20
84.485060
11
70.573340
21
84.374190
0
LINE
8
Слой 1
10
70.573340
20
84.374190
11
70.063230
21
84.309490
0
LINE
8
Слой 1
10
70.063230
20
84.309490
11
69.731260
21
84.263990
0
LINE
8
Слой 1
10
69.731260
20
84.263990
11
69.591370
21
84.172290
0
LINE
8
Слой 1
10
69.591370
20
84.172290
11
69.592370
21
83.179730
0
LINE
8
Слой 1
10
69.592370
20
83.179730
11
69.490490
21
81.791000
0
LINE
8
Слой 1
10
69.490490
20
81.791000
11
69.387690
21
81.394820
0
LINE
8
Слой 1
10
69.387690
20
81.394820
11
69.242000
21
81.394800
0
LINE
8
Слой 1
10
69.242000
20
81.394800
11
68.952520
21
81.339700
0
LINE
8
Слой 1
10
68.952520
20
81.339700
11
68.808790
21
81.284600
0
LINE
8
Слой 1
10
68.808790
20
81.284600
11
68.600530
21
81.436750
0
LINE
8
Слой 1
10
68.600530
20
81.436750
11
68.600400
21
81.436230
0
LINE
8
Слой 1
10
79.386900
20
81.454730
11
79.220890
21
81.620740
0
LINE
8
Слой 1
10
79.220890
20
81.620740
11
79.210890
21
81.956550
0
LINE
8
Слой 1
10
79.210890
20
81.956550
11
79.178690
21
83.164390
0
LINE
8
Слой 1
10
79.178690
20
83.164390
11
79.156490
21
84.036420
0
LINE
8
Слой 1
10
79.156490
20
84.036420
11
79.054620
21
84.138300
0
LINE
8
Слой 1
10
79.054620
20
84.138300
11
78.532130
21
84.306900
0
LINE
8
Слой 1
10
78.532130
20
84.306900
11
77.920670
21
84.475590
0
LINE
8
Слой 1
10
77.920670
20
84.475590
11
77.729830
21
84.577560
0
LINE
8
Слой 1
10
77.729830
20
84.577560
11
77.762230
21
84.966820
0
LINE
8
Слой 1
10
77.762230
20
84.966820
11
77.794630
21
85.356080
0
LINE
8
Слой 1
10
77.794630
20
85.356080
11
79.854730
21
85.370980
0
LINE
8
Слой 1
10
79.854730
20
85.370980
11
82.652510
21
85.457680
0
LINE
8
Слой 1
10
82.652510
20
85.457680
11
83.390190
21
85.529580
0
LINE
8
Слой 1
10
83.390190
20
85.529580
11
83.999280
21
85.458880
0
LINE
8
Слой 1
10
83.999280
20
85.458880
11
84.608360
21
85.388180
0
LINE
8
Слой 1
10
84.608360
20
85.388180
11
84.978330
21
85.018210
0
LINE
8
Слой 1
10
84.978330
20
85.018210
11
85.348320
21
84.648230
0
LINE
8
Слой 1
10
85.348320
20
84.648230
11
85.348300
21
84.356100
0
LINE
8
Слой 1
10
85.348300
20
84.356100
11
85.348300
21
84.064000
0
LINE
8
Слой 1
10
85.348300
20
84.064000
11
85.137000
21
83.795380
0
LINE
8
Слой 1
10
85.137000
20
83.795380
11
84.936935
21
83.480099
0
LINE
8
Слой 1
10
84.936935
20
83.480099
11
85.067800
21
83.401630
0
LINE
8
Слой 1
10
85.067800
20
83.401630
11
85.398760
21
83.192920
0
LINE
8
Слой 1
10
85.398760
20
83.192920
11
85.587640
21
82.984220
0
LINE
8
Слой 1
10
85.587640
20
82.984220
11
85.533240
21
82.501940
0
LINE
8
Слой 1
10
85.533240
20
82.501940
11
85.478840
21
82.019650
0
LINE
8
Слой 1
10
85.478840
20
82.019650
11
85.295100
21
81.816630
0
LINE
8
Слой 1
10
85.295100
20
81.816630
11
84.727970
21
81.486560
0
LINE
8
Слой 1
10
84.727970
20
81.486560
11
84.344570
21
81.359520
0
LINE
8
Слой 1
10
84.344570
20
81.359520
11
83.222210
21
81.366520
0
LINE
8
Слой 1
10
83.222210
20
81.366520
11
82.099850
21
81.373520
0
LINE
8
Слой 1
10
82.099850
20
81.373520
11
81.886270
21
81.487820
0
LINE
8
Слой 1
10
81.886270
20
81.487820
11
81.672710
21
81.602120
0
LINE
8
Слой 1
10
81.672710
20
81.602120
11
81.661910
21
82.892940
0
LINE
8
Слой 1
10
81.661910
20
82.892940
11
81.571310
21
84.263520
0
LINE
8
Слой 1
10
81.571310
20
84.263520
11
81.491510
21
84.343320
0
LINE
8
Слой 1
10
81.491510
20
84.343320
11
80.963540
21
84.268120
0
LINE
8
Слой 1
10
80.963540
20
84.268120
11
80.435580
21
84.192920
0
LINE
8
Слой 1
10
80.435580
20
84.192920
11
80.382780
21
82.890890
0
LINE
8
Слой 1
10
80.382780
20
82.890890
11
80.329980
21
81.588860
0
LINE
8
Слой 1
10
80.329980
20
81.588860
11
80.124910
21
81.439250
0
LINE
8
Слой 1
10
80.124910
20
81.439250
11
79.732586
21
81.296891
0
LINE
8
Слой 1
10
79.732586
20
81.296891
11
79.386710
21
81.455650
0
LINE
8
Слой 1
10
79.386710
20
81.455650
11
79.386900
21
81.454730
0
LINE
8
Слой 1
10
83.915260
20
82.342560
11
84.186250
21
82.445590
0
LINE
8
Слой 1
10
84.186250
20
82.445590
11
84.186200
21
82.656500
0
LINE
8
Слой 1
10
84.186200
20
82.656500
11
84.186200
21
82.867300
0
LINE
8
Слой 1
10
84.186200
20
82.867300
11
83.848950
21
82.954700
0
LINE
8
Слой 1
10
83.848950
20
82.954700
11
83.215080
21
82.998500
0
LINE
8
Слой 1
10
83.215080
20
82.998500
11
82.918450
21
82.955000
0
LINE
8
Слой 1
10
82.918450
20
82.955000
11
82.918500
21
82.699500
0
LINE
8
Слой 1
10
82.918500
20
82.699500
11
82.918500
21
82.444000
0
LINE
8
Слой 1
10
82.918500
20
82.444000
11
83.156200
21
82.348400
0
LINE
8
Слой 1
10
83.156200
20
82.348400
11
83.533832
21
82.251901
0
LINE
8
Слой 1
10
83.533832
20
82.251901
11
83.915260
21
82.342400
0
LINE
8
Слой 1
10
83.915260
20
82.342400
11
83.915260
21
82.342560
0
LINE
8
Слой 1
10
83.888060
20
83.906330
11
83.995980
21
84.014240
0
LINE
8
Слой 1
10
83.995980
20
84.014240
11
83.923780
21
84.241810
0
LINE
8
Слой 1
10
83.923780
20
84.241810
11
83.851580
21
84.469370
0
LINE
8
Слой 1
10
83.851580
20
84.469370
11
83.411500
21
84.437370
0
LINE
8
Слой 1
10
83.411500
20
84.437370
11
82.971410
21
84.405370
0
LINE
8
Слой 1
10
82.971410
20
84.405370
11
82.935710
21
84.153200
0
LINE
8
Слой 1
10
82.935710
20
84.153200
11
82.900010
21
83.901040
0
LINE
8
Слой 1
10
82.900010
20
83.901040
11
83.039560
21
83.814740
0
LINE
8
Слой 1
10
83.039560
20
83.814740
11
83.476054
21
83.766239
0
LINE
8
Слой 1
10
83.476054
20
83.766239
11
83.888030
21
83.906340
0
LINE
8
Слой 1
10
83.888030
20
83.906340
11
83.888060
21
83.906330
0
LINE
8
Слой 1
10
97.566860
20
81.481910
11
97.392010
21
81.675110
0
LINE
8
Слой 1
10
97.392010
20
81.675110
11
97.392000
21
82.003900
0
LINE
8
Слой 1
10
97.392000
20
82.003900
11
97.273972
21
82.382389
0
LINE
8
Слой 1
10
97.273972
20
82.382389
11
96.575880
21
82.517270
0
LINE
8
Слой 1
10
96.575880
20
82.517270
11
95.953070
21
82.582370
0
LINE
8
Слой 1
10
95.953070
20
82.582370
11
95.546670
21
82.859940
0
LINE
8
Слой 1
10
95.546670
20
82.859940
11
95.140250
21
83.137510
0
LINE
8
Слой 1
10
95.140250
20
83.137510
11
95.012900
21
83.507720
0
LINE
8
Слой 1
10
95.012900
20
83.507720
11
94.885540
21
83.877920
0
LINE
8
Слой 1
10
94.885540
20
83.877920
11
94.913840
21
84.488470
0
LINE
8
Слой 1
10
94.913840
20
84.488470
11
94.942140
21
85.099030
0
LINE
8
Слой 1
10
94.942140
20
85.099030
11
95.070720
21
85.253960
0
LINE
8
Слой 1
10
95.070720
20
85.253960
11
95.199310
21
85.408900
0
LINE
8
Слой 1
10
95.199310
20
85.408900
11
95.544100
21
85.408900
0
LINE
8
Слой 1
10
95.544100
20
85.408900
11
95.888900
21
85.408900
0
LINE
8
Слой 1
10
95.888900
20
85.408900
11
96.050190
21
85.065550
0
LINE
8
Слой 1
10
96.050190
20
85.065550
11
96.211470
21
84.722200
0
LINE
8
Слой 1
10
96.211470
20
84.722200
11
96.210470
21
84.303860
0
LINE
8
Слой 1
10
96.210470
20
84.303860
11
96.209470
21
83.885520
0
LINE
8
Слой 1
10
96.209470
20
83.885520
11
96.443030
21
83.696400
0
LINE
8
Слой 1
10
96.443030
20
83.696400
11
96.925280
21
83.507270
0
LINE
8
Слой 1
10
96.925280
20
83.507270
11
97.174000
21
83.507300
0
LINE
8
Слой 1
10
97.174000
20
83.507300
11
97.283370
21
83.711650
0
LINE
8
Слой 1
10
97.283370
20
83.711650
11
97.392730
21
84.427660
0
LINE
8
Слой 1
10
97.392730
20
84.427660
11
97.392700
21
84.939300
0
LINE
8
Слой 1
10
97.392700
20
84.939300
11
97.557160
21
85.174100
0
LINE
8
Слой 1
10
97.557160
20
85.174100
11
97.721620
21
85.408900
0
LINE
8
Слой 1
10
97.721620
20
85.408900
11
97.963400
21
85.408900
0
LINE
8
Слой 1
10
97.963400
20
85.408900
11
98.205100
21
85.408900
0
LINE
8
Слой 1
10
98.205100
20
85.408900
11
98.390680
21
85.203840
0
LINE
8
Слой 1
10
98.390680
20
85.203840
11
98.576260
21
84.998770
0
LINE
8
Слой 1
10
98.576260
20
84.998770
11
98.579260
21
84.015320
0
LINE
8
Слой 1
10
98.579260
20
84.015320
11
98.568560
21
82.371580
0
LINE
8
Слой 1
10
98.568560
20
82.371580
11
98.554360
21
81.711290
0
LINE
8
Слой 1
10
98.554360
20
81.711290
11
98.343070
21
81.500000
0
LINE
8
Слой 1
10
98.343070
20
81.500000
11
97.941818
21
81.297859
0
LINE
8
Слой 1
10
97.941818
20
81.297859
11
97.567100
21
81.481900
0
LINE
8
Слой 1
10
97.567100
20
81.481900
11
97.566860
21
81.481910
0
LINE
8
Слой 1
10
82.917500
20
93.963700
11
82.220016
21
94.234735
0
LINE
8
Слой 1
10
82.220016
20
94.234735
11
81.619710
21
94.690930
0
LINE
8
Слой 1
10
81.619710
20
94.690930
11
81.033450
21
95.325328
0
LINE
8
Слой 1
10
81.033450
20
95.325328
11
80.758080
21
95.949150
0
LINE
8
Слой 1
10
80.758080
20
95.949150
11
80.575900
21
96.505860
0
LINE
8
Слой 1
10
80.575900
20
96.505860
11
80.578900
21
99.177830
0
LINE
8
Слой 1
10
80.578900
20
99.177830
11
80.600600
21
101.948970
0
LINE
8
Слой 1
10
80.600600
20
101.948970
11
80.597600
21
102.153790
0
LINE
8
Слой 1
10
80.597600
20
102.153790
11
80.550400
21
103.421540
0
LINE
8
Слой 1
10
80.550400
20
103.421540
11
80.506900
21
104.926990
0
LINE
8
Слой 1
10
80.506900
20
104.926990
11
80.488700
21
105.270340
0
LINE
8
Слой 1
10
80.488700
20
105.270340
11
74.790100
21
105.270000
0
LINE
8
Слой 1
10
74.790100
20
105.270000
11
69.091400
21
105.270000
0
LINE
8
Слой 1
10
69.091400
20
105.270000
11
69.034100
21
105.177400
0
LINE
8
Слой 1
10
69.034100
20
105.177400
11
68.968300
21
100.977980
0
LINE
8
Слой 1
10
68.968300
20
100.977980
11
68.959300
21
96.871190
0
LINE
8
Слой 1
10
68.959300
20
96.871190
11
68.853900
21
96.395780
0
LINE
8
Слой 1
10
68.853900
20
96.395780
11
68.689170
21
95.622870
0
LINE
8
Слой 1
10
68.689170
20
95.622870
11
68.629870
21
95.325360
0
LINE
8
Слой 1
10
68.629870
20
95.325360
11
68.008130
21
94.807940
0
LINE
8
Слой 1
10
68.008130
20
94.807940
11
67.386380
21
94.290520
0
LINE
8
Слой 1
10
67.386380
20
94.290520
11
66.839870
21
94.128220
0
LINE
8
Слой 1
10
66.839870
20
94.128220
11
65.976460
21
93.974044
0
LINE
8
Слой 1
10
65.976460
20
93.974044
11
65.091870
21
94.084520
0
LINE
8
Слой 1
10
65.091870
20
94.084520
11
64.225884
21
94.396494
0
LINE
8
Слой 1
10
64.225884
20
94.396494
11
63.555130
21
94.951250
0
LINE
8
Слой 1
10
63.555130
20
94.951250
11
63.155620
21
95.382620
0
LINE
8
Слой 1
10
63.155620
20
95.382620
11
62.984530
21
95.968430
0
LINE
8
Слой 1
10
62.984530
20
95.968430
11
62.813430
21
96.554230
0
LINE
8
Слой 1
10
62.813430
20
96.554230
11
62.829230
21
112.718030
0
LINE
8
Слой 1
10
62.829230
20
112.718030
11
62.852430
21
134.572530
0
LINE
8
Слой 1
10
62.852430
20
134.572530
11
62.859430
21
140.263250
0
LINE
8
Слой 1
10
62.859430
20
140.263250
11
63.062390
21
140.920340
0
LINE
8
Слой 1
10
63.062390
20
140.920340
11
63.265340
21
141.577440
0
LINE
8
Слой 1
10
63.265340
20
141.577440
11
63.640740
21
141.963980
0
LINE
8
Слой 1
10
63.640740
20
141.963980
11
64.513430
21
142.583700
0
LINE
8
Слой 1
10
64.513430
20
142.583700
11
65.010730
21
142.816890
0
LINE
8
Слой 1
10
65.010730
20
142.816890
11
65.829490
21
142.859590
0
LINE
8
Слой 1
10
65.829490
20
142.859590
11
66.648240
21
142.902290
0
LINE
8
Слой 1
10
66.648240
20
142.902290
11
66.648300
21
142.799000
0
LINE
8
Слой 1
10
66.648300
20
142.799000
11
66.648300
21
142.696000
0
LINE
8
Слой 1
10
66.648300
20
142.696000
11
67.084450
21
142.626300
0
LINE
8
Слой 1
10
67.084450
20
142.626300
11
67.520590
21
142.556600
0
LINE
8
Слой 1
10
67.520590
20
142.556600
11
68.075250
21
142.082740
0
LINE
8
Слой 1
10
68.075250
20
142.082740
11
68.629920
21
141.608880
0
LINE
8
Слой 1
10
68.629920
20
141.608880
11
68.713820
21
141.267400
0
LINE
8
Слой 1
10
68.713820
20
141.267400
11
68.791220
21
140.793860
0
LINE
8
Слой 1
10
68.791220
20
140.793860
11
68.875720
21
140.661810
0
LINE
8
Слой 1
10
68.875720
20
140.661810
11
68.966700
21
140.662000
0
LINE
8
Слой 1
10
68.966700
20
140.662000
11
68.970700
21
125.901800
0
LINE
8
Слой 1
10
68.970700
20
125.901800
11
68.974700
21
111.141600
0
LINE
8
Слой 1
10
68.974700
20
111.141600
11
69.079840
21
111.036460
0
LINE
8
Слой 1
10
69.079840
20
111.036460
11
69.184980
21
110.931320
0
LINE
8
Слой 1
10
69.184980
20
110.931320
11
74.693500
21
110.905320
0
LINE
8
Слой 1
10
74.693500
20
110.905320
11
80.202000
21
110.879320
0
LINE
8
Слой 1
10
80.202000
20
110.879320
11
80.401790
21
110.986240
0
LINE
8
Слой 1
10
80.401790
20
110.986240
11
80.601580
21
111.093160
0
LINE
8
Слой 1
10
80.601580
20
111.093160
11
80.598580
21
112.592580
0
LINE
8
Слой 1
10
80.598580
20
112.592580
11
80.728720
21
132.099080
0
LINE
8
Слой 1
10
80.728720
20
132.099080
11
81.480850
21
133.477840
0
LINE
8
Слой 1
10
81.480850
20
133.477840
11
81.912200
21
133.734120
0
LINE
8
Слой 1
10
81.912200
20
133.734120
11
82.857830
21
134.167480
0
LINE
8
Слой 1
10
82.857830
20
134.167480
11
83.467780
21
134.344790
0
LINE
8
Слой 1
10
83.467780
20
134.344790
11
84.062100
21
134.270490
0
LINE
8
Слой 1
10
84.062100
20
134.270490
11
85.033125
21
134.039338
0
LINE
8
Слой 1
10
85.033125
20
134.039338
11
85.710180
21
133.667890
0
LINE
8
Слой 1
10
85.710180
20
133.667890
11
86.006200
21
133.478040
0
LINE
8
Слой 1
10
86.006200
20
133.478040
11
86.207900
21
133.161110
0
LINE
8
Слой 1
10
86.207900
20
133.161110
11
86.405210
21
132.844170
0
LINE
8
Слой 1
10
86.405210
20
132.844170
11
86.665120
21
132.323040
0
LINE
8
Слой 1
10
86.665120
20
132.323040
11
86.838210
21
131.801910
0
LINE
8
Слой 1
10
86.838210
20
131.801910
11
86.805010
21
114.019910
0
LINE
8
Слой 1
10
86.805010
20
114.019910
11
86.771810
21
96.237910
0
LINE
8
Слой 1
10
86.771810
20
96.237910
11
86.572290
21
95.762510
0
LINE
8
Слой 1
10
86.572290
20
95.762510
11
86.372770
21
95.287100
0
LINE
8
Слой 1
10
86.372770
20
95.287100
11
85.949520
21
94.844240
0
LINE
8
Слой 1
10
85.949520
20
94.844240
11
85.526270
21
94.401390
0
LINE
8
Слой 1
10
85.526270
20
94.401390
11
84.993160
21
94.172050
0
LINE
8
Слой 1
10
84.993160
20
94.172050
11
84.460030
21
93.942710
0
LINE
8
Слой 1
10
84.460030
20
93.942710
11
83.873440
21
93.906210
0
LINE
8
Слой 1
10
83.873440
20
93.906210
11
82.916100
21
93.964010
0
LINE
8
Слой 1
10
82.916100
20
93.964010
11
82.917500
21
93.963700
0
LINE
8
Слой 1
10
103.579200
20
93.997600
11
102.846555
21
94.186684
0
LINE
8
Слой 1
10
102.846555
20
94.186684
11
102.091920
21
94.801370
0
LINE
8
Слой 1
10
102.091920
20
94.801370
11
101.587980
21
95.265890
0
LINE
8
Слой 1
10
101.587980
20
95.265890
11
101.388910
21
95.804580
0
LINE
8
Слой 1
10
101.388910
20
95.804580
11
101.189830
21
96.343280
0
LINE
8
Слой 1
10
101.189830
20
96.343280
11
101.196830
21
100.093710
0
LINE
8
Слой 1
10
101.196830
20
100.093710
11
101.238430
21
117.789410
0
LINE
8
Слой 1
10
101.238430
20
117.789410
11
101.272630
21
131.734710
0
LINE
8
Слой 1
10
101.272630
20
131.734710
11
101.384210
21
132.075820
0
LINE
8
Слой 1
10
101.384210
20
132.075820
11
101.721040
21
132.815340
0
LINE
8
Слой 1
10
101.721040
20
132.815340
11
101.946280
21
133.213750
0
LINE
8
Слой 1
10
101.946280
20
133.213750
11
102.357010
21
133.506880
0
LINE
8
Слой 1
10
102.357010
20
133.506880
11
103.222660
21
133.980400
0
LINE
8
Слой 1
10
103.222660
20
133.980400
11
103.677570
21
134.160810
0
LINE
8
Слой 1
10
103.677570
20
134.160810
11
108.490820
21
134.184210
0
LINE
8
Слой 1
10
108.490820
20
134.184210
11
113.304080
21
134.207610
0
LINE
8
Слой 1
10
113.304080
20
134.207610
11
113.918740
21
134.064730
0
LINE
8
Слой 1
10
113.918740
20
134.064730
11
114.599320
21
133.815180
0
LINE
8
Слой 1
10
114.599320
20
133.815180
11
115.087580
21
133.630150
0
LINE
8
Слой 1
10
115.087580
20
133.630150
11
115.509920
21
133.551750
0
LINE
8
Слой 1
10
115.509920
20
133.551750
11
116.302270
21
133.024620
0
LINE
8
Слой 1
10
116.302270
20
133.024620
11
117.728490
21
131.959080
0
LINE
8
Слой 1
10
117.728490
20
131.959080
11
118.626480
21
131.055470
0
LINE
8
Слой 1
10
118.626480
20
131.055470
11
118.729410
21
130.942270
0
LINE
8
Слой 1
10
118.729410
20
130.942270
11
118.982900
21
130.651750
0
LINE
8
Слой 1
10
118.982900
20
130.651750
11
119.409910
21
130.063390
0
LINE
8
Слой 1
10
119.409910
20
130.063390
11
119.631180
21
129.676240
0
LINE
8
Слой 1
10
119.631180
20
129.676240
11
119.655880
21
129.551490
0
LINE
8
Слой 1
10
119.655880
20
129.551490
11
120.109283
21
128.709231
0
LINE
8
Слой 1
10
120.109283
20
128.709231
11
120.574580
21
127.011410
0
LINE
8
Слой 1
10
120.574580
20
127.011410
11
120.739410
21
126.197110
0
LINE
8
Слой 1
10
120.739410
20
126.197110
11
120.737410
21
125.056960
0
LINE
8
Слой 1
10
120.737410
20
125.056960
11
120.735410
21
123.916820
0
LINE
8
Слой 1
10
120.735410
20
123.916820
11
120.512420
21
122.913180
0
LINE
8
Слой 1
10
120.512420
20
122.913180
11
120.263810
21
121.698250
0
LINE
8
Слой 1
10
120.263810
20
121.698250
11
119.893500
21
120.669640
0
LINE
8
Слой 1
10
119.893500
20
120.669640
11
119.787900
21
120.391150
0
LINE
8
Слой 1
10
119.787900
20
120.391150
11
119.359920
21
119.676600
0
LINE
8
Слой 1
10
119.359920
20
119.676600
11
118.385654
21
118.401106
0
LINE
8
Слой 1
10
118.385654
20
118.401106
11
117.427861
21
117.472334
0
LINE
8
Слой 1
10
117.427861
20
117.472334
11
116.363698
21
116.792560
0
LINE
8
Слой 1
10
116.363698
20
116.792560
11
115.070320
21
116.264060
0
LINE
8
Слой 1
10
115.070320
20
116.264060
11
114.107580
21
115.941520
0
LINE
8
Слой 1
10
114.107580
20
115.941520
11
113.118070
21
115.840980
0
LINE
8
Слой 1
10
113.118070
20
115.840980
11
112.128570
21
115.740440
0
LINE
8
Слой 1
10
112.128570
20
115.740440
11
109.791160
21
115.779340
0
LINE
8
Слой 1
10
109.791160
20
115.779340
11
107.453750
21
115.818240
0
LINE
8
Слой 1
10
107.453750
20
115.818240
11
107.396050
21
115.377570
0
LINE
8
Слой 1
10
107.396050
20
115.377570
11
107.361950
21
105.692880
0
LINE
8
Слой 1
10
107.361950
20
105.692880
11
107.385550
21
96.448850
0
LINE
8
Слой 1
10
107.385550
20
96.448850
11
107.303250
21
96.141040
0
LINE
8
Слой 1
10
107.303250
20
96.141040
11
106.889960
21
95.295870
0
LINE
8
Слой 1
10
106.889960
20
95.295870
11
106.559030
21
94.758520
0
LINE
8
Слой 1
10
106.559030
20
94.758520
11
106.051840
21
94.420850
0
LINE
8
Слой 1
10
106.051840
20
94.420850
11
105.544650
21
94.083180
0
LINE
8
Слой 1
10
105.544650
20
94.083180
11
104.874910
21
93.995480
0
LINE
8
Слой 1
10
104.874910
20
93.995480
11
104.205160
21
93.907880
0
LINE
8
Слой 1
10
104.205160
20
93.907880
11
103.578180
21
93.997580
0
LINE
8
Слой 1
10
103.578180
20
93.997580
11
103.579200
21
93.997600
0
LINE
8
Слой 1
10
112.550230
20
121.277000
11
113.131280
21
121.414710
0
LINE
8
Слой 1
10
113.131280
20
121.414710
11
113.580110
21
121.702800
0
LINE
8
Слой 1
10
113.580110
20
121.702800
11
113.974110
21
121.918530
0
LINE
8
Слой 1
10
113.974110
20
121.918530
11
114.393970
21
122.481260
0
LINE
8
Слой 1
10
114.393970
20
122.481260
11
114.813820
21
123.043990
0
LINE
8
Слой 1
10
114.813820
20
123.043990
11
114.935670
21
123.630950
0
LINE
8
Слой 1
10
114.935670
20
123.630950
11
115.082330
21
124.943760
0
LINE
8
Слой 1
10
115.082330
20
124.943760
11
115.107130
21
125.669600
0
LINE
8
Слой 1
10
115.107130
20
125.669600
11
114.971880
21
126.190980
0
LINE
8
Слой 1
10
114.971880
20
126.190980
11
114.836640
21
126.712360
0
LINE
8
Слой 1
10
114.836640
20
126.712360
11
114.506940
21
127.191560
0
LINE
8
Слой 1
10
114.506940
20
127.191560
11
113.901504
21
127.917807
0
LINE
8
Слой 1
10
113.901504
20
127.917807
11
113.133280
21
128.387960
0
LINE
8
Слой 1
10
113.133280
20
128.387960
11
112.552220
21
128.664820
0
LINE
8
Слой 1
10
112.552220
20
128.664820
11
110.101240
21
128.667820
0
LINE
8
Слой 1
10
110.101240
20
128.667820
11
107.650250
21
128.670820
0
LINE
8
Слой 1
10
107.650250
20
128.670820
11
107.518760
21
128.539320
0
LINE
8
Слой 1
10
107.518760
20
128.539320
11
107.387260
21
128.407830
0
LINE
8
Слой 1
10
107.387260
20
128.407830
11
107.373460
21
125.000180
0
LINE
8
Слой 1
10
107.373460
20
125.000180
11
107.405460
21
121.411010
0
LINE
8
Слой 1
10
107.405460
20
121.411010
11
107.451260
21
121.229480
0
LINE
8
Слой 1
10
107.451260
20
121.229480
11
108.628320
21
121.199680
0
LINE
8
Слой 1
10
108.628320
20
121.199680
11
112.550210
21
121.276780
0
LINE
8
Слой 1
10
112.550210
20
121.276780
11
112.550230
21
121.277000
0
LINE
8
Слой 1
10
93.060530
20
94.102300
11
92.482309
21
94.371250
0
LINE
8
Слой 1
10
92.482309
20
94.371250
11
91.916590
21
94.832740
0
LINE
8
Слой 1
10
91.916590
20
94.832740
11
91.323561
21
95.561923
0
LINE
8
Слой 1
10
91.323561
20
95.561923
11
91.088920
21
96.434430
0
LINE
8
Слой 1
10
91.088920
20
96.434430
11
91.018520
21
116.997130
0
LINE
8
Слой 1
10
91.018520
20
116.997130
11
91.000420
21
137.017030
0
LINE
8
Слой 1
10
91.000420
20
137.017030
11
82.918510
21
137.020030
0
LINE
8
Слой 1
10
82.918510
20
137.020030
11
74.836590
21
137.023030
0
LINE
8
Слой 1
10
74.836590
20
137.023030
11
74.466830
21
137.111830
0
LINE
8
Слой 1
10
74.466830
20
137.111830
11
73.626659
21
137.453157
0
LINE
8
Слой 1
10
73.626659
20
137.453157
11
72.944790
21
138.037170
0
LINE
8
Слой 1
10
72.944790
20
138.037170
11
72.562140
21
138.484200
0
LINE
8
Слой 1
10
72.562140
20
138.484200
11
72.443910
21
138.912390
0
LINE
8
Слой 1
10
72.443910
20
138.912390
11
72.332530
21
139.942800
0
LINE
8
Слой 1
10
72.332530
20
139.942800
11
72.339530
21
140.545010
0
LINE
8
Слой 1
10
72.339530
20
140.545010
11
72.563760
21
141.052080
0
LINE
8
Слой 1
10
72.563760
20
141.052080
11
73.094454
21
141.865136
0
LINE
8
Слой 1
10
73.094454
20
141.865136
11
73.905430
21
142.407960
0
LINE
8
Слой 1
10
73.905430
20
142.407960
11
74.453160
21
142.659240
0
LINE
8
Слой 1
10
74.453160
20
142.659240
11
95.830260
21
142.732540
0
LINE
8
Слой 1
10
95.830260
20
142.732540
11
117.207360
21
142.805740
0
LINE
8
Слой 1
10
117.207360
20
142.805740
11
117.626680
21
142.676900
0
LINE
8
Слой 1
10
117.626680
20
142.676900
11
118.781045
21
142.095665
0
LINE
8
Слой 1
10
118.781045
20
142.095665
11
119.477130
21
141.150110
0
LINE
8
Слой 1
10
119.477130
20
141.150110
11
119.688760
21
140.671680
0
LINE
8
Слой 1
10
119.688760
20
140.671680
11
119.694760
21
139.953300
0
LINE
8
Слой 1
10
119.694760
20
139.953300
11
119.700760
21
139.234930
0
LINE
8
Слой 1
10
119.700760
20
139.234930
11
119.589280
21
138.944410
0
LINE
8
Слой 1
10
119.589280
20
138.944410
11
119.363300
21
138.653880
0
LINE
8
Слой 1
10
119.363300
20
138.653880
11
119.249000
21
138.654000
0
LINE
8
Слой 1
10
119.249000
20
138.654000
11
119.306900
21
138.560300
0
LINE
8
Слой 1
10
119.306900
20
138.560300
11
119.208600
21
138.337040
0
LINE
8
Слой 1
10
119.208600
20
138.337040
11
119.110400
21
138.113770
0
LINE
8
Слой 1
10
119.110400
20
138.113770
11
119.080000
21
138.020070
0
LINE
8
Слой 1
10
119.080000
20
138.020070
11
118.670900
21
137.727100
0
LINE
8
Слой 1
10
118.670900
20
137.727100
11
118.350130
21
137.434130
0
LINE
8
Слой 1
10
118.350130
20
137.434130
11
117.564480
21
137.250340
0
LINE
8
Слой 1
10
117.564480
20
137.250340
11
116.778830
21
137.066550
0
LINE
8
Слой 1
10
116.778830
20
137.066550
11
107.032990
21
137.067550
0
LINE
8
Слой 1
10
107.032990
20
137.067550
11
97.287170
21
137.068550
0
LINE
8
Слой 1
10
97.287170
20
137.068550
11
97.284170
21
136.989350
0
LINE
8
Слой 1
10
97.284170
20
136.989350
11
97.257770
21
134.655070
0
LINE
8
Слой 1
10
97.257770
20
134.655070
11
97.234370
21
132.400030
0
LINE
8
Слой 1
10
97.234370
20
132.400030
11
97.315370
21
132.349930
0
LINE
8
Слой 1
10
97.315370
20
132.349930
11
97.396370
21
132.299830
0
LINE
8
Слой 1
10
97.396370
20
132.299830
11
97.325770
21
132.185650
0
LINE
8
Слой 1
10
97.325770
20
132.185650
11
97.231470
21
114.259550
0
LINE
8
Слой 1
10
97.231470
20
114.259550
11
97.207670
21
96.447650
0
LINE
8
Слой 1
10
97.207670
20
96.447650
11
96.971750
21
95.829410
0
LINE
8
Слой 1
10
96.971750
20
95.829410
11
96.735820
21
95.211170
0
LINE
8
Слой 1
10
96.735820
20
95.211170
11
96.312760
21
94.825780
0
LINE
8
Слой 1
10
96.312760
20
94.825780
11
95.505620
21
94.237050
0
LINE
8
Слой 1
10
95.505620
20
94.237050
11
95.121550
21
94.033730
0
LINE
8
Слой 1
10
95.121550
20
94.033730
11
94.276380
21
93.997730
0
LINE
8
Слой 1
10
94.276380
20
93.997730
11
93.431210
21
93.961730
0
LINE
8
Слой 1
10
93.431210
20
93.961730
11
93.061450
21
94.100970
0
LINE
8
Слой 1
10
93.061450
20
94.100970
11
93.060530
21
94.102300
0
LINE
8
Слой 1
10
28.856830
20
94.172900
11
27.885389
21
94.710673
0
LINE
8
Слой 1
10
27.885389
20
94.710673
11
27.096470
21
95.774570
0
LINE
8
Слой 1
10
27.096470
20
95.774570
11
26.791390
21
96.366490
0
LINE
8
Слой 1
10
26.791390
20
96.366490
11
26.855630
21
97.023740
0
LINE
8
Слой 1
10
26.855630
20
97.023740
11
26.919870
21
97.681000
0
LINE
8
Слой 1
10
26.919870
20
97.681000
11
27.157232
21
98.156270
0
LINE
8
Слой 1
10
27.157232
20
98.156270
11
27.751176
21
98.943974
0
LINE
8
Слой 1
10
27.751176
20
98.943974
11
28.341132
21
99.354210
0
LINE
8
Слой 1
10
28.341132
20
99.354210
11
28.948292
21
99.563180
0
LINE
8
Слой 1
10
28.948292
20
99.563180
11
29.408824
21
99.772160
0
LINE
8
Слой 1
10
29.408824
20
99.772160
11
35.216254
21
99.774160
0
LINE
8
Слой 1
10
35.216254
20
99.774160
11
41.023694
21
99.776160
0
LINE
8
Слой 1
10
41.023694
20
99.776160
11
41.581424
21
99.646490
0
LINE
8
Слой 1
10
41.581424
20
99.646490
11
42.139164
21
99.435200
0
LINE
8
Слой 1
10
42.139164
20
99.435200
11
42.292284
21
99.353600
0
LINE
8
Слой 1
10
42.292284
20
99.353600
11
42.920302
21
98.901667
0
LINE
8
Слой 1
10
42.920302
20
98.901667
11
43.406914
21
98.318410
0
LINE
8
Слой 1
10
43.406914
20
98.318410
11
43.498114
21
98.191490
0
LINE
8
Слой 1
10
43.498114
20
98.191490
11
43.723314
21
97.560120
0
LINE
8
Слой 1
10
43.723314
20
97.560120
11
43.857294
21
96.928760
0
LINE
8
Слой 1
10
43.857294
20
96.928760
11
43.786094
21
96.483260
0
LINE
8
Слой 1
10
43.786094
20
96.483260
11
43.434234
21
95.522170
0
LINE
8
Слой 1
10
43.434234
20
95.522170
11
43.153614
21
95.006570
0
LINE
8
Слой 1
10
43.153614
20
95.006570
11
42.778464
21
94.723810
0
LINE
8
Слой 1
10
42.778464
20
94.723810
11
42.139194
21
94.282580
0
LINE
8
Слой 1
10
42.139194
20
94.282580
11
41.875074
21
94.124110
0
LINE
8
Слой 1
10
41.875074
20
94.124110
11
35.536314
21
94.106910
0
LINE
8
Слой 1
10
35.536314
20
94.106910
11
29.197554
21
94.089710
0
LINE
8
Слой 1
10
29.197554
20
94.089710
11
28.856830
21
94.172900
0
LINE
8
Слой 1
10
51.277530
20
94.269200
11
50.506390
21
94.756050
0
LINE
8
Слой 1
10
50.506390
20
94.756050
11
50.157860
21
95.050260
0
LINE
8
Слой 1
10
50.157860
20
95.050260
11
49.872520
21
95.591140
0
LINE
8
Слой 1
10
49.872520
20
95.591140
11
49.587190
21
96.132020
0
LINE
8
Слой 1
10
49.587190
20
96.132020
11
49.554990
21
100.119600
0
LINE
8
Слой 1
10
49.554990
20
100.119600
11
49.522790
21
104.107190
0
LINE
8
Слой 1
10
49.522790
20
104.107190
11
49.290910
21
104.156190
0
LINE
8
Слой 1
10
49.290910
20
104.156190
11
39.498080
21
104.256380
0
LINE
8
Слой 1
10
39.498080
20
104.256380
11
29.937120
21
104.307580
0
LINE
8
Слой 1
10
29.937120
20
104.307580
11
29.337629
21
104.412390
0
LINE
8
Слой 1
10
29.337629
20
104.412390
11
28.439639
21
104.673810
0
LINE
8
Слой 1
10
28.439639
20
104.673810
11
27.733521
21
105.267160
0
LINE
8
Слой 1
10
27.733521
20
105.267160
11
27.122289
21
106.115570
0
LINE
8
Слой 1
10
27.122289
20
106.115570
11
26.873385
21
106.590980
0
LINE
8
Слой 1
10
26.873385
20
106.590980
11
26.902785
21
113.827730
0
LINE
8
Слой 1
10
26.902785
20
113.827730
11
27.067630
21
140.732230
0
LINE
8
Слой 1
10
27.067630
20
140.732230
11
27.205188
21
141.101990
0
LINE
8
Слой 1
10
27.205188
20
141.101990
11
27.449075
21
141.585070
0
LINE
8
Слой 1
10
27.449075
20
141.585070
11
27.983225
21
142.287260
0
LINE
8
Слой 1
10
27.983225
20
142.287260
11
28.381678
21
142.647240
0
LINE
8
Слой 1
10
28.381678
20
142.647240
11
28.964365
21
142.816630
0
LINE
8
Слой 1
10
28.964365
20
142.816630
11
30.062687
21
142.978166
0
LINE
8
Слой 1
10
30.062687
20
142.978166
11
31.142905
21
142.820630
0
LINE
8
Слой 1
10
31.142905
20
142.820630
11
31.700342
21
142.655090
0
LINE
8
Слой 1
10
31.700342
20
142.655090
11
32.172991
21
142.219410
0
LINE
8
Слой 1
10
32.172991
20
142.219410
11
32.870423
21
141.354910
0
LINE
8
Слой 1
10
32.870423
20
141.354910
11
33.095204
21
140.926070
0
LINE
8
Слой 1
10
33.095204
20
140.926070
11
33.100804
21
125.589870
0
LINE
8
Слой 1
10
33.100804
20
125.589870
11
33.106404
21
110.253670
0
LINE
8
Слой 1
10
33.106404
20
110.253670
11
33.194414
21
110.165570
0
LINE
8
Слой 1
10
33.194414
20
110.165570
11
33.282424
21
110.077470
0
LINE
8
Слой 1
10
33.282424
20
110.077470
11
38.805924
21
110.040370
0
LINE
8
Слой 1
10
38.805924
20
110.040370
11
44.329424
21
110.003270
0
LINE
8
Слой 1
10
44.329424
20
110.003270
11
44.389924
21
110.251680
0
LINE
8
Слой 1
10
44.389924
20
110.251680
11
44.460324
21
114.303340
0
LINE
8
Слой 1
10
44.460324
20
114.303340
11
44.620734
21
138.866040
0
LINE
8
Слой 1
10
44.620734
20
138.866040
11
44.674434
21
140.292260
0
LINE
8
Слой 1
10
44.674434
20
140.292260
11
44.829204
21
140.873310
0
LINE
8
Слой 1
10
44.829204
20
140.873310
11
44.983974
21
141.454370
0
LINE
8
Слой 1
10
44.983974
20
141.454370
11
45.395144
21
141.824130
0
LINE
8
Слой 1
10
45.395144
20
141.824130
11
46.152470
21
142.429095
0
LINE
8
Слой 1
10
46.152470
20
142.429095
11
46.777714
21
142.638900
0
LINE
8
Слой 1
10
46.777714
20
142.638900
11
47.262974
21
142.722100
0
LINE
8
Слой 1
10
47.262974
20
142.722100
11
52.386800
21
142.722000
0
LINE
8
Слой 1
10
52.386800
20
142.722000
11
57.510600
21
142.722000
0
LINE
8
Слой 1
10
57.510600
20
142.722000
11
58.038830
21
142.574180
0
LINE
8
Слой 1
10
58.038830
20
142.574180
11
58.778350
21
142.244030
0
LINE
8
Слой 1
10
58.778350
20
142.244030
11
59.219420
21
141.943370
0
LINE
8
Слой 1
10
59.219420
20
141.943370
11
59.449210
21
141.825050
0
LINE
8
Слой 1
10
59.449210
20
141.825050
11
59.722140
21
141.248130
0
LINE
8
Слой 1
10
59.722140
20
141.248130
11
59.995060
21
140.671210
0
LINE
8
Слой 1
10
59.995060
20
140.671210
11
60.044360
21
140.037280
0
LINE
8
Слой 1
10
60.044360
20
140.037280
11
60.093660
21
139.403350
0
LINE
8
Слой 1
10
60.093660
20
139.403350
11
59.990660
21
139.339650
0
LINE
8
Слой 1
10
59.990660
20
139.339650
11
59.887650
21
139.021330
0
LINE
8
Слой 1
10
59.887650
20
139.021330
11
59.340970
21
137.842750
0
LINE
8
Слой 1
10
59.340970
20
137.842750
11
57.941560
21
137.107940
0
LINE
8
Слой 1
10
57.941560
20
137.107940
11
57.527330
21
136.960880
0
LINE
8
Слой 1
10
57.527330
20
136.960880
11
54.117640
21
136.957880
0
LINE
8
Слой 1
10
54.117640
20
136.957880
11
50.707940
21
136.954880
0
LINE
8
Слой 1
10
50.707940
20
136.954880
11
50.656840
21
136.774340
0
LINE
8
Слой 1
10
50.656840
20
136.774340
11
50.609540
21
135.907100
0
LINE
8
Слой 1
10
50.609540
20
135.907100
11
50.590040
21
134.216760
0
LINE
8
Слой 1
10
50.590040
20
134.216760
11
50.641240
21
132.726620
0
LINE
8
Слой 1
10
50.641240
20
132.726620
11
50.715740
21
132.240120
0
LINE
8
Слой 1
10
50.715740
20
132.240120
11
51.841740
21
132.182520
0
LINE
8
Слой 1
10
51.841740
20
132.182520
11
55.064700
21
132.109020
0
LINE
8
Слой 1
10
55.064700
20
132.109020
11
57.161680
21
132.093120
0
LINE
8
Слой 1
10
57.161680
20
132.093120
11
57.758670
21
131.873370
0
LINE
8
Слой 1
10
57.758670
20
131.873370
11
58.355680
21
131.653630
0
LINE
8
Слой 1
10
58.355680
20
131.653630
11
58.833080
21
131.164930
0
LINE
8
Слой 1
10
58.833080
20
131.164930
11
59.310480
21
130.676230
0
LINE
8
Слой 1
10
59.310480
20
130.676230
11
59.440540
21
130.242120
0
LINE
8
Слой 1
10
59.440540
20
130.242120
11
59.570610
21
129.808010
0
LINE
8
Слой 1
10
59.570610
20
129.808010
11
59.570600
21
129.127000
0
LINE
8
Слой 1
10
59.570600
20
129.127000
11
59.570600
21
128.446000
0
LINE
8
Слой 1
10
59.570600
20
128.446000
11
59.350210
21
127.989860
0
LINE
8
Слой 1
10
59.350210
20
127.989860
11
58.756509
21
127.199436
0
LINE
8
Слой 1
10
58.756509
20
127.199436
11
57.880260
21
126.582480
0
LINE
8
Слой 1
10
57.880260
20
126.582480
11
57.404850
21
126.346220
0
LINE
8
Слой 1
10
57.404850
20
126.346220
11
54.499590
21
126.326620
0
LINE
8
Слой 1
10
54.499590
20
126.326620
11
51.066090
21
126.300120
0
LINE
8
Слой 1
10
51.066090
20
126.300120
11
50.537860
21
126.293120
0
LINE
8
Слой 1
10
50.537860
20
126.293120
11
50.538860
21
123.923580
0
LINE
8
Слой 1
10
50.538860
20
123.923580
11
50.591660
21
121.503410
0
LINE
8
Слой 1
10
50.591660
20
121.503410
11
54.340640
21
121.407410
0
LINE
8
Слой 1
10
54.340640
20
121.407410
11
58.038250
21
121.362110
0
LINE
8
Слой 1
10
58.038250
20
121.362110
11
58.553610
21
121.160200
0
LINE
8
Слой 1
10
58.553610
20
121.160200
11
59.068960
21
120.958290
0
LINE
8
Слой 1
10
59.068960
20
120.958290
11
59.456520
21
120.583100
0
LINE
8
Слой 1
10
59.456520
20
120.583100
11
59.844070
21
120.207900
0
LINE
8
Слой 1
10
59.844070
20
120.207900
11
60.087100
21
119.690870
0
LINE
8
Слой 1
10
60.087100
20
119.690870
11
60.330130
21
119.173830
0
LINE
8
Слой 1
10
60.330130
20
119.173830
11
60.293430
21
118.367440
0
LINE
8
Слой 1
10
60.293430
20
118.367440
11
60.256830
21
117.561040
0
LINE
8
Слой 1
10
60.256830
20
117.561040
11
59.937630
21
117.044750
0
LINE
8
Слой 1
10
59.937630
20
117.044750
11
59.618420
21
116.528460
0
LINE
8
Слой 1
10
59.618420
20
116.528460
11
59.169020
21
116.185690
0
LINE
8
Слой 1
10
59.169020
20
116.185690
11
58.326110
21
115.733640
0
LINE
8
Слой 1
10
58.326110
20
115.733640
11
57.932610
21
115.624350
0
LINE
8
Слой 1
10
57.932610
20
115.624350
11
54.393470
21
115.622350
0
LINE
8
Слой 1
10
54.393470
20
115.622350
11
50.854330
21
115.620350
0
LINE
8
Слой 1
10
50.854330
20
115.620350
11
50.708750
21
115.528150
0
LINE
8
Слой 1
10
50.708750
20
115.528150
11
50.563160
21
115.435950
0
LINE
8
Слой 1
10
50.563160
20
115.435950
11
50.536460
21
112.967860
0
LINE
8
Слой 1
10
50.536460
20
112.967860
11
50.561460
21
110.262070
0
LINE
8
Слой 1
10
50.561460
20
110.262070
11
50.613160
21
110.024370
0
LINE
8
Слой 1
10
50.613160
20
110.024370
11
51.558600
21
110.024000
0
LINE
8
Слой 1
10
51.558600
20
110.024000
11
52.834487
21
109.932105
0
LINE
8
Слой 1
10
52.834487
20
109.932105
11
53.821250
21
109.647160
0
LINE
8
Слой 1
10
53.821250
20
109.647160
11
54.717236
21
108.895751
0
LINE
8
Слой 1
10
54.717236
20
108.895751
11
55.038074
21
108.435680
0
LINE
8
Слой 1
10
55.038074
20
108.435680
11
55.125640
21
108.095960
0
LINE
8
Слой 1
10
55.125640
20
108.095960
11
55.239250
21
107.752610
0
LINE
8
Слой 1
10
55.239250
20
107.752610
11
55.360290
21
107.435670
0
LINE
8
Слой 1
10
55.360290
20
107.435670
11
55.351290
21
102.100550
0
LINE
8
Слой 1
10
55.351290
20
102.100550
11
55.276090
21
96.395670
0
LINE
8
Слой 1
10
55.276090
20
96.395670
11
54.963340
21
95.533690
0
LINE
8
Слой 1
10
54.963340
20
95.533690
11
54.716710
21
95.041470
0
LINE
8
Слой 1
10
54.716710
20
95.041470
11
54.248270
21
94.657620
0
LINE
8
Слой 1
10
54.248270
20
94.657620
11
53.444040
21
94.190523
0
LINE
8
Слой 1
10
53.444040
20
94.190523
11
52.387030
21
94.073780
0
LINE
8
Слой 1
10
52.387030
20
94.073780
11
51.699630
21
94.075780
0
LINE
8
Слой 1
10
51.699630
20
94.075780
11
51.277050
21
94.268410
0
LINE
8
Слой 1
10
51.277050
20
94.268410
11
51.277530
21
94.269200
0
LINE
8
Слой 1
10
115.498530
20
94.230400
11
114.586290
21
94.583600
0
LINE
8
Слой 1
10
114.586290
20
94.583600
11
113.827615
21
95.247130
0
LINE
8
Слой 1
10
113.827615
20
95.247130
11
113.385470
21
95.944470
0
LINE
8
Слой 1
10
113.385470
20
95.944470
11
113.251900
21
96.343310
0
LINE
8
Слой 1
10
113.251900
20
96.343310
11
113.220500
21
102.259490
0
LINE
8
Слой 1
10
113.220500
20
102.259490
11
113.252600
21
108.070010
0
LINE
8
Слой 1
10
113.252600
20
108.070010
11
113.356630
21
108.492600
0
LINE
8
Слой 1
10
113.356630
20
108.492600
11
113.524230
21
109.073650
0
LINE
8
Слой 1
10
113.524230
20
109.073650
11
113.617330
21
109.378010
0
LINE
8
Слой 1
10
113.617330
20
109.378010
11
114.559510
21
110.460940
0
LINE
8
Слой 1
10
114.559510
20
110.460940
11
115.266060
21
110.810960
0
LINE
8
Слой 1
10
115.266060
20
110.810960
11
115.761310
21
110.975280
0
LINE
8
Слой 1
10
115.761310
20
110.975280
11
116.349000
21
110.975000
0
LINE
8
Слой 1
10
116.349000
20
110.975000
11
116.936000
21
110.975000
0
LINE
8
Слой 1
10
116.936000
20
110.975000
11
116.936000
21
110.881000
0
LINE
8
Слой 1
10
116.936000
20
110.881000
11
117.295140
21
110.719740
0
LINE
8
Слой 1
10
117.295140
20
110.719740
11
117.783490
21
110.496690
0
LINE
8
Слой 1
10
117.783490
20
110.496690
11
118.058210
21
110.341010
0
LINE
8
Слой 1
10
118.058210
20
110.341010
11
118.203750
21
110.249910
0
LINE
8
Слой 1
10
118.203750
20
110.249910
11
118.520690
21
109.759980
0
LINE
8
Слой 1
10
118.520690
20
109.759980
11
118.837630
21
109.361160
0
LINE
8
Слой 1
10
118.837630
20
109.361160
11
118.838000
21
109.118000
0
LINE
8
Слой 1
10
118.838000
20
109.118000
11
118.943640
21
108.809360
0
LINE
8
Слой 1
10
118.943640
20
108.809360
11
119.049290
21
108.433360
0
LINE
8
Слой 1
10
119.049290
20
108.433360
11
119.049000
21
108.123000
0
LINE
8
Слой 1
10
119.049000
20
108.123000
11
118.923000
21
108.123000
0
LINE
8
Слой 1
10
118.923000
20
108.123000
11
118.796000
21
108.123000
0
LINE
8
Слой 1
10
118.796000
20
108.123000
11
118.905290
21
108.013710
0
LINE
8
Слой 1
10
118.905290
20
108.013710
11
119.014570
21
107.904420
0
LINE
8
Слой 1
10
119.014570
20
107.904420
11
118.980270
21
103.021940
0
LINE
8
Слой 1
10
118.980270
20
103.021940
11
118.899670
21
97.225550
0
LINE
8
Слой 1
10
118.899670
20
97.225550
11
118.853370
21
96.311660
0
LINE
8
Слой 1
10
118.853370
20
96.311660
11
118.654550
21
95.904980
0
LINE
8
Слой 1
10
118.654550
20
95.904980
11
118.209845
21
95.148998
0
LINE
8
Слой 1
10
118.209845
20
95.148998
11
117.618590
21
94.656220
0
LINE
8
Слой 1
10
117.618590
20
94.656220
11
117.085590
21
94.300810
0
LINE
8
Слой 1
10
117.085590
20
94.300810
11
116.560170
21
94.205310
0
LINE
8
Слой 1
10
116.560170
20
94.205310
11
116.034750
21
94.109810
0
LINE
8
Слой 1
10
116.034750
20
94.109810
11
115.498530
21
94.230400
 0 
ENDSEC
 0 
EOF