999
"DXF R12 Output" (www.mydxf.blogspot.com)
 0 
SECTION
 2 
HEADER
 9 
$ACADVER
 1 
AC1009
 9 
$EXTMIN
 10 
 0 
 20 
 0 
 9 
$EXTMAX
 10 
 8.5 
 20 
 11 
 0 
ENDSEC
 0 
SECTION
 2 
ENTITIES
0
LINE
8
Слой 1
10
56.427800
20
199.538000
11
60.136530
21
198.014196
0
LINE
8
Слой 1
10
60.136530
20
198.014196
11
63.361510
21
196.925770
0
LINE
8
Слой 1
10
63.361510
20
196.925770
11
67.747484
21
195.776869
0
LINE
8
Слой 1
10
67.747484
20
195.776869
11
72.520450
21
194.700530
0
LINE
8
Слой 1
10
72.520450
20
194.700530
11
76.692769
21
194.144222
0
LINE
8
Слой 1
10
76.692769
20
194.144222
11
80.937650
21
193.829790
0
LINE
8
Слой 1
10
80.937650
20
193.829790
11
84.980969
21
193.930571
0
LINE
8
Слой 1
10
84.980969
20
193.930571
11
88.806600
21
194.249040
0
LINE
8
Слой 1
10
88.806600
20
194.249040
11
92.418580
21
194.926280
0
LINE
8
Слой 1
10
92.418580
20
194.926280
11
92.849922
21
195.103655
0
LINE
8
Слой 1
10
92.849922
20
195.103655
11
93.111950
21
195.377780
0
LINE
8
Слой 1
10
93.111950
20
195.377780
11
93.249012
21
195.998590
0
LINE
8
Слой 1
10
93.249012
20
195.998590
11
93.154283
21
196.256586
0
LINE
8
Слой 1
10
93.154283
20
196.256586
11
92.708828
21
196.732270
0
LINE
8
Слой 1
10
92.708828
20
196.732270
11
88.478998
21
200.295460
0
LINE
8
Слой 1
10
88.478998
20
200.295460
11
82.330465
21
204.987391
0
LINE
8
Слой 1
10
82.330465
20
204.987391
11
75.685898
21
209.850360
0
LINE
8
Слой 1
10
75.685898
20
209.850360
11
70.965458
21
212.837690
0
LINE
8
Слой 1
10
70.965458
20
212.837690
11
69.579400
21
213.618728
0
LINE
8
Слой 1
10
69.579400
20
213.618728
11
68.856088
21
213.903780
0
LINE
8
Слой 1
10
68.856088
20
213.903780
11
68.025878
21
214.111868
0
LINE
8
Слой 1
10
68.025878
20
214.111868
11
66.934848
21
214.131822
0
LINE
8
Слой 1
10
66.934848
20
214.131822
11
65.724806
21
213.875989
0
LINE
8
Слой 1
10
65.724806
20
213.875989
11
64.472008
21
213.367885
0
LINE
8
Слой 1
10
64.472008
20
213.367885
11
63.171995
21
212.562195
0
LINE
8
Слой 1
10
63.171995
20
212.562195
11
61.781248
21
211.373685
0
LINE
8
Слой 1
10
61.781248
20
211.373685
11
60.049836
21
209.372178
0
LINE
8
Слой 1
10
60.049836
20
209.372178
11
57.991898
21
206.729715
0
LINE
8
Слой 1
10
57.991898
20
206.729715
11
55.234538
21
202.811365
0
LINE
8
Слой 1
10
55.234538
20
202.811365
11
54.979336
21
202.318517
0
LINE
8
Слой 1
10
54.979336
20
202.318517
11
54.842996
21
201.498385
0
LINE
8
Слой 1
10
54.842996
20
201.498385
11
54.943478
21
200.831367
0
LINE
8
Слой 1
10
54.943478
20
200.831367
11
55.219263
21
200.352485
0
LINE
8
Слой 1
10
55.219263
20
200.352485
11
55.891982
21
199.776683
0
LINE
8
Слой 1
10
55.891982
20
199.776683
11
56.427780
21
199.538015
0
LINE
8
Слой 1
10
56.427780
20
199.538015
11
56.427800
21
199.538000
0
LINE
8
Слой 1
10
58.218100
20
215.506000
11
65.287360
21
218.037250
0
LINE
8
Слой 1
10
65.287360
20
218.037250
11
69.813965
21
219.776055
0
LINE
8
Слой 1
10
69.813965
20
219.776055
11
74.682630
21
221.822720
0
LINE
8
Слой 1
10
74.682630
20
221.822720
11
79.574097
21
224.182940
0
LINE
8
Слой 1
10
79.574097
20
224.182940
11
82.823680
21
225.859040
0
LINE
8
Слой 1
10
82.823680
20
225.859040
11
84.266035
21
226.594471
0
LINE
8
Слой 1
10
84.266035
20
226.594471
11
85.195300
21
227.227280
0
LINE
8
Слой 1
10
85.195300
20
227.227280
11
86.073257
21
228.150846
0
LINE
8
Слой 1
10
86.073257
20
228.150846
11
86.439546
21
228.734488
0
LINE
8
Слой 1
10
86.439546
20
228.734488
11
86.677560
21
229.416470
0
LINE
8
Слой 1
10
86.677560
20
229.416470
11
86.953382
21
230.581962
0
LINE
8
Слой 1
10
86.953382
20
230.581962
11
87.081325
21
232.481410
0
LINE
8
Слой 1
10
87.081325
20
232.481410
11
86.988161
21
233.906890
0
LINE
8
Слой 1
10
86.988161
20
233.906890
11
86.751358
21
235.192606
0
LINE
8
Слой 1
10
86.751358
20
235.192606
11
86.175873
21
237.033030
0
LINE
8
Слой 1
10
86.175873
20
237.033030
11
82.856593
21
244.679900
0
LINE
8
Слой 1
10
82.856593
20
244.679900
11
82.349668
21
245.593979
0
LINE
8
Слой 1
10
82.349668
20
245.593979
11
81.891747
21
245.971276
0
LINE
8
Слой 1
10
81.891747
20
245.971276
11
81.195733
21
246.163390
0
LINE
8
Слой 1
10
81.195733
20
246.163390
11
79.960162
21
246.128116
0
LINE
8
Слой 1
10
79.960162
20
246.128116
11
78.905993
21
245.470019
0
LINE
8
Слой 1
10
78.905993
20
245.470019
11
76.527569
21
243.627748
0
LINE
8
Слой 1
10
76.527569
20
243.627748
11
73.931463
21
241.519419
0
LINE
8
Слой 1
10
73.931463
20
241.519419
11
71.138831
21
238.854781
0
LINE
8
Слой 1
10
71.138831
20
238.854781
11
69.297695
21
236.963883
0
LINE
8
Слой 1
10
69.297695
20
236.963883
11
67.457313
21
234.884019
0
LINE
8
Слой 1
10
67.457313
20
234.884019
11
64.030769
21
230.578673
0
LINE
8
Слой 1
10
64.030769
20
230.578673
11
62.541230
21
228.444138
0
LINE
8
Слой 1
10
62.541230
20
228.444138
11
61.329843
21
226.370069
0
LINE
8
Слой 1
10
61.329843
20
226.370069
11
59.130811
21
221.855095
0
LINE
8
Слой 1
10
59.130811
20
221.855095
11
57.572743
21
218.162489
0
LINE
8
Слой 1
10
57.572743
20
218.162489
11
57.070856
21
216.707219
0
LINE
8
Слой 1
10
57.070856
20
216.707219
11
56.992247
21
216.243629
0
LINE
8
Слой 1
10
56.992247
20
216.243629
11
57.027520
21
215.879307
0
LINE
8
Слой 1
10
57.027520
20
215.879307
11
57.262339
21
215.602663
0
LINE
8
Слой 1
10
57.262339
20
215.602663
11
57.720388
21
215.445446
0
LINE
8
Слой 1
10
57.720388
20
215.445446
11
58.024241
21
215.433354
0
LINE
8
Слой 1
10
58.024241
20
215.433354
11
58.218090
21
215.505994
0
LINE
8
Слой 1
10
58.218090
20
215.505994
11
58.218100
21
215.506000
0
LINE
8
Слой 1
10
95.837100
20
201.602000
11
103.738300
21
200.537760
0
LINE
8
Слой 1
10
103.738300
20
200.537760
11
105.366915
21
200.582103
0
LINE
8
Слой 1
10
105.366915
20
200.582103
11
106.014934
21
200.759981
0
LINE
8
Слой 1
10
106.014934
20
200.759981
11
106.511780
21
201.086006
0
LINE
8
Слой 1
10
106.511780
20
201.086006
11
107.051968
21
201.759220
0
LINE
8
Слой 1
10
107.051968
20
201.759220
11
107.156780
21
202.601746
0
LINE
8
Слой 1
10
107.156780
20
202.601746
11
107.076155
21
204.435956
0
LINE
8
Слой 1
10
107.076155
20
204.435956
11
106.511780
21
207.890716
0
LINE
8
Слой 1
10
106.511780
20
207.890716
11
105.725696
21
211.676035
0
LINE
8
Слой 1
10
105.725696
20
211.676035
11
105.192064
21
213.799988
0
LINE
8
Слой 1
10
105.192064
20
213.799988
11
104.286550
21
216.694916
0
LINE
8
Слой 1
10
104.286550
20
216.694916
11
102.983452
21
220.288244
0
LINE
8
Слой 1
10
102.983452
20
220.288244
11
101.432438
21
224.011580
0
LINE
8
Слой 1
10
101.432438
20
224.011580
11
99.687927
21
227.583759
0
LINE
8
Слой 1
10
99.687927
20
227.583759
11
97.804340
21
230.723616
0
LINE
8
Слой 1
10
97.804340
20
230.723616
11
95.266801
21
234.285909
0
LINE
8
Слой 1
10
95.266801
20
234.285909
11
93.160370
21
236.593076
0
LINE
8
Слой 1
10
93.160370
20
236.593076
11
92.621004
21
237.012016
0
LINE
8
Слой 1
10
92.621004
20
237.012016
11
92.167473
21
237.086469
0
LINE
8
Слой 1
10
92.167473
20
237.086469
11
91.790864
21
236.881464
0
LINE
8
Слой 1
10
91.790864
20
236.881464
11
91.482265
21
236.462027
0
LINE
8
Слой 1
10
91.482265
20
236.462027
11
91.033442
21
235.239972
0
LINE
8
Слой 1
10
91.033442
20
235.239972
11
90.749700
21
233.940526
0
LINE
8
Слой 1
10
90.749700
20
233.940526
11
89.533609
21
226.070084
0
LINE
8
Слой 1
10
89.533609
20
226.070084
11
88.516400
21
217.823726
0
LINE
8
Слой 1
10
88.516400
20
217.823726
11
88.236772
21
211.985307
0
LINE
8
Слой 1
10
88.236772
20
211.985307
11
88.214414
21
207.458526
0
LINE
8
Слой 1
10
88.214414
20
207.458526
11
88.443075
21
206.546030
0
LINE
8
Слой 1
10
88.443075
20
206.546030
11
88.890756
21
205.550395
0
LINE
8
Слой 1
10
88.890756
20
205.550395
11
89.688509
21
204.504261
0
LINE
8
Слой 1
10
89.688509
20
204.504261
11
90.967384
21
203.440266
0
LINE
8
Слой 1
10
90.967384
20
203.440266
11
92.579888
21
202.455644
0
LINE
8
Слой 1
10
92.579888
20
202.455644
11
94.388434
21
201.907926
0
LINE
8
Слой 1
10
94.388434
20
201.907926
11
95.837104
21
201.602027
0
LINE
8
Слой 1
10
95.837104
20
201.602027
11
95.837100
21
201.602000
 0 
ENDSEC
 0 
EOF