<?xml version="1.0" encoding="UTF-8" standalone="no"?>
<!-- Created with Inkscape (http://www.inkscape.org/) -->

<svg
   width="210mm"
   height="297mm"
   viewBox="0 0 210 297"
   version="1.1"
   id="svg3930"
   inkscape:version="1.2.2 (b0a8486541, 2022-12-01)"
   sodipodi:docname="CIT_mini.svg"
   xmlns:inkscape="http://www.inkscape.org/namespaces/inkscape"
   xmlns:sodipodi="http://sodipodi.sourceforge.net/DTD/sodipodi-0.dtd"
   xmlns="http://www.w3.org/2000/svg"
   xmlns:svg="http://www.w3.org/2000/svg">
  <sodipodi:namedview
     id="namedview3932"
     pagecolor="#505050"
     bordercolor="#eeeeee"
     borderopacity="1"
     inkscape:showpageshadow="0"
     inkscape:pageopacity="0"
     inkscape:pagecheckerboard="0"
     inkscape:deskcolor="#505050"
     inkscape:document-units="mm"
     showgrid="false"
     inkscape:zoom="0.72515432"
     inkscape:cx="397.15684"
     inkscape:cy="561.94935"
     inkscape:window-width="1920"
     inkscape:window-height="1001"
     inkscape:window-x="-9"
     inkscape:window-y="-9"
     inkscape:window-maximized="1"
     inkscape:current-layer="layer1" />
  <defs
     id="defs3927" />
  <g
     inkscape:label="Слой 1"
     inkscape:groupmode="layer"
     id="layer1">
    <path
       style="fill:#d02a15;fill-opacity:0;stroke:#d02a15;stroke-width:0.239;stroke-opacity:1"
       d="m 56.427849,97.461967 c 2.128488,0.999744 5.450218,2.192988 6.933707,2.612233 1.483493,0.41925 7.159456,1.90274 9.158944,2.22524 1.999488,0.3225 6.320962,0.87074 8.4172,0.87074 2.096236,0 6.062961,-0.129 7.868952,-0.41925 1.805987,-0.29024 3.257229,-0.61274 3.611977,-0.67724 0.354749,-0.0645 0.564373,-0.258 0.69337,-0.4515 0.129,-0.1935 0.185436,-0.46762 0.137062,-0.62081 -0.04837,-0.15318 -0.02418,-0.29025 -0.540184,-0.73368 -0.515998,-0.443435 -2.97561,-2.514205 -4.229832,-3.563193 -1.254223,-1.048985 -10.877534,-8.27787 -12.793075,-9.554898 -1.915541,-1.277027 -3.443412,-2.211993 -4.72044,-2.987331 -1.277027,-0.775337 -1.716005,-0.952068 -2.109374,-1.066088 -0.39337,-0.114022 -1.180111,-0.364866 -1.92124,-0.228042 -0.741133,0.136824 -1.664698,0.290751 -2.46284,0.763937 -0.798142,0.473184 -1.771639,1.010587 -2.690759,1.994204 -0.919121,0.983621 -2.43486,2.805735 -3.789352,4.643972 -1.354492,1.838241 -2.644484,3.773228 -2.757358,3.918352 -0.112874,0.145124 -0.43715,0.731478 -0.391542,1.312982 0.04561,0.581504 0.09692,0.815245 0.376267,1.145902 0.27935,0.330661 0.507389,0.490289 0.672719,0.575802 0.165331,0.08552 0.535798,0.238668 0.535798,0.238668 z"
       id="path1956" />
    <path
       style="fill:#d02a15;fill-opacity:0;stroke:#d02a15;stroke-width:0.239;stroke-opacity:1"
       d="m 58.218064,81.494204 c 0,0 4.081926,-1.368242 7.069257,-2.53125 2.987331,-1.163005 5.951857,-2.211993 9.395272,-3.785473 3.443412,-1.57348 6.886824,-3.374999 8.141046,-4.036317 1.254223,-0.661318 1.801519,-0.843751 2.371622,-1.368242 0.570101,-0.524494 1.277027,-1.208617 1.482262,-2.189192 0.205237,-0.980572 0.3957,-1.10576 0.403765,-3.064936 0.0081,-1.959176 -0.586195,-3.753474 -0.905452,-4.551616 -0.319257,-0.798142 -3.061274,-7.098624 -3.319275,-7.646871 -0.257997,-0.548246 -0.540183,-1.394804 -1.660863,-1.483491 -1.12068,-0.08869 -1.410928,-0.04837 -2.289736,0.693371 -0.878808,0.741746 -3.805476,2.854108 -4.974532,3.950602 -1.169056,1.096492 -4.119911,3.797414 -6.474147,6.635396 -2.354236,2.837981 -4.740723,5.804963 -6.127465,8.513947 -1.386739,2.708984 -3.224979,6.595086 -3.757101,8.207576 -0.53212,1.61249 -0.612746,1.628614 -0.580496,1.918862 0.03225,0.290248 -0.02822,0.467622 0.270092,0.640966 0.298312,0.173342 0.669184,0.189468 0.761902,0.169309 0.09272,-0.02016 0.193849,-0.07264 0.193849,-0.07264 z"
       id="path1958" />
    <path
       style="fill:#d02a15;fill-opacity:0;stroke:#d02a15;stroke-width:0.239;stroke-opacity:1"
       d="m 95.837107,95.397981 c 4.611723,0.709496 6.707963,0.999744 7.901203,1.064242 1.19324,0.0645 2.22524,0 2.77348,-0.548246 0.54825,-0.548246 0.67725,-0.741746 0.645,-1.51574 -0.0323,-0.773996 0.0323,-2.354236 -0.645,-5.288967 -0.67724,-2.934732 -0.67724,-4.224724 -2.22523,-8.804196 -1.548,-4.579472 -3.90223,-10.255438 -6.482215,-14.028666 -2.579984,-3.773225 -2.638799,-3.769725 -4.643969,-5.869464 -1.56068,-1.634286 -2.110708,1.099568 -2.410675,2.652547 -0.426426,2.207679 -2.07205,13.407855 -2.233297,16.116839 -0.161251,2.708984 -0.483761,9.405069 -0.301986,10.365153 0.217113,1.146733 0.668809,2.602197 2.752969,4.018258 1.287942,0.875079 1.871716,1.239801 3.42105,1.532341 0.763192,0.144104 1.44867,0.305899 1.44867,0.305899 z"
       id="path1960"
       sodipodi:nodetypes="cssssssssssssc" />
  </g>
</svg>
