<?xml version="1.0" encoding="UTF-8" standalone="no"?>
<!-- Created with Inkscape (http://www.inkscape.org/) -->

<svg
   width="210mm"
   height="297mm"
   viewBox="0 0 210 297"
   version="1.1"
   id="svg3431"
   xml:space="preserve"
   inkscape:version="1.2.2 (b0a8486541, 2022-12-01)"
   sodipodi:docname="MEPhI-old.svg"
   xmlns:inkscape="http://www.inkscape.org/namespaces/inkscape"
   xmlns:sodipodi="http://sodipodi.sourceforge.net/DTD/sodipodi-0.dtd"
   xmlns="http://www.w3.org/2000/svg"
   xmlns:svg="http://www.w3.org/2000/svg"><sodipodi:namedview
     id="namedview3433"
     pagecolor="#505050"
     bordercolor="#eeeeee"
     borderopacity="1"
     inkscape:showpageshadow="0"
     inkscape:pageopacity="0"
     inkscape:pagecheckerboard="0"
     inkscape:deskcolor="#505050"
     inkscape:document-units="mm"
     showgrid="false"
     inkscape:zoom="0.25638077"
     inkscape:cx="470.00405"
     inkscape:cy="731.3341"
     inkscape:window-width="1920"
     inkscape:window-height="1001"
     inkscape:window-x="-9"
     inkscape:window-y="-9"
     inkscape:window-maximized="1"
     inkscape:current-layer="layer1" /><defs
     id="defs3428" /><g
     inkscape:label="Слой 1"
     inkscape:groupmode="layer"
     id="layer1"><path
       style="fill:#000000;stroke-width:0.0942435"
       d="m 32.258948,191.31382 c -0.798278,-0.15941 -0.82161,-0.20764 -0.811637,-1.67749 0.01002,-1.47615 0.0961,-1.74936 0.593749,-1.88441 0.20296,-0.0551 9.067384,-0.0978 23.042546,-0.11112 12.491981,-0.0119 23.285222,-0.0318 23.984981,-0.0443 0.699758,-0.0125 5.449632,-0.0182 10.555276,-0.0127 5.105644,0.005 15.064667,4.7e-4 22.131167,-0.0112 12.62221,-0.0208 12.85052,-0.018 12.98205,0.16171 0.10187,0.13921 0.13387,0.52781 0.13387,1.6257 0,1.80937 0.0308,1.76472 -1.28138,1.85505 -0.51334,0.0353 -3.41431,0.0614 -6.44659,0.058 -3.03229,-0.004 -15.64914,0.0209 -28.037456,0.054 -38.52195,0.10321 -56.284153,0.0991 -56.846576,-0.0132 z m 96.052792,-0.21667 c -0.47739,-0.10215 -0.5083,-0.2877 -0.52448,-3.14851 -0.0146,-2.57204 -0.0646,-3.19081 -0.27497,-3.40102 -0.0745,-0.0744 -0.62061,-0.0931 -1.82152,-0.0625 -0.94332,0.0241 -3.49634,0.0453 -5.67336,0.0471 -3.93574,0.003 -3.96198,0.002 -4.61794,-0.2228 -1.31705,-0.45138 -2.81013,-1.68527 -3.31869,-2.74257 -0.31324,-0.65121 -0.3316,-1.06388 -0.30626,-6.87978 0.0139,-3.18779 0.0222,-6.57491 0.0184,-7.52693 -0.006,-1.45697 0.0216,-1.8201 0.17302,-2.29412 0.28022,-0.8772 0.628,-1.43273 1.30769,-2.08892 0.5288,-0.51051 0.72896,-0.63686 1.28202,-0.80928 1.20547,-0.37582 4.02248,-0.48379 10.22111,-0.39174 2.27708,0.0338 2.59062,0.02 2.78573,-0.12248 0.17271,-0.12615 0.18557,-0.30246 0.23006,-3.15396 0.0427,-2.73784 0.0629,-3.03607 0.21563,-3.18847 0.1528,-0.15245 0.39042,-0.16812 2.54885,-0.16812 2.09452,0 2.4101,0.0195 2.62814,0.16245 0.31118,0.204 0.33387,0.39738 0.40661,3.46592 0.0561,2.36701 0.12555,2.87696 0.40311,2.96035 0.0875,0.0263 0.94368,0.0419 1.9026,0.0346 0.95893,-0.007 3.77917,-0.005 6.2672,0.005 4.85975,0.0199 4.99513,0.0319 5.98044,0.5323 0.60752,0.30853 1.02308,0.74083 1.30237,1.35485 0.13299,0.29238 0.33949,0.68048 0.45889,0.86246 0.24434,0.3724 0.37301,1.49011 0.40674,3.53311 0.0103,0.62201 0.0374,1.25815 0.0603,1.41366 0.0561,0.38068 -0.14648,10.29596 -0.23599,11.54911 -0.0541,0.75785 -0.12518,1.10471 -0.29927,1.46077 -0.35295,0.72193 -1.14746,1.46399 -2.02112,1.8877 -0.98161,0.47606 -1.09919,0.48201 -7.77288,0.39346 -5.53468,-0.0734 -6.1263,-0.0451 -6.31247,0.30281 -0.0487,0.0909 -0.094,0.86044 -0.10077,1.71007 -0.0142,1.78057 -0.13569,4.01436 -0.23131,4.25245 -0.036,0.0897 -0.22031,0.20608 -0.40953,0.25864 -0.36956,0.10265 -4.21031,0.11415 -4.67834,0.014 z m 9.89467,-12.22159 c 1.45135,-0.0208 2.91848,-0.0537 3.26027,-0.0732 1.10401,-0.063 2.06704,-0.65981 2.5413,-1.57492 0.21681,-0.41838 0.21757,-0.43313 0.22378,-4.38487 l 0.006,-3.96509 -0.28587,-0.46292 c -0.21653,-0.35062 -0.41639,-0.52966 -0.82386,-0.73805 -0.50389,-0.25771 -0.62909,-0.2787 -1.97598,-0.3313 -0.79089,-0.0309 -2.69806,-0.0562 -4.23816,-0.0562 -2.56032,0 -2.8146,0.0144 -2.96867,0.16797 -0.14558,0.14513 -0.17571,0.40785 -0.22161,1.93199 -0.0292,0.97022 -0.0504,3.38504 -0.0471,5.36628 0.006,3.56131 0.008,3.60457 0.20949,3.8057 0.25175,0.25167 1.01957,0.47354 1.39864,0.40415 0.1555,-0.0285 1.4702,-0.0688 2.92155,-0.0895 z m -10.77376,-0.249 c 0.18707,-0.12258 0.25054,-0.26261 0.29796,-0.6575 0.0331,-0.27596 0.0606,-2.71764 0.0611,-5.42597 9.4e-4,-4.79913 -0.004,-4.92901 -0.18767,-5.11271 -0.10367,-0.10367 -0.2627,-0.19374 -0.35341,-0.20017 -0.0907,-0.006 -0.31631,-0.0218 -0.50134,-0.0341 -0.18502,-0.0123 -0.58791,-0.0569 -0.89531,-0.0989 -0.3074,-0.042 -0.5825,-0.0718 -0.61134,-0.0662 -0.10656,0.0208 -1.8578,0.12918 -2.63351,0.16294 -0.44058,0.0192 -0.99191,0.0565 -1.22516,0.083 -0.23325,0.0265 -0.74931,0.0692 -1.1468,0.095 -1.16969,0.0757 -1.68624,0.44504 -2.12506,1.51925 -0.17925,0.43878 -0.19586,0.72611 -0.24128,4.17305 -0.0508,3.85837 -0.0294,4.14105 0.34559,4.56207 0.31578,0.35451 0.9453,0.81511 1.39086,1.01763 0.38891,0.17677 0.596,0.18518 3.99892,0.16242 3.15225,-0.0211 3.61769,-0.0429 3.82648,-0.17976 z m 10.54159,12.38111 c -0.31422,-0.0953 -0.36004,-0.31874 -0.37102,-1.80962 -0.0119,-1.61589 0.0288,-1.69485 0.86667,-1.68156 0.32159,0.005 0.89516,-0.0357 1.2746,-0.0907 0.45303,-0.0657 4.12552,-0.099 10.69664,-0.0973 5.50371,0.001 14.71422,-0.0266 20.46779,-0.0623 11.85478,-0.0737 13.16617,-0.0686 13.48467,0.0525 0.12527,0.0476 0.23183,0.0983 0.23682,0.11249 0.0838,0.23951 0.13637,2.39755 0.0667,2.73721 -0.16342,0.79697 0.22249,0.75369 -7.04979,0.79071 -16.41859,0.0836 -39.46445,0.11177 -39.67309,0.0485 z M 32.418035,184.8059 c -0.617835,-0.11857 -0.835031,-0.23834 -0.930896,-0.51333 -0.05895,-0.16911 -0.119278,-2.04789 -0.151912,-4.73092 -0.02977,-2.44773 -0.07345,-5.17139 -0.09707,-6.05256 -0.13993,-5.22117 -0.233155,-24.58267 -0.118913,-24.69679 0.12877,-0.12864 0.535465,0.24046 1.275532,1.15763 0.806374,0.99934 1.373467,1.78575 1.943143,2.69466 0.31998,0.51052 1.390166,2.00925 2.131721,2.98535 0.137826,0.18142 0.52308,0.72995 0.856117,1.21895 1.037755,1.52377 1.912666,2.7868 2.985263,4.30955 0.297996,0.42306 1.131722,1.61053 1.852725,2.63882 0.721003,1.02829 1.529831,2.16648 1.797395,2.52932 0.267564,0.36284 0.810783,1.12621 1.207154,1.69638 1.183976,1.70313 3.008948,4.22192 3.175184,4.38233 0.02686,0.0259 0.195085,0.25917 0.373835,0.51834 0.17875,0.25917 0.351894,0.49242 0.384765,0.51834 0.03287,0.0259 0.617426,0.88334 1.299013,1.90538 0.681587,1.02204 1.300257,1.93385 1.374824,2.02624 0.868293,1.0758 1.124035,1.34601 1.273923,1.34601 0.272485,0 0.706247,-0.54926 2.195551,-2.78018 0.761266,-1.14035 1.871569,-2.77312 2.467341,-3.62838 0.595771,-0.85526 1.613701,-2.33959 2.262066,-3.29852 0.648364,-0.95893 1.566325,-2.29483 2.039912,-2.96867 0.473587,-0.67384 1.309809,-1.89691 1.858271,-2.71794 0.548461,-0.82102 1.101538,-1.56113 1.22906,-1.64468 0.184941,-0.12118 0.634579,-0.16578 2.222099,-0.22041 2.90829,-0.10007 6.795191,-0.0958 7.067527,0.008 0.129807,0.0494 0.291605,0.18719 0.359549,0.30629 0.131819,0.23109 0.172138,3.46298 0.20022,16.04948 0.01489,6.67183 0.01559,6.66277 -0.531363,6.82594 -0.164599,0.0491 -1.412878,0.0794 -2.773953,0.0674 -2.20653,-0.0195 -2.492466,-0.0396 -2.638819,-0.18568 -0.245602,-0.2451 -0.273123,-1.12396 -0.292433,-9.33843 -0.0095,-4.03862 -0.04212,-7.44199 -0.0725,-7.56304 -0.07721,-0.30763 -0.253714,-0.27445 -0.540537,0.10159 -0.134953,0.17693 -0.307205,0.38353 -0.382783,0.45911 -0.07558,0.0756 -0.236311,0.28069 -0.357186,0.45581 -0.120874,0.17512 -0.517072,0.72129 -0.880439,1.21372 -0.363368,0.49242 -0.722794,0.98712 -0.798724,1.09933 -1.012544,1.49631 -1.940719,2.83892 -2.627947,3.80133 -0.462663,0.64793 -1.714949,2.47154 -2.782856,4.05247 -4.102829,6.07385 -3.805893,5.68941 -4.511351,5.84071 -0.563567,0.12086 -5.015665,0.1107 -5.583566,-0.0127 -0.550652,-0.1197 -0.934516,-0.56543 -2.54359,-2.95353 -5.147424,-7.63956 -5.788217,-8.57816 -7.248903,-10.61787 -0.309427,-0.43208 -0.792404,-1.12488 -1.073283,-1.53955 -0.671522,-0.99139 -1.224736,-1.64926 -1.386897,-1.64926 -0.07194,0 -0.159386,0.11392 -0.194332,0.25316 -0.03495,0.13923 -0.0336,3.56381 0.003,7.61016 0.0366,4.04635 0.06361,7.54785 0.06003,7.7811 -0.01892,1.23299 -0.06448,1.25297 -2.924632,1.28235 -1.218098,0.0125 -2.320747,0.002 -2.450332,-0.0225 z m 48.865275,-0.0468 c -0.725675,-0.0325 -1.331062,-0.0644 -1.345303,-0.0707 -0.225625,-0.10019 -0.298297,-1.87528 -0.351468,-8.58498 -0.08652,-10.91838 -0.07853,-13.99795 0.0369,-14.21363 0.06066,-0.11335 0.225697,-0.23839 0.366744,-0.27788 0.141048,-0.0395 1.254988,-0.0718 2.475425,-0.0718 1.906021,0 2.252529,0.022 2.456889,0.15596 0.390504,0.25598 0.466425,0.86829 0.460429,3.71339 -0.0082,3.89559 0.09048,12.57429 0.148069,13.02161 0.02821,0.21908 0.08476,0.41902 0.125665,0.4443 0.09394,0.0581 0.451017,-0.32833 0.865826,-0.93688 0.176657,-0.25917 0.34583,-0.49243 0.375939,-0.51834 0.03011,-0.0259 0.338953,-0.47122 0.686322,-0.98956 0.778844,-1.16219 1.068318,-1.5684 2.069743,-2.90444 0.434423,-0.57959 1.175362,-1.60511 1.646529,-2.27896 0.471168,-0.67384 1.05102,-1.50082 1.28856,-1.83775 0.237541,-0.33692 0.55724,-0.80342 0.710443,-1.03667 0.153202,-0.23326 0.450484,-0.65735 0.660625,-0.94244 0.210141,-0.28509 0.525407,-0.73039 0.700592,-0.98956 1.1443,-1.69289 3.110843,-4.40067 3.373038,-4.64441 0.149543,-0.13902 0.42777,-0.24546 0.787517,-0.30127 0.629163,-0.0976 7.204496,-0.0602 7.596696,0.0432 0.17622,0.0465 0.28619,0.1621 0.35636,0.37474 0.11669,0.35356 0.17832,21.92101 0.0636,22.25894 -0.13663,0.40251 -0.51085,0.45824 -3.03094,0.45137 -2.53103,-0.007 -2.71193,-0.0374 -2.88248,-0.48597 -0.0919,-0.24183 -0.18067,-6.24446 -0.18634,-12.60746 -0.003,-2.78904 -0.0549,-3.72063 -0.21869,-3.88438 -0.0494,-0.0495 -0.25419,0.14789 -0.815122,0.78572 -0.279243,0.31752 -0.747928,1.00889 -0.934645,1.37872 -0.07197,0.14254 -0.166092,0.25917 -0.209167,0.25917 -0.04308,0 -0.07832,0.0436 -0.07832,0.0969 0,0.0533 -0.203406,0.36079 -0.452014,0.68326 -0.248608,0.32248 -0.934733,1.26488 -1.524722,2.09422 -0.589989,0.82934 -1.226724,1.69874 -1.414965,1.93199 -0.327802,0.40619 -0.608555,0.81351 -2.306027,3.34565 -0.416976,0.62201 -0.992875,1.44899 -1.279776,1.83775 -0.483394,0.655 -1.216448,1.70221 -2.243014,3.20428 -0.652529,0.95477 -1.015398,1.29237 -1.512675,1.40731 -0.510591,0.11802 -4.569773,0.17359 -6.466253,0.0885 z m 76.1173,-0.45915 c -0.8738,-0.0386 -1.09007,-0.0772 -1.18866,-0.21238 -0.22032,-0.30209 -0.26358,-1.51486 -0.38738,-10.86124 -0.0766,-5.78239 -0.0744,-10.24895 0.005,-10.83801 0.0351,-0.25917 0.11985,-0.52949 0.1883,-0.60071 0.0687,-0.0714 0.45572,-0.16422 0.86337,-0.20696 0.88674,-0.093 3.93823,-0.11219 4.36187,-0.0275 0.58761,0.11752 0.55941,-0.24851 0.61418,7.97041 0.0477,7.15517 0.1022,8.595 0.34245,9.04391 0.1007,0.18817 0.10351,0.18796 0.32913,-0.024 0.12516,-0.11758 0.53209,-0.61988 0.90429,-1.11622 0.3722,-0.49634 0.93119,-1.24171 1.24219,-1.65638 1.29921,-1.7323 1.50481,-2.01999 2.0541,-2.87443 0.31657,-0.49242 0.73274,-1.08615 0.92483,-1.31941 0.19208,-0.23325 0.54319,-0.70979 0.78023,-1.05897 0.23704,-0.34918 0.61923,-0.85809 0.84929,-1.13092 0.23007,-0.27283 0.64733,-0.83114 0.92725,-1.24069 0.27992,-0.40956 0.64919,-0.93968 0.82061,-1.17805 0.17142,-0.23837 0.61672,-0.86568 0.98956,-1.39403 0.37284,-0.52835 1.04786,-1.48349 1.50007,-2.12253 0.4522,-0.63904 0.99241,-1.3281 1.20044,-1.53125 l 0.37826,-0.36935 1.34413,-0.0675 c 2.2746,-0.11415 7.67644,-0.0578 7.81567,0.0815 0.24062,0.24078 0.3433,4.14435 0.34819,13.23773 0.003,5.40468 -0.03,8.92986 -0.0844,9.03146 -0.0524,0.0979 -0.28583,0.20883 -0.56603,0.26892 -0.60274,0.12927 -4.939,0.13685 -5.17779,0.009 -0.31131,-0.16661 -0.36497,-1.42847 -0.38282,-9.0013 -0.0148,-6.28699 -0.0812,-8.74614 -0.24058,-8.90547 -0.0708,-0.0708 -0.17235,-0.0434 -0.34584,0.093 -0.2339,0.18399 -1.04996,1.2175 -1.60044,2.02691 -0.14102,0.20733 -0.41613,0.59556 -0.61138,0.86273 -0.73255,1.00234 -1.30242,1.79893 -1.81035,2.53056 -0.28807,0.41497 -0.68579,0.96629 -0.88381,1.22517 -0.19802,0.25888 -0.58723,0.78876 -0.86489,1.17752 -0.27767,0.38875 -0.76578,1.0673 -1.08468,1.50789 -0.31891,0.44059 -1.11718,1.55887 -1.77394,2.48506 -0.65675,0.9262 -1.34253,1.89026 -1.52395,2.14237 -0.18141,0.2521 -0.71153,0.99414 -1.17804,1.64897 -1.2645,1.77497 -1.60767,2.17718 -1.95553,2.29198 -0.33509,0.11059 -5.31308,0.18189 -7.12333,0.10203 z M 75.73845,158.60425 c -0.0085,-0.008 -1.669483,-0.0345 -3.691007,-0.0591 -2.34412,-0.0285 -3.769377,-0.0822 -3.934668,-0.14823 -0.298127,-0.11906 -0.321827,-0.27789 -0.104735,-0.70187 0.308499,-0.60249 1.474424,-2.24132 1.670578,-2.34816 0.294993,-0.16069 3.39033,-0.24457 9.389969,-0.25448 3.940337,-0.006 12.354399,-0.072 14.230774,-0.11082 0.07775,-0.002 3.640157,-0.002 7.916459,-0.002 4.2763,4.8e-4 9.47148,1e-4 11.54483,-7.5e-4 11.56356,-0.005 11.65641,-8.5e-4 11.77294,0.55408 0.0837,0.3987 0.0952,2.30503 0.0153,2.54926 -0.0919,0.28117 -0.38699,0.3874 -1.26976,0.45718 -0.57557,0.0455 -17.80004,0.0614 -43.362401,0.0401 -1.63277,-0.001 -3.237356,0.007 -3.565746,0.0184 -0.328391,0.0115 -0.604053,0.0144 -0.612583,0.007 z m 62.26801,-0.21939 c -0.23737,-0.0962 -0.2831,-0.26149 -0.36803,-1.32948 -0.0748,-0.94071 0.0696,-1.83027 0.31873,-1.9636 0.38487,-0.20598 -0.91384,-0.19289 33.65858,-0.33924 6.50516,-0.0275 11.9548,-0.0152 12.1103,0.0274 0.18923,0.0519 0.3349,0.18517 0.44047,0.40305 0.19537,0.40317 0.28442,1.76299 0.15569,2.37715 -0.1094,0.5219 -0.32611,0.67741 -1.06846,0.76673 -0.75474,0.0908 -45.02641,0.1475 -45.24728,0.058 z M 34.585636,145.12275 c -0.336921,-0.18504 -0.900031,-0.52143 -1.251355,-0.74753 -1.1234,-0.72296 -1.825479,-1.07127 -2.155653,-1.06942 -0.19498,0.001 -0.603782,0.16182 -1.06956,0.42052 -2.250717,1.25012 -3.215486,1.66584 -3.307776,1.42534 -0.04635,-0.12078 0.103451,-0.61154 0.806774,-2.64307 0.214269,-0.61891 0.37694,-1.23331 0.361491,-1.36533 -0.02088,-0.17846 -0.209425,-0.36549 -0.734917,-0.72904 -2.479764,-1.71558 -2.481628,-1.81156 -0.03557,-1.83227 0.819372,-0.007 1.582058,-0.0547 1.694858,-0.10605 0.222217,-0.10125 0.550554,-0.79307 1.357597,-2.86053 0.501704,-1.28525 0.780395,-1.82993 0.936289,-1.82993 0.198018,0 0.489116,0.44634 0.764518,1.17226 0.158529,0.41785 0.343518,0.88696 0.411088,1.04246 0.06757,0.1555 0.278286,0.69069 0.468259,1.18931 0.189974,0.49861 0.419322,0.97346 0.509661,1.05522 0.129412,0.11712 0.566311,0.16943 2.059748,0.24662 1.998886,0.10332 2.200343,0.1351 2.200343,0.34713 0,0.13826 -0.11351,0.22266 -1.649262,1.22641 -1.545773,1.01029 -1.640654,1.16306 -1.309406,2.10826 0.468449,1.3367 0.963686,3.04173 0.918042,3.16068 -0.07959,0.20741 -0.30017,0.15967 -0.975167,-0.21104 z"
       id="path5574" /></g></svg>
