999
"DXF R12 Output" (www.mydxf.blogspot.com)
 0 
SECTION
 2 
HEADER
 9 
$ACADVER
 1 
AC1009
 9 
$EXTMIN
 10 
 0 
 20 
 0 
 9 
$EXTMAX
 10 
 8.5 
 20 
 11 
 0 
ENDSEC
 0 
SECTION
 2 
ENTITIES
0
LINE
8
Слой 1
10
32.258900
20
105.686000
11
31.793906
21
105.808661
0
LINE
8
Слой 1
10
31.793906
20
105.808661
11
31.549987
21
106.033330
0
LINE
8
Слой 1
10
31.549987
20
106.033330
11
31.447263
21
107.363490
0
LINE
8
Слой 1
10
31.447263
20
107.363490
11
31.561277
21
108.808608
0
LINE
8
Слой 1
10
31.561277
20
108.808608
11
31.739702
21
109.104070
0
LINE
8
Слой 1
10
31.739702
20
109.104070
11
32.041012
21
109.247900
0
LINE
8
Слой 1
10
32.041012
20
109.247900
11
55.083512
21
109.359020
0
LINE
8
Слой 1
10
55.083512
20
109.359020
11
79.068512
21
109.403320
0
LINE
8
Слой 1
10
79.068512
20
109.403320
11
89.623812
21
109.416020
0
LINE
8
Слой 1
10
89.623812
20
109.416020
11
111.755012
21
109.427220
0
LINE
8
Слой 1
10
111.755012
20
109.427220
11
122.930037
21
109.421556
0
LINE
8
Слой 1
10
122.930037
20
109.421556
11
124.428137
21
109.369517
0
LINE
8
Слой 1
10
124.428137
20
109.369517
11
124.737112
21
109.265510
0
LINE
8
Слой 1
10
124.737112
20
109.265510
11
124.870982
21
107.639810
0
LINE
8
Слой 1
10
124.870982
20
107.639810
11
124.855292
21
106.599333
0
LINE
8
Слой 1
10
124.855292
20
106.599333
11
124.722359
21
106.067645
0
LINE
8
Слой 1
10
124.722359
20
106.067645
11
124.343394
21
105.858277
0
LINE
8
Слой 1
10
124.343394
20
105.858277
11
123.589602
21
105.784760
0
LINE
8
Слой 1
10
123.589602
20
105.784760
11
117.143012
21
105.726760
0
LINE
8
Слой 1
10
117.143012
20
105.726760
11
89.105512
21
105.672760
0
LINE
8
Слой 1
10
89.105512
20
105.672760
11
46.447400
21
105.598544
0
LINE
8
Слой 1
10
46.447400
20
105.598544
11
32.258912
21
105.685960
0
LINE
8
Слой 1
10
32.258912
20
105.685960
11
32.258900
21
105.686000
0
LINE
8
Слой 1
10
128.311700
20
105.902670
11
128.030626
21
106.035418
0
LINE
8
Слой 1
10
128.030626
20
106.035418
11
127.876506
21
106.442427
0
LINE
8
Слой 1
10
127.876506
20
106.442427
11
127.787220
21
109.051180
0
LINE
8
Слой 1
10
127.787220
20
109.051180
11
127.723149
21
111.637376
0
LINE
8
Слой 1
10
127.723149
20
111.637376
11
127.512250
21
112.452200
0
LINE
8
Слой 1
10
127.512250
20
112.452200
11
125.690730
21
112.514700
0
LINE
8
Слой 1
10
125.690730
20
112.514700
11
120.017370
21
112.467600
0
LINE
8
Слой 1
10
120.017370
20
112.467600
11
116.478482
21
112.493575
0
LINE
8
Слой 1
10
116.478482
20
112.493575
11
115.399430
21
112.690400
0
LINE
8
Слой 1
10
115.399430
20
112.690400
11
114.396770
21
113.160670
0
LINE
8
Слой 1
10
114.396770
20
113.160670
11
113.436901
21
113.834465
0
LINE
8
Слой 1
10
113.436901
20
113.834465
11
112.628624
21
114.621870
0
LINE
8
Слой 1
10
112.628624
20
114.621870
11
112.080740
21
115.432970
0
LINE
8
Слой 1
10
112.080740
20
115.432970
11
111.897175
21
115.964804
0
LINE
8
Слой 1
10
111.897175
20
115.964804
11
111.800642
21
116.936101
0
LINE
8
Слой 1
10
111.800642
20
116.936101
11
111.774480
21
122.312750
0
LINE
8
Слой 1
10
111.774480
20
122.312750
11
111.792880
21
129.839680
0
LINE
8
Слой 1
10
111.792880
20
129.839680
11
111.820358
21
131.355346
0
LINE
8
Слой 1
10
111.820358
20
131.355346
11
111.965900
21
132.133800
0
LINE
8
Слой 1
10
111.965900
20
132.133800
11
112.469944
21
133.261139
0
LINE
8
Слой 1
10
112.469944
20
133.261139
11
113.273590
21
134.222720
0
LINE
8
Слой 1
10
113.273590
20
134.222720
11
113.905502
21
134.754144
0
LINE
8
Слой 1
10
113.905502
20
134.754144
11
114.555610
21
135.032000
0
LINE
8
Слой 1
10
114.555610
20
135.032000
11
115.789534
21
135.264703
0
LINE
8
Слой 1
10
115.789534
20
135.264703
11
117.793729
21
135.403321
0
LINE
8
Слой 1
10
117.793729
20
135.403321
11
124.776710
21
135.423740
0
LINE
8
Слой 1
10
124.776710
20
135.423740
11
126.950314
21
135.418875
0
LINE
8
Слой 1
10
126.950314
20
135.418875
11
127.562440
21
135.546220
0
LINE
8
Слой 1
10
127.562440
20
135.546220
11
127.725552
21
136.101194
0
LINE
8
Слой 1
10
127.725552
20
136.101194
11
127.792500
21
138.700180
0
LINE
8
Слой 1
10
127.792500
20
138.700180
11
127.859054
21
141.263955
0
LINE
8
Слой 1
10
127.859054
20
141.263955
11
128.008130
21
141.888650
0
LINE
8
Слой 1
10
128.008130
20
141.888650
11
128.530444
21
142.029879
0
LINE
8
Слой 1
10
128.530444
20
142.029879
11
130.556980
21
142.056770
0
LINE
8
Слой 1
10
130.556980
20
142.056770
11
132.574730
21
142.029151
0
LINE
8
Слой 1
10
132.574730
20
142.029151
11
133.185120
21
141.894320
0
LINE
8
Слой 1
10
133.185120
20
141.894320
11
133.369703
21
141.698221
0
LINE
8
Слой 1
10
133.369703
20
141.698221
11
133.477840
21
141.235562
0
LINE
8
Слой 1
10
133.477840
20
141.235562
11
133.591730
21
138.428400
0
LINE
8
Слой 1
10
133.591730
20
138.428400
11
133.710237
21
136.091867
0
LINE
8
Слой 1
10
133.710237
20
136.091867
11
133.822647
21
135.632924
0
LINE
8
Слой 1
10
133.822647
20
135.632924
11
133.994840
21
135.468050
0
LINE
8
Слой 1
10
133.994840
20
135.468050
11
135.897440
21
135.433450
0
LINE
8
Слой 1
10
135.897440
20
135.433450
11
142.164640
21
135.428450
0
LINE
8
Слой 1
10
142.164640
20
135.428450
11
146.607775
21
135.342487
0
LINE
8
Слой 1
10
146.607775
20
135.342487
11
147.478361
21
135.187630
0
LINE
8
Слой 1
10
147.478361
20
135.187630
11
148.145080
21
134.896150
0
LINE
8
Слой 1
10
148.145080
20
134.896150
11
148.919351
21
134.333284
0
LINE
8
Слой 1
10
148.919351
20
134.333284
11
149.447450
21
133.541300
0
LINE
8
Слой 1
10
149.447450
20
133.541300
11
149.906340
21
132.678840
0
LINE
8
Слой 1
10
149.906340
20
132.678840
11
150.188689
21
131.538760
0
LINE
8
Слой 1
10
150.188689
20
131.538760
11
150.313080
21
129.145730
0
LINE
8
Слой 1
10
150.313080
20
129.145730
11
150.373380
21
127.732070
0
LINE
8
Слой 1
10
150.373380
20
127.732070
11
150.137390
21
116.182970
0
LINE
8
Слой 1
10
150.137390
20
116.182970
11
149.838120
21
114.722200
0
LINE
8
Слой 1
10
149.838120
20
114.722200
11
149.022826
21
113.666517
0
LINE
8
Слой 1
10
149.022826
20
113.666517
11
147.817000
21
112.834500
0
LINE
8
Слой 1
10
147.817000
20
112.834500
11
147.126858
21
112.559732
0
LINE
8
Слой 1
10
147.126858
20
112.559732
11
146.065090
21
112.426041
0
LINE
8
Слой 1
10
146.065090
20
112.426041
11
140.044120
21
112.441040
0
LINE
8
Слой 1
10
140.044120
20
112.441040
11
134.882194
21
112.447626
0
LINE
8
Слой 1
10
134.882194
20
112.447626
11
134.018200
21
112.342640
0
LINE
8
Слой 1
10
134.018200
20
112.342640
11
133.731650
21
112.138230
0
LINE
8
Слой 1
10
133.731650
20
112.138230
11
133.630880
21
110.428160
0
LINE
8
Слой 1
10
133.630880
20
110.428160
11
133.399570
21
106.175710
0
LINE
8
Слой 1
10
133.399570
20
106.175710
11
132.990040
21
105.917070
0
LINE
8
Слой 1
10
132.990040
20
105.917070
11
130.687796
21
105.834020
0
LINE
8
Слой 1
10
130.687796
20
105.834020
11
128.311700
21
105.903070
0
LINE
8
Слой 1
10
128.311700
20
105.903070
11
128.311700
21
105.902670
0
LINE
8
Слой 1
10
138.206370
20
118.124270
11
141.466640
21
118.197470
0
LINE
8
Слой 1
10
141.466640
20
118.197470
11
142.262780
21
118.341442
0
LINE
8
Слой 1
10
142.262780
20
118.341442
11
142.973446
21
118.665389
0
LINE
8
Слой 1
10
142.973446
20
118.665389
11
143.566035
21
119.149106
0
LINE
8
Слой 1
10
143.566035
20
119.149106
11
144.007940
21
119.772390
0
LINE
8
Слой 1
10
144.007940
20
119.772390
11
144.198805
21
120.639815
0
LINE
8
Слой 1
10
144.198805
20
120.639815
11
144.231720
21
124.157260
0
LINE
8
Слой 1
10
144.231720
20
124.157260
11
144.237720
21
128.122350
0
LINE
8
Слой 1
10
144.237720
20
128.122350
11
143.951850
21
128.585270
0
LINE
8
Слой 1
10
143.951850
20
128.585270
11
143.611523
21
129.007631
0
LINE
8
Слой 1
10
143.611523
20
129.007631
11
143.127990
21
129.323320
0
LINE
8
Слой 1
10
143.127990
20
129.323320
11
142.456125
21
129.565886
0
LINE
8
Слой 1
10
142.456125
20
129.565886
11
141.152010
21
129.654620
0
LINE
8
Слой 1
10
141.152010
20
129.654620
11
136.913850
21
129.710820
0
LINE
8
Слой 1
10
136.913850
20
129.710820
11
134.527171
21
129.684424
0
LINE
8
Слой 1
10
134.527171
20
129.684424
11
133.945180
21
129.542850
0
LINE
8
Слой 1
10
133.945180
20
129.542850
11
133.796995
21
129.093984
0
LINE
8
Слой 1
10
133.796995
20
129.093984
11
133.723570
21
127.610860
0
LINE
8
Слой 1
10
133.723570
20
127.610860
11
133.676470
21
122.244580
0
LINE
8
Слой 1
10
133.676470
20
122.244580
11
133.707906
21
119.081662
0
LINE
8
Слой 1
10
133.707906
20
119.081662
11
133.769067
21
118.617563
0
LINE
8
Слой 1
10
133.769067
20
118.617563
11
133.885960
21
118.438880
0
LINE
8
Слой 1
10
133.885960
20
118.438880
11
134.537535
21
118.116407
0
LINE
8
Слой 1
10
134.537535
20
118.116407
11
135.284600
21
118.034730
0
LINE
8
Слой 1
10
135.284600
20
118.034730
11
138.206150
21
118.124230
0
LINE
8
Слой 1
10
138.206150
20
118.124230
11
138.206370
21
118.124270
0
LINE
8
Слой 1
10
127.432570
20
118.373270
11
127.633919
21
118.599904
0
LINE
8
Слой 1
10
127.633919
20
118.599904
11
127.730530
21
119.030770
0
LINE
8
Слой 1
10
127.730530
20
119.030770
11
127.791630
21
124.456740
0
LINE
8
Слой 1
10
127.791630
20
124.456740
11
127.767024
21
128.743881
0
LINE
8
Слой 1
10
127.767024
20
128.743881
11
127.710901
21
129.367968
0
LINE
8
Слой 1
10
127.710901
20
129.367968
11
127.603960
21
129.569450
0
LINE
8
Слой 1
10
127.603960
20
129.569450
11
127.250550
21
129.769620
0
LINE
8
Слой 1
10
127.250550
20
129.769620
11
126.749210
21
129.803720
0
LINE
8
Слой 1
10
126.749210
20
129.803720
11
125.853900
21
129.902620
0
LINE
8
Слой 1
10
125.853900
20
129.902620
11
125.242560
21
129.968820
0
LINE
8
Слой 1
10
125.242560
20
129.968820
11
122.609050
21
129.805880
0
LINE
8
Слой 1
10
122.609050
20
129.805880
11
121.383890
21
129.722880
0
LINE
8
Слой 1
10
121.383890
20
129.722880
11
120.237090
21
129.627880
0
LINE
8
Слой 1
10
120.237090
20
129.627880
11
119.473295
21
129.509622
0
LINE
8
Слой 1
10
119.473295
20
129.509622
11
118.900484
21
129.242696
0
LINE
8
Слой 1
10
118.900484
20
129.242696
11
118.464710
21
128.788550
0
LINE
8
Слой 1
10
118.464710
20
128.788550
11
118.112030
21
128.108630
0
LINE
8
Слой 1
10
118.112030
20
128.108630
11
117.941204
21
127.150165
0
LINE
8
Слой 1
10
117.941204
20
127.150165
11
117.870750
21
123.935580
0
LINE
8
Слой 1
10
117.870750
20
123.935580
11
117.883874
21
120.365539
0
LINE
8
Слой 1
10
117.883874
20
120.365539
11
117.996999
21
119.721368
0
LINE
8
Слой 1
10
117.996999
20
119.721368
11
118.216340
21
119.373510
0
LINE
8
Слой 1
10
118.216340
20
119.373510
11
119.607200
21
118.355880
0
LINE
8
Слой 1
10
119.607200
20
118.355880
11
120.476406
21
118.199846
0
LINE
8
Слой 1
10
120.476406
20
118.199846
11
123.606120
21
118.193460
0
LINE
8
Слой 1
10
123.606120
20
118.193460
11
126.623158
21
118.239930
0
LINE
8
Слой 1
10
126.623158
20
118.239930
11
127.432600
21
118.373220
0
LINE
8
Слой 1
10
127.432600
20
118.373220
11
127.432570
21
118.373270
0
LINE
8
Слой 1
10
137.974170
20
105.992170
11
137.785181
21
106.105473
0
LINE
8
Слой 1
10
137.785181
20
106.105473
11
137.674945
21
106.373637
0
LINE
8
Слой 1
10
137.674945
20
106.373637
11
137.603150
21
107.801790
0
LINE
8
Слой 1
10
137.603150
20
107.801790
11
137.717821
21
109.253512
0
LINE
8
Слой 1
10
137.717821
20
109.253512
11
137.979253
21
109.453447
0
LINE
8
Слой 1
10
137.979253
20
109.453447
11
138.469820
21
109.483350
0
LINE
8
Слой 1
10
138.469820
20
109.483350
11
139.744420
21
109.574050
0
LINE
8
Слой 1
10
139.744420
20
109.574050
11
150.441020
21
109.671350
0
LINE
8
Слой 1
10
150.441020
20
109.671350
11
170.908820
21
109.733650
0
LINE
8
Слой 1
10
170.908820
20
109.733650
11
181.977283
21
109.780450
0
LINE
8
Слой 1
10
181.977283
20
109.780450
11
184.393520
21
109.681150
0
LINE
8
Слой 1
10
184.393520
20
109.681150
11
184.630340
21
109.568660
0
LINE
8
Слой 1
10
184.630340
20
109.568660
11
184.697040
21
106.831450
0
LINE
8
Слой 1
10
184.697040
20
106.831450
11
184.549232
21
106.376886
0
LINE
8
Слой 1
10
184.549232
20
106.376886
11
183.837967
21
106.151114
0
LINE
8
Слой 1
10
183.837967
20
106.151114
11
177.647250
21
106.040740
0
LINE
8
Слой 1
10
177.647250
20
106.040740
11
137.974150
21
105.992240
0
LINE
8
Слой 1
10
137.974150
20
105.992240
11
137.974170
21
105.992170
0
LINE
8
Слой 1
10
32.418000
20
112.194000
11
31.756813
21
112.392008
0
LINE
8
Слой 1
10
31.756813
20
112.392008
11
31.487104
21
112.707330
0
LINE
8
Слой 1
10
31.487104
20
112.707330
11
31.335192
21
117.438250
0
LINE
8
Слой 1
10
31.335192
20
117.438250
11
31.238122
21
123.490810
0
LINE
8
Слой 1
10
31.238122
20
123.490810
11
31.083351
21
137.754361
0
LINE
8
Слой 1
10
31.083351
20
137.754361
11
31.119209
21
148.187610
0
LINE
8
Слой 1
10
31.119209
20
148.187610
11
31.527738
21
148.000974
0
LINE
8
Слой 1
10
31.527738
20
148.000974
11
32.394739
21
147.029980
0
LINE
8
Слой 1
10
32.394739
20
147.029980
11
34.337879
21
144.335320
0
LINE
8
Слой 1
10
34.337879
20
144.335320
11
36.469599
21
141.349970
0
LINE
8
Слой 1
10
36.469599
20
141.349970
11
37.325716
21
140.131020
0
LINE
8
Слой 1
10
37.325716
20
140.131020
11
40.310976
21
135.821470
0
LINE
8
Слой 1
10
40.310976
20
135.821470
11
42.163696
21
133.182650
0
LINE
8
Слой 1
10
42.163696
20
133.182650
11
43.961096
21
130.653330
0
LINE
8
Слой 1
10
43.961096
20
130.653330
11
45.168246
21
128.956950
0
LINE
8
Слой 1
10
45.168246
20
128.956950
11
48.343426
21
124.574620
0
LINE
8
Слой 1
10
48.343426
20
124.574620
11
48.717261
21
124.056280
0
LINE
8
Слой 1
10
48.717261
20
124.056280
11
49.102026
21
123.537940
0
LINE
8
Слой 1
10
49.102026
20
123.537940
11
50.401036
21
121.632560
0
LINE
8
Слой 1
10
50.401036
20
121.632560
11
51.775856
21
119.606320
0
LINE
8
Слой 1
10
51.775856
20
119.606320
11
52.682217
21
118.529890
0
LINE
8
Слой 1
10
52.682217
20
118.529890
11
53.049776
21
118.260310
0
LINE
8
Слой 1
10
53.049776
20
118.260310
11
53.298352
21
118.380990
0
LINE
8
Слой 1
10
53.298352
20
118.380990
11
53.691244
21
118.813805
0
LINE
8
Слой 1
10
53.691244
20
118.813805
11
55.245326
21
121.040490
0
LINE
8
Слой 1
10
55.245326
20
121.040490
11
57.712666
21
124.668870
0
LINE
8
Слой 1
10
57.712666
20
124.668870
11
59.974736
21
127.967390
0
LINE
8
Слой 1
10
59.974736
20
127.967390
11
62.014646
21
130.936060
0
LINE
8
Слой 1
10
62.014646
20
130.936060
11
63.872916
21
133.654000
0
LINE
8
Слой 1
10
63.872916
20
133.654000
11
65.101976
21
135.298680
0
LINE
8
Слой 1
10
65.101976
20
135.298680
11
65.687058
21
135.433841
0
LINE
8
Слой 1
10
65.687058
20
135.433841
11
67.324076
21
135.519090
0
LINE
8
Слой 1
10
67.324076
20
135.519090
11
71.846322
21
135.591541
0
LINE
8
Слой 1
10
71.846322
20
135.591541
11
74.391606
21
135.511090
0
LINE
8
Слой 1
10
74.391606
20
135.511090
11
74.751155
21
135.204800
0
LINE
8
Слой 1
10
74.751155
20
135.204800
11
74.890166
21
131.813336
0
LINE
8
Слой 1
10
74.890166
20
131.813336
11
74.951375
21
119.155300
0
LINE
8
Слой 1
10
74.951375
20
119.155300
11
74.896385
21
113.301582
0
LINE
8
Слой 1
10
74.896385
20
113.301582
11
74.735877
21
112.526524
0
LINE
8
Слой 1
10
74.735877
20
112.526524
11
74.420012
21
112.329360
0
LINE
8
Слой 1
10
74.420012
20
112.329360
11
71.646062
21
112.261960
0
LINE
8
Слой 1
10
71.646062
20
112.261960
11
69.554085
21
112.307332
0
LINE
8
Слой 1
10
69.554085
20
112.307332
11
69.007242
21
112.447640
0
LINE
8
Слой 1
10
69.007242
20
112.447640
11
68.860651
21
112.855011
0
LINE
8
Слой 1
10
68.860651
20
112.855011
11
68.776166
21
114.128341
0
LINE
8
Слой 1
10
68.776166
20
114.128341
11
68.714809
21
121.786070
0
LINE
8
Слой 1
10
68.714809
20
121.786070
11
68.642309
21
129.349110
0
LINE
8
Слой 1
10
68.642309
20
129.349110
11
68.450645
21
129.554691
0
LINE
8
Слой 1
10
68.450645
20
129.554691
11
68.101772
21
129.247520
0
LINE
8
Слой 1
10
68.101772
20
129.247520
11
67.718989
21
128.788410
0
LINE
8
Слой 1
10
67.718989
20
128.788410
11
67.361803
21
128.332600
0
LINE
8
Слой 1
10
67.361803
20
128.332600
11
66.481364
21
127.118880
0
LINE
8
Слой 1
10
66.481364
20
127.118880
11
65.682640
21
126.019550
0
LINE
8
Слой 1
10
65.682640
20
126.019550
11
63.054690
21
122.218220
0
LINE
8
Слой 1
10
63.054690
20
122.218220
11
60.271830
21
118.165750
0
LINE
8
Слой 1
10
60.271830
20
118.165750
11
56.742141
21
113.024439
0
LINE
8
Слой 1
10
56.742141
20
113.024439
11
56.186034
21
112.447345
0
LINE
8
Слой 1
10
56.186034
20
112.447345
11
55.760480
21
112.325040
0
LINE
8
Слой 1
10
55.760480
20
112.325040
11
52.970324
21
112.239792
0
LINE
8
Слой 1
10
52.970324
20
112.239792
11
50.176910
21
112.337740
0
LINE
8
Слой 1
10
50.176910
20
112.337740
11
49.773444
21
112.513901
0
LINE
8
Слой 1
10
49.773444
20
112.513901
11
49.302023
21
112.963855
0
LINE
8
Слой 1
10
49.302023
20
112.963855
11
47.633320
21
115.291270
0
LINE
8
Слой 1
10
47.633320
20
115.291270
11
40.384420
21
125.909170
0
LINE
8
Слой 1
10
40.384420
20
125.909170
11
39.311140
21
127.448720
0
LINE
8
Слой 1
10
39.311140
20
127.448720
11
38.426679
21
128.645121
0
LINE
8
Слой 1
10
38.426679
20
128.645121
11
37.924240
21
129.097980
0
LINE
8
Слой 1
10
37.924240
20
129.097980
11
37.729908
21
128.844820
0
LINE
8
Слой 1
10
37.729908
20
128.844820
11
37.732908
21
121.234660
0
LINE
8
Слой 1
10
37.732908
20
121.234660
11
37.792938
21
113.453560
0
LINE
8
Слой 1
10
37.792938
20
113.453560
11
37.730191
21
112.737157
0
LINE
8
Слой 1
10
37.730191
20
112.737157
11
37.396084
21
112.361031
0
LINE
8
Слой 1
10
37.396084
20
112.361031
11
36.529247
21
112.210583
0
LINE
8
Слой 1
10
36.529247
20
112.210583
11
34.868308
21
112.171210
0
LINE
8
Слой 1
10
34.868308
20
112.171210
11
32.417978
21
112.193710
0
LINE
8
Слой 1
10
32.417978
20
112.193710
11
32.418000
21
112.194000
0
LINE
8
Слой 1
10
81.283300
20
112.240800
11
79.938000
21
112.311500
0
LINE
8
Слой 1
10
79.938000
20
112.311500
11
79.795375
21
112.751619
0
LINE
8
Слой 1
10
79.795375
20
112.751619
11
79.697596
21
114.125424
0
LINE
8
Слой 1
10
79.697596
20
114.125424
11
79.586532
21
120.896480
0
LINE
8
Слой 1
10
79.586532
20
120.896480
11
79.529251
21
132.016830
0
LINE
8
Слой 1
10
79.529251
20
132.016830
11
79.623432
21
135.110080
0
LINE
8
Слой 1
10
79.623432
20
135.110080
11
79.990176
21
135.387960
0
LINE
8
Слой 1
10
79.990176
20
135.387960
11
82.465606
21
135.459760
0
LINE
8
Слой 1
10
82.465606
20
135.459760
11
84.332174
21
135.432015
0
LINE
8
Слой 1
10
84.332174
20
135.432015
11
84.922496
21
135.303800
0
LINE
8
Слой 1
10
84.922496
20
135.303800
11
85.160025
21
135.015683
0
LINE
8
Слой 1
10
85.160025
20
135.015683
11
85.301398
21
134.418025
0
LINE
8
Слой 1
10
85.301398
20
134.418025
11
85.382925
21
131.590410
0
LINE
8
Слой 1
10
85.382925
20
131.590410
11
85.530994
21
118.568810
0
LINE
8
Слой 1
10
85.530994
20
118.568810
11
85.656659
21
118.124510
0
LINE
8
Слой 1
10
85.656659
20
118.124510
11
85.969246
21
118.342956
0
LINE
8
Слой 1
10
85.969246
20
118.342956
11
86.522485
21
119.061390
0
LINE
8
Слой 1
10
86.522485
20
119.061390
11
86.898424
21
119.579730
0
LINE
8
Слой 1
10
86.898424
20
119.579730
11
87.584746
21
120.569290
0
LINE
8
Слой 1
10
87.584746
20
120.569290
11
89.654486
21
123.473730
0
LINE
8
Слой 1
10
89.654486
20
123.473730
11
91.301016
21
125.752690
0
LINE
8
Слой 1
10
91.301016
20
125.752690
11
92.589576
21
127.590440
0
LINE
8
Слой 1
10
92.589576
20
127.590440
11
93.300019
21
128.627110
0
LINE
8
Слой 1
10
93.300019
20
128.627110
11
93.960644
21
129.569550
0
LINE
8
Слой 1
10
93.960644
20
129.569550
11
94.661236
21
130.559110
0
LINE
8
Слой 1
10
94.661236
20
130.559110
11
98.034276
21
135.203520
0
LINE
8
Слой 1
10
98.034276
20
135.203520
11
98.821793
21
135.504790
0
LINE
8
Слой 1
10
98.821793
20
135.504790
11
102.709004
21
135.558565
0
LINE
8
Слой 1
10
102.709004
20
135.558565
11
106.418493
21
135.461590
0
LINE
8
Слой 1
10
106.418493
20
135.461590
11
106.774853
21
135.086850
0
LINE
8
Слой 1
10
106.774853
20
135.086850
11
106.893432
21
123.951527
0
LINE
8
Слой 1
10
106.893432
20
123.951527
11
106.838453
21
112.827950
0
LINE
8
Слой 1
10
106.838453
20
112.827950
11
106.661615
21
112.586648
0
LINE
8
Слой 1
10
106.661615
20
112.586648
11
106.216780
21
112.448747
0
LINE
8
Слой 1
10
106.216780
20
112.448747
11
103.807513
21
112.376580
0
LINE
8
Слой 1
10
103.807513
20
112.376580
11
101.481093
21
112.453976
0
LINE
8
Слой 1
10
101.481093
20
112.453976
11
101.091445
21
112.598361
0
LINE
8
Слой 1
10
101.091445
20
112.598361
11
100.925033
21
112.862550
0
LINE
8
Слой 1
10
100.925033
20
112.862550
11
100.738693
21
125.470050
0
LINE
8
Слой 1
10
100.738693
20
125.470050
11
100.689644
21
128.396724
0
LINE
8
Слой 1
10
100.689644
20
128.396724
11
100.520003
21
129.354430
0
LINE
8
Слой 1
10
100.520003
20
129.354430
11
99.704881
21
128.568710
0
LINE
8
Слой 1
10
99.704881
20
128.568710
11
98.770236
21
127.189990
0
LINE
8
Слой 1
10
98.770236
20
127.189990
11
98.561069
21
126.930820
0
LINE
8
Слой 1
10
98.561069
20
126.930820
11
98.482749
21
126.833920
0
LINE
8
Слой 1
10
98.482749
20
126.833920
11
98.030735
21
126.150660
0
LINE
8
Слой 1
10
98.030735
20
126.150660
11
96.506015
21
124.056440
0
LINE
8
Слой 1
10
96.506015
20
124.056440
11
95.091055
21
122.124450
0
LINE
8
Слой 1
10
95.091055
20
122.124450
11
92.785025
21
118.778800
0
LINE
8
Слой 1
10
92.785025
20
118.778800
11
91.505245
21
116.941050
0
LINE
8
Слой 1
10
91.505245
20
116.941050
11
89.262235
21
113.736770
0
LINE
8
Слой 1
10
89.262235
20
113.736770
11
88.447677
21
112.718179
0
LINE
8
Слой 1
10
88.447677
20
112.718179
11
87.749555
21
112.329460
0
LINE
8
Слой 1
10
87.749555
20
112.329460
11
85.036138
21
112.209044
0
LINE
8
Слой 1
10
85.036138
20
112.209044
11
81.283305
21
112.240960
0
LINE
8
Слой 1
10
81.283305
20
112.240960
11
81.283300
21
112.240800
0
LINE
8
Слой 1
10
157.400600
20
112.699950
11
156.515566
21
112.769923
0
LINE
8
Слой 1
10
156.515566
20
112.769923
11
156.211940
21
112.912330
0
LINE
8
Слой 1
10
156.211940
20
112.912330
11
156.075874
21
113.422508
0
LINE
8
Слой 1
10
156.075874
20
113.422508
11
155.982055
21
114.951336
0
LINE
8
Слой 1
10
155.982055
20
114.951336
11
155.824560
21
123.773530
0
LINE
8
Слой 1
10
155.824560
20
123.773530
11
155.829560
21
134.611530
0
LINE
8
Слой 1
10
155.829560
20
134.611530
11
156.017860
21
135.212240
0
LINE
8
Слой 1
10
156.017860
20
135.212240
11
156.881230
21
135.419200
0
LINE
8
Слой 1
10
156.881230
20
135.419200
11
161.243100
21
135.446700
0
LINE
8
Слой 1
10
161.243100
20
135.446700
11
161.579262
21
135.307530
0
LINE
8
Слой 1
10
161.579262
20
135.307530
11
161.750005
21
134.499520
0
LINE
8
Слой 1
10
161.750005
20
134.499520
11
161.857280
21
127.476290
0
LINE
8
Слой 1
10
161.857280
20
127.476290
11
161.956299
21
120.439487
0
LINE
8
Слой 1
10
161.956299
20
120.439487
11
162.051575
21
119.028679
0
LINE
8
Слой 1
10
162.051575
20
119.028679
11
162.199730
21
118.432380
0
LINE
8
Слой 1
10
162.199730
20
118.432380
11
162.317450
21
118.294331
0
LINE
8
Слой 1
10
162.317450
20
118.294331
11
162.528860
21
118.456380
0
LINE
8
Слой 1
10
162.528860
20
118.456380
11
163.433150
21
119.572600
0
LINE
8
Слой 1
10
163.433150
20
119.572600
11
164.675340
21
121.228980
0
LINE
8
Слой 1
10
164.675340
20
121.228980
11
166.729440
21
124.103410
0
LINE
8
Слой 1
10
166.729440
20
124.103410
11
167.654270
21
125.422820
0
LINE
8
Слой 1
10
167.654270
20
125.422820
11
168.434500
21
126.481790
0
LINE
8
Слой 1
10
168.434500
20
126.481790
11
169.283790
21
127.612710
0
LINE
8
Слой 1
10
169.283790
20
127.612710
11
170.211040
21
128.853400
0
LINE
8
Слой 1
10
170.211040
20
128.853400
11
171.031650
21
130.031450
0
LINE
8
Слой 1
10
171.031650
20
130.031450
11
172.021210
21
131.425480
0
LINE
8
Слой 1
10
172.021210
20
131.425480
11
173.521280
21
133.548010
0
LINE
8
Слой 1
10
173.521280
20
133.548010
11
174.721720
21
135.079260
0
LINE
8
Слой 1
10
174.721720
20
135.079260
11
175.099980
21
135.448610
0
LINE
8
Слой 1
10
175.099980
20
135.448610
11
176.444110
21
135.516110
0
LINE
8
Слой 1
10
176.444110
20
135.516110
11
181.152709
21
135.570404
0
LINE
8
Слой 1
10
181.152709
20
135.570404
11
184.259780
21
135.434610
0
LINE
8
Слой 1
10
184.259780
20
135.434610
11
184.415009
21
134.543393
0
LINE
8
Слой 1
10
184.415009
20
134.543393
11
184.522274
21
132.135474
0
LINE
8
Слой 1
10
184.522274
20
132.135474
11
184.607970
21
122.196910
0
LINE
8
Слой 1
10
184.607970
20
122.196910
11
184.523570
21
113.165450
0
LINE
8
Слой 1
10
184.523570
20
113.165450
11
183.957540
21
112.896530
0
LINE
8
Слой 1
10
183.957540
20
112.896530
11
181.232164
21
112.795610
0
LINE
8
Слой 1
10
181.232164
20
112.795610
11
178.779750
21
112.887530
0
LINE
8
Слой 1
10
178.779750
20
112.887530
11
178.591111
21
113.299342
0
LINE
8
Слой 1
10
178.591111
20
113.299342
11
178.478292
21
114.610848
0
LINE
8
Слой 1
10
178.478292
20
114.610848
11
178.396930
21
121.888830
0
LINE
8
Слой 1
10
178.396930
20
121.888830
11
178.330857
21
128.639437
0
LINE
8
Слой 1
10
178.330857
20
128.639437
11
178.156350
21
130.794300
0
LINE
8
Слой 1
10
178.156350
20
130.794300
11
177.810510
21
130.701300
0
LINE
8
Слой 1
10
177.810510
20
130.701300
11
176.210070
21
128.674390
0
LINE
8
Слой 1
10
176.210070
20
128.674390
11
175.598690
21
127.811660
0
LINE
8
Слой 1
10
175.598690
20
127.811660
11
173.788340
21
125.281100
0
LINE
8
Слой 1
10
173.788340
20
125.281100
11
172.904530
21
124.055930
0
LINE
8
Слой 1
10
172.904530
20
124.055930
11
172.039640
21
122.878410
0
LINE
8
Слой 1
10
172.039640
20
122.878410
11
170.954960
21
121.370520
0
LINE
8
Слой 1
10
170.954960
20
121.370520
11
169.181020
21
118.885460
0
LINE
8
Слой 1
10
169.181020
20
118.885460
11
167.657070
21
116.743090
0
LINE
8
Слой 1
10
167.657070
20
116.743090
11
166.479030
21
115.094120
0
LINE
8
Слой 1
10
166.479030
20
115.094120
11
165.157525
21
113.325566
0
LINE
8
Слой 1
10
165.157525
20
113.325566
11
164.523500
21
112.802140
0
LINE
8
Слой 1
10
164.523500
20
112.802140
11
161.515020
21
112.679706
0
LINE
8
Слой 1
10
161.515020
20
112.679706
11
157.400170
21
112.700110
0
LINE
8
Слой 1
10
157.400170
20
112.700110
11
157.400600
21
112.699950
0
LINE
8
Слой 1
10
75.738500
20
138.396000
11
72.047490
21
138.455100
0
LINE
8
Слой 1
10
72.047490
20
138.455100
11
68.112820
21
138.603330
0
LINE
8
Слой 1
10
68.112820
20
138.603330
11
67.867245
21
138.839920
0
LINE
8
Слой 1
10
67.867245
20
138.839920
11
68.008085
21
139.305200
0
LINE
8
Слой 1
10
68.008085
20
139.305200
11
69.678665
21
141.653360
0
LINE
8
Слой 1
10
69.678665
20
141.653360
11
72.234407
21
141.837143
0
LINE
8
Слой 1
10
72.234407
20
141.837143
11
79.068635
21
141.907840
0
LINE
8
Слой 1
10
79.068635
20
141.907840
11
93.299435
21
142.018660
0
LINE
8
Слой 1
10
93.299435
20
142.018660
11
101.215895
21
142.020660
0
LINE
8
Слой 1
10
101.215895
20
142.020660
11
112.760695
21
142.021410
0
LINE
8
Слой 1
10
112.760695
20
142.021410
11
122.939808
21
141.954344
0
LINE
8
Слой 1
10
122.939808
20
141.954344
11
124.271062
21
141.788719
0
LINE
8
Слой 1
10
124.271062
20
141.788719
11
124.468568
21
141.650669
0
LINE
8
Слой 1
10
124.468568
20
141.650669
11
124.533595
21
141.467330
0
LINE
8
Слой 1
10
124.533595
20
141.467330
11
124.548895
21
138.918070
0
LINE
8
Слой 1
10
124.548895
20
138.918070
11
124.210591
21
138.610209
0
LINE
8
Слой 1
10
124.210591
20
138.610209
11
123.279135
21
138.460890
0
LINE
8
Слой 1
10
123.279135
20
138.460890
11
79.916735
21
138.420790
0
LINE
8
Слой 1
10
79.916735
20
138.420790
11
76.350985
21
138.402390
0
LINE
8
Слой 1
10
76.350985
20
138.402390
11
75.738402
21
138.395390
0
LINE
8
Слой 1
10
75.738402
20
138.395390
11
75.738500
21
138.396000
0
LINE
8
Слой 1
10
138.006500
20
138.615390
11
137.765320
21
138.915709
0
LINE
8
Слой 1
10
137.765320
20
138.915709
11
137.638470
21
139.944870
0
LINE
8
Слой 1
10
137.638470
20
139.944870
11
137.676361
21
141.229437
0
LINE
8
Слой 1
10
137.676361
20
141.229437
11
137.957200
21
141.908470
0
LINE
8
Слой 1
10
137.957200
20
141.908470
11
138.516974
21
142.027794
0
LINE
8
Слой 1
10
138.516974
20
142.027794
11
141.966161
21
142.100451
0
LINE
8
Слой 1
10
141.966161
20
142.100451
11
171.615800
21
142.247710
0
LINE
8
Слой 1
10
171.615800
20
142.247710
11
183.726100
21
142.220310
0
LINE
8
Слой 1
10
183.726100
20
142.220310
11
184.166570
21
141.817260
0
LINE
8
Слой 1
10
184.166570
20
141.817260
11
184.365952
21
140.707806
0
LINE
8
Слой 1
10
184.365952
20
140.707806
11
184.322260
21
139.440110
0
LINE
8
Слой 1
10
184.322260
20
139.440110
11
184.025386
21
138.894527
0
LINE
8
Слой 1
10
184.025386
20
138.894527
11
183.253800
21
138.673380
0
LINE
8
Слой 1
10
183.253800
20
138.673380
11
138.006500
21
138.615380
0
LINE
8
Слой 1
10
138.006500
20
138.615380
11
138.006500
21
138.615390
0
LINE
8
Слой 1
10
34.585600
20
151.877000
11
33.334250
21
152.624530
0
LINE
8
Слой 1
10
33.334250
20
152.624530
11
31.958964
21
153.431044
0
LINE
8
Слой 1
10
31.958964
20
153.431044
11
31.178600
21
153.693950
0
LINE
8
Слой 1
10
31.178600
20
153.693950
11
30.109040
21
153.273430
0
LINE
8
Слой 1
10
30.109040
20
153.273430
11
27.645739
21
152.001778
0
LINE
8
Слой 1
10
27.645739
20
152.001778
11
27.040528
21
151.793540
0
LINE
8
Слой 1
10
27.040528
20
151.793540
11
26.801260
21
151.848090
0
LINE
8
Слой 1
10
26.801260
20
151.848090
11
27.608034
21
154.491160
0
LINE
8
Слой 1
10
27.608034
20
154.491160
11
27.969525
21
155.856490
0
LINE
8
Слой 1
10
27.969525
20
155.856490
11
27.791296
21
156.151601
0
LINE
8
Слой 1
10
27.791296
20
156.151601
11
27.234608
21
156.585530
0
LINE
8
Слой 1
10
27.234608
20
156.585530
11
25.838924
21
157.592670
0
LINE
8
Слой 1
10
25.838924
20
157.592670
11
25.369640
21
158.137241
0
LINE
8
Слой 1
10
25.369640
20
158.137241
11
25.481521
21
158.281307
0
LINE
8
Слой 1
10
25.481521
20
158.281307
11
25.823948
21
158.364024
0
LINE
8
Слой 1
10
25.823948
20
158.364024
11
27.199038
21
158.417800
0
LINE
8
Слой 1
10
27.199038
20
158.417800
11
28.893898
21
158.523850
0
LINE
8
Слой 1
10
28.893898
20
158.523850
11
29.353387
21
159.216786
0
LINE
8
Слой 1
10
29.353387
20
159.216786
11
30.251498
21
161.384380
0
LINE
8
Слой 1
10
30.251498
20
161.384380
11
30.849321
21
162.781314
0
LINE
8
Слой 1
10
30.849321
20
162.781314
11
31.187787
21
163.214310
0
LINE
8
Слой 1
10
31.187787
20
163.214310
11
31.541027
21
162.900400
0
LINE
8
Слой 1
10
31.541027
20
162.900400
11
31.952305
21
162.042050
0
LINE
8
Слой 1
10
31.952305
20
162.042050
11
32.363393
21
160.999590
0
LINE
8
Слой 1
10
32.363393
20
160.999590
11
32.831652
21
159.810280
0
LINE
8
Слой 1
10
32.831652
20
159.810280
11
33.341313
21
158.755060
0
LINE
8
Слой 1
10
33.341313
20
158.755060
11
33.859678
21
158.616776
0
LINE
8
Слой 1
10
33.859678
20
158.616776
11
35.401063
21
158.508440
0
LINE
8
Слой 1
10
35.401063
20
158.508440
11
37.250817
21
158.375641
0
LINE
8
Слой 1
10
37.250817
20
158.375641
11
37.538694
21
158.290470
0
LINE
8
Слой 1
10
37.538694
20
158.290470
11
37.601403
21
158.161310
0
LINE
8
Слой 1
10
37.601403
20
158.161310
11
37.352679
21
157.872664
0
LINE
8
Слой 1
10
37.352679
20
157.872664
11
35.952143
21
156.934900
0
LINE
8
Слой 1
10
35.952143
20
156.934900
11
35.048845
21
156.312187
0
LINE
8
Слой 1
10
35.048845
20
156.312187
11
34.593559
21
155.856361
0
LINE
8
Слой 1
10
34.593559
20
155.856361
11
34.490213
21
155.412740
0
LINE
8
Слой 1
10
34.490213
20
155.412740
11
34.642733
21
154.826640
0
LINE
8
Слой 1
10
34.642733
20
154.826640
11
35.560775
21
151.665960
0
LINE
8
Слой 1
10
35.560775
20
151.665960
11
35.296469
21
151.554685
0
LINE
8
Слой 1
10
35.296469
20
151.554685
11
34.585608
21
151.877000
0
LINE
8
Слой 1
10
34.585608
20
151.877000
11
34.585600
21
151.877000
 0 
ENDSEC
 0 
EOF